<svg width="25" height="24" viewBox="0 0 25 24" fill="none" xmlns="http://www.w3.org/2000/svg">
    <path fill-rule="evenodd" clip-rule="evenodd"
        d="M12.5 2.25C9.87665 2.25 7.75 4.37665 7.75 7C7.75 9.62335 9.87665 11.75 12.5 11.75C15.1234 11.75 17.25 9.62335 17.25 7C17.25 4.37665 15.1234 2.25 12.5 2.25ZM9.25 7C9.25 5.20507 10.7051 3.75 12.5 3.75C14.2949 3.75 15.75 5.20507 15.75 7C15.75 8.79493 14.2949 10.25 12.5 10.25C10.7051 10.25 9.25 8.79493 9.25 7Z"
        fill="white" />
    <path
        d="M10.1 13.25C6.59299 13.25 3.75 16.093 3.75 19.6C3.75 20.7874 4.71259 21.75 5.9 21.75H13.5C13.9142 21.75 14.25 21.4142 14.25 21C14.25 20.5858 13.9142 20.25 13.5 20.25H5.9C5.54101 20.25 5.25 19.959 5.25 19.6C5.25 16.9214 7.42142 14.75 10.1 14.75H14.9C15.3146 14.75 15.7159 14.8018 16.0984 14.899C16.4999 15.001 16.908 14.7582 17.01 14.3568C17.112 13.9553 16.8692 13.5472 16.4678 13.4452C15.9655 13.3176 15.4401 13.25 14.9 13.25H10.1Z"
        fill="white" />
    <path
        d="M19 15.75C19.4142 15.75 19.75 16.0858 19.75 16.5V18.25H21.5C21.9142 18.25 22.25 18.5858 22.25 19C22.25 19.4142 21.9142 19.75 21.5 19.75H19.75V21.5C19.75 21.9142 19.4142 22.25 19 22.25C18.5858 22.25 18.25 21.9142 18.25 21.5V19.75H16.5C16.0858 19.75 15.75 19.4142 15.75 19C15.75 18.5858 16.0858 18.25 16.5 18.25H18.25V16.5C18.25 16.0858 18.5858 15.75 19 15.75Z"
        fill="white" />
</svg>