<svg width="106" height="36" viewBox="0 0 106 36" fill="none" xmlns="http://www.w3.org/2000/svg">
    <rect x="0.306641" y="0.554443" width="105" height="35" rx="5.58255" fill="white" />
    <path
        d="M19.8106 11.9902C19.6744 10.8955 20.2196 9.73419 20.8256 9.02058C21.5125 8.21242 22.7114 7.59361 23.6643 7.55298C23.7872 8.6945 23.3373 9.81519 22.677 10.6377C21.9901 11.4458 20.8864 12.0714 19.8106 11.9902Z"
        fill="#2E2C2F" />
    <path
        d="M27.6807 21.6716C27.6674 21.7393 27.2864 23.0644 26.34 24.4023C25.5432 25.5852 24.7188 26.7401 23.3982 26.7601C22.1186 26.7872 21.6898 26.0061 20.2194 26.0061C18.7425 26.0061 18.2793 26.7403 17.0526 26.7872C15.7942 26.8349 14.8413 25.524 14.0169 24.3554C12.3771 21.9635 11.1027 17.6157 12.8111 14.6596C13.6356 13.2064 15.1535 12.2748 16.7682 12.2477C18.0201 12.2279 19.1914 13.0972 19.9616 13.0972C20.7171 13.0972 22.1598 12.0505 23.6433 12.207C24.2639 12.2279 26.0334 12.4584 27.1767 14.1161C27.0893 14.17 25.0737 15.3529 25.0951 17.7847C25.1215 20.6928 27.6478 21.6578 27.6807 21.6716Z"
        fill="#2E2C2F" />
    <path
        d="M36.3256 22.4322L37.1634 19.8169C37.3818 18.9879 37.5379 18.3563 37.6413 17.9284H37.6744C37.9192 18.9204 38.0899 19.5447 38.1786 19.8169L39.0297 22.4322H36.3256ZM38.7157 16.5824H36.7148L33.4804 26.6178H35.1491L36.0399 23.6691H39.3087L40.2482 26.6178H41.9634L38.7157 16.5824Z"
        fill="#2E2C2F" />
    <path
        d="M48.1241 24.8168C47.7841 25.2791 47.3143 25.5169 46.708 25.5169C46.1905 25.5169 45.7685 25.3338 45.4482 24.9736C45.128 24.6131 44.9652 24.1647 44.9652 23.6419V22.4322C44.9652 22.3033 44.9915 22.1402 45.0406 21.9439C45.1345 21.5149 45.353 21.1753 45.6732 20.9107C46.0002 20.6528 46.3614 20.5169 46.7558 20.5169C47.3406 20.5169 47.8104 20.7547 48.1586 21.2305C48.4775 21.6855 48.6349 22.2629 48.6349 22.9695C48.6349 23.737 48.4642 24.3483 48.1241 24.8168ZM49.4037 20.2445C48.8319 19.5723 48.1241 19.2326 47.2665 19.2326C46.1761 19.2326 45.3595 19.6668 44.8221 20.5302H44.7942L44.7055 19.3816H43.2894C43.3304 20.1971 43.3515 20.9852 43.3515 21.76V29.553H44.9646V25.7547C45.3867 26.4412 46.0736 26.7806 47.0345 26.7806C47.9198 26.7806 48.6675 26.468 49.267 25.8294C49.9419 25.1158 50.2754 24.1446 50.2754 22.9148C50.2754 21.8076 49.9889 20.9237 49.4037 20.2445Z"
        fill="#2E2C2F" />
    <path
        d="M56.4575 24.8168C56.1239 25.2791 55.6476 25.5169 55.0414 25.5169C54.5238 25.5169 54.1018 25.3338 53.7816 24.9736C53.4614 24.6131 53.2985 24.1647 53.2985 23.6419V22.4322C53.2985 22.3033 53.3265 22.1402 53.3726 21.9439C53.4747 21.5149 53.6863 21.1753 54.0066 20.9107C54.3336 20.6528 54.6935 20.5169 55.0891 20.5169C55.674 20.5169 56.1438 20.7547 56.4906 21.2305C56.8122 21.6855 56.9685 22.2629 56.9685 22.9695C56.9685 23.737 56.8041 24.3483 56.4575 24.8168ZM57.7371 20.2445C57.1653 19.5723 56.4575 19.2326 55.5986 19.2326C54.5108 19.2326 53.6929 19.6668 53.1555 20.5302H53.1276L53.0388 19.3816H51.6227C51.6637 20.1971 51.6836 20.9852 51.6836 21.76V29.553H53.298V25.7547C53.72 26.4412 54.4082 26.7806 55.3679 26.7806C56.2518 26.7806 57.0009 26.468 57.6003 25.8294C58.2739 25.1158 58.6088 24.1446 58.6088 22.9148C58.6088 21.8076 58.3235 20.9237 57.7371 20.2445Z"
        fill="#2E2C2F" />
    <path
        d="M67.3166 22.059C67.7321 22.5276 67.9359 23.1123 67.9359 23.8051C67.9359 24.6609 67.6368 25.3537 67.0439 25.8907C66.3914 26.4746 65.4795 26.7673 64.3085 26.7673C63.2246 26.7673 62.3605 26.5566 61.7068 26.142L62.0813 24.8033C62.7893 25.2177 63.566 25.4284 64.4106 25.4284C65.0166 25.4284 65.4931 25.2924 65.8267 25.0211C66.1667 24.7489 66.3374 24.3825 66.3374 23.9272C66.3374 23.5191 66.1931 23.1795 65.9219 22.9011C65.6427 22.6226 65.1794 22.3643 64.5324 22.1262C62.7551 21.4676 61.8777 20.5091 61.8777 19.2522C61.8777 18.4305 62.1901 17.7578 62.8094 17.2278C63.43 16.7046 64.2532 16.4397 65.2815 16.4397C66.1933 16.4397 66.957 16.5962 67.5617 16.9153L67.154 18.2198C66.5822 17.9143 65.9417 17.7578 65.2206 17.7578C64.6556 17.7578 64.2057 17.9003 63.8855 18.1722C63.6208 18.4235 63.4846 18.7228 63.4846 19.0829C63.4846 19.4767 63.642 19.8101 63.9478 20.0614C64.2125 20.2992 64.7034 20.5571 65.4114 20.8352C66.2755 21.1821 66.9077 21.5895 67.3166 22.059Z"
        fill="#2E2C2F" />
    <path
        d="M71.4965 19.3817H73.2738V20.5914H71.4965V24.104C71.4965 24.9942 71.8102 25.4422 72.436 25.4422C72.7218 25.4422 72.9601 25.4151 73.1506 25.3674L73.1983 26.591C72.8781 26.7064 72.4639 26.7676 71.9464 26.7676C71.3059 26.7676 70.8163 26.5702 70.4549 26.1829C70.095 25.7956 69.9162 25.1432 69.9162 24.2332V20.5844H68.8616V19.3817H69.9162V18.0573L71.4965 17.5817V19.3817Z"
        fill="#2E2C2F" />
    <path
        d="M79.1568 24.7014C78.8021 25.2861 78.3191 25.5778 77.7063 25.5778C77.0802 25.5778 76.5893 25.2923 76.2427 24.7146C75.9569 24.2461 75.8139 23.6757 75.8139 23.0093C75.8139 22.3235 75.9501 21.7461 76.2427 21.2703C76.5762 20.6929 77.0723 20.4072 77.7196 20.4072C78.3467 20.4072 78.8298 20.6926 79.1701 21.2703C79.4559 21.7461 79.5989 22.31 79.5989 22.9757C79.5989 23.6414 79.4494 24.2123 79.1568 24.7014ZM80.3412 20.2993C79.6939 19.5922 78.8366 19.2391 77.7739 19.2391C76.6715 19.2391 75.7927 19.5993 75.1403 20.3129C74.4917 21.0257 74.1663 21.9435 74.1663 23.0642C74.1663 24.1372 74.4787 25.0274 75.111 25.7275C75.745 26.4273 76.5958 26.7805 77.6585 26.7805C78.7609 26.7805 79.6462 26.4138 80.3132 25.6796C80.9459 24.9662 81.2674 24.056 81.2674 22.9418C81.2674 21.8615 80.9605 20.9786 80.3412 20.2993Z"
        fill="#2E2C2F" />
    <path
        d="M86.5028 19.26L86.508 20.7951C86.352 20.768 86.1813 20.7545 85.9986 20.7545C85.4335 20.7545 84.9914 20.9652 84.6845 21.3933C84.4186 21.7663 84.2821 22.2491 84.2821 22.8195V26.6178H82.6689V21.6582C82.6689 20.8222 82.6556 20.0619 82.6212 19.3817H84.024L84.0848 20.768H84.1338C84.3032 20.2924 84.5679 19.9049 84.9358 19.6194C85.2971 19.3619 85.6849 19.2329 86.1004 19.2329C86.2499 19.2329 86.3864 19.2465 86.5028 19.26Z"
        fill="#2E2C2F" />
    <path
        d="M88.8243 22.2356C88.872 21.7527 89.0346 21.3321 89.3006 20.9852C89.6276 20.5508 90.0561 20.3331 90.5802 20.3331C91.152 20.3331 91.5821 20.5573 91.8598 21.0061C92.0782 21.3522 92.1865 21.7666 92.1735 22.2421L88.8243 22.2356ZM93.713 22.6565C93.713 21.753 93.4946 20.9988 93.0658 20.3737C92.5336 19.5997 91.7384 19.2124 90.6955 19.2124C89.6341 19.2124 88.7898 19.5997 88.164 20.3737C87.5645 21.1006 87.2654 22.0116 87.2654 23.0987C87.2654 24.2059 87.5856 25.0961 88.2248 25.7547C88.8653 26.4142 89.7495 26.7468 90.873 26.7468C91.806 26.7468 92.6159 26.597 93.3041 26.298L93.0527 25.1844C92.4666 25.4086 91.8128 25.524 91.0982 25.524C90.451 25.524 89.9269 25.3536 89.5193 25.0213C89.0693 24.6473 88.8379 24.097 88.818 23.3836H93.6512C93.6922 23.1873 93.713 22.9422 93.713 22.6565Z"
        fill="#2E2C2F" />
    <path
        d="M34.6094 14.1448H33.957V12.3987H34.375C34.513 12.3258 34.6237 12.2229 34.707 12.0901C34.7904 11.9547 34.8529 11.7906 34.8945 11.5979C34.9388 11.4052 34.9674 11.1864 34.9805 10.9417L35.1953 7.39478H38.7617V12.3987H39.4648V14.1448H38.8125V13.0315H34.6094V14.1448ZM35.6406 10.9573C35.6276 11.1682 35.6081 11.3583 35.582 11.5276C35.556 11.6969 35.5169 11.8492 35.4648 11.9846C35.4128 12.1174 35.3398 12.2398 35.2461 12.3518V12.3987H38.0586V8.02759H35.8242L35.6406 10.9573Z"
        fill="#2E2C2F" />
    <path
        d="M42.1406 13.1057C41.7422 13.1057 41.3971 13.0185 41.1055 12.844C40.8164 12.6669 40.5924 12.4156 40.4336 12.0901C40.2773 11.7646 40.1992 11.3778 40.1992 10.9299V10.9221C40.1992 10.4716 40.2773 10.0836 40.4336 9.75806C40.5924 9.43254 40.8164 9.18254 41.1055 9.00806C41.3971 8.83358 41.7422 8.74634 42.1406 8.74634C42.5417 8.74634 42.8867 8.83358 43.1758 9.00806C43.4648 9.18254 43.6875 9.43254 43.8438 9.75806C44.0026 10.0836 44.082 10.4716 44.082 10.9221V10.9299C44.082 11.3778 44.0026 11.7646 43.8438 12.0901C43.6875 12.4156 43.4648 12.6669 43.1758 12.844C42.8867 13.0185 42.5417 13.1057 42.1406 13.1057ZM42.1406 12.5042C42.4062 12.5042 42.6315 12.4417 42.8164 12.3167C43.0013 12.1917 43.1419 12.012 43.2383 11.7776C43.3372 11.5432 43.3867 11.2607 43.3867 10.9299V10.9221C43.3867 10.5888 43.3372 10.3049 43.2383 10.0706C43.1419 9.83618 43.0013 9.6578 42.8164 9.5354C42.6315 9.4104 42.4062 9.3479 42.1406 9.3479C41.875 9.3479 41.6497 9.4104 41.4648 9.5354C41.2799 9.6578 41.138 9.83618 41.0391 10.0706C40.9427 10.3049 40.8945 10.5888 40.8945 10.9221V10.9299C40.8945 11.2607 40.9427 11.5432 41.0391 11.7776C41.138 12.012 41.2799 12.1917 41.4648 12.3167C41.6497 12.4417 41.875 12.5042 42.1406 12.5042Z"
        fill="#2E2C2F" />
    <path
        d="M46.9375 13.1057C46.5443 13.1057 46.2031 13.0159 45.9141 12.8362C45.625 12.6565 45.401 12.4026 45.2422 12.0745C45.0833 11.7463 45.0039 11.3596 45.0039 10.9143V10.9065C45.0039 10.469 45.082 10.0888 45.2383 9.76587C45.3971 9.44295 45.6211 9.19295 45.9102 9.01587C46.1992 8.83618 46.5404 8.74634 46.9336 8.74634C47.2747 8.74634 47.569 8.80623 47.8164 8.92603C48.0638 9.04582 48.2617 9.20728 48.4102 9.4104C48.5586 9.61092 48.6536 9.83618 48.6953 10.0862L48.6992 10.1096H48.0234L48.0195 10.0979C47.9674 9.88957 47.849 9.71248 47.6641 9.56665C47.4792 9.42082 47.2357 9.3479 46.9336 9.3479C46.681 9.3479 46.4622 9.4117 46.2773 9.53931C46.0924 9.66691 45.9492 9.8479 45.8477 10.0823C45.7487 10.314 45.6992 10.5888 45.6992 10.9065V10.9143C45.6992 11.2372 45.75 11.5185 45.8516 11.7581C45.9531 11.995 46.0964 12.1786 46.2812 12.3088C46.4661 12.439 46.6836 12.5042 46.9336 12.5042C47.2174 12.5042 47.4492 12.443 47.6289 12.3206C47.8086 12.1982 47.9375 12.0198 48.0156 11.7854L48.0234 11.762L48.6953 11.7581L48.6875 11.801C48.6302 12.0536 48.5286 12.2789 48.3828 12.4768C48.237 12.6721 48.0443 12.8258 47.8047 12.9377C47.5651 13.0497 47.276 13.1057 46.9375 13.1057Z"
        fill="#2E2C2F" />
    <path d="M52.6211 8.82056V9.38306H51.2578V13.0315H50.5781V9.38306H49.2148V8.82056H52.6211Z"
        fill="#2E2C2F" />
    <path
        d="M53.9648 14.5081C53.9206 14.5081 53.8711 14.5055 53.8164 14.5002C53.7617 14.4976 53.7109 14.4924 53.6641 14.4846V13.926C53.7057 13.9338 53.7513 13.939 53.8008 13.9417C53.8503 13.9443 53.8984 13.9456 53.9453 13.9456C54.138 13.9456 54.2956 13.8961 54.418 13.7971C54.543 13.6982 54.6432 13.5276 54.7188 13.2854L54.7969 13.0354L53.2383 8.82056H53.9648L55.2617 12.7112L54.9922 12.2854H55.3125L55.043 12.7112L56.3359 8.82056H57.0508L55.4062 13.2893C55.2917 13.6044 55.1706 13.8505 55.043 14.0276C54.9154 14.2047 54.7656 14.3284 54.5938 14.3987C54.4245 14.4716 54.2148 14.5081 53.9648 14.5081Z"
        fill="#2E2C2F" />
    <path d="M58.0234 13.0315V8.82056H61.4297V13.0315H60.75V9.38306H58.7031V13.0315H58.0234Z"
        fill="#2E2C2F" />
    <path
        d="M65.5312 13.0315V11.1252H63.4453V13.0315H62.7656V8.82056H63.4453V10.5627H65.5312V8.82056H66.2109V13.0315H65.5312Z"
        fill="#2E2C2F" />
    <path
        d="M69.2812 13.1057C68.8828 13.1057 68.5378 13.0185 68.2461 12.844C67.957 12.6669 67.7331 12.4156 67.5742 12.0901C67.418 11.7646 67.3398 11.3778 67.3398 10.9299V10.9221C67.3398 10.4716 67.418 10.0836 67.5742 9.75806C67.7331 9.43254 67.957 9.18254 68.2461 9.00806C68.5378 8.83358 68.8828 8.74634 69.2812 8.74634C69.6823 8.74634 70.0273 8.83358 70.3164 9.00806C70.6055 9.18254 70.8281 9.43254 70.9844 9.75806C71.1432 10.0836 71.2227 10.4716 71.2227 10.9221V10.9299C71.2227 11.3778 71.1432 11.7646 70.9844 12.0901C70.8281 12.4156 70.6055 12.6669 70.3164 12.844C70.0273 13.0185 69.6823 13.1057 69.2812 13.1057ZM69.2812 12.5042C69.5469 12.5042 69.7721 12.4417 69.957 12.3167C70.1419 12.1917 70.2826 12.012 70.3789 11.7776C70.4779 11.5432 70.5273 11.2607 70.5273 10.9299V10.9221C70.5273 10.5888 70.4779 10.3049 70.3789 10.0706C70.2826 9.83618 70.1419 9.6578 69.957 9.5354C69.7721 9.4104 69.5469 9.3479 69.2812 9.3479C69.0156 9.3479 68.7904 9.4104 68.6055 9.5354C68.4206 9.6578 68.2786 9.83618 68.1797 10.0706C68.0833 10.3049 68.0352 10.5888 68.0352 10.9221V10.9299C68.0352 11.2607 68.0833 11.5432 68.1797 11.7776C68.2786 12.012 68.4206 12.1917 68.6055 12.3167C68.7904 12.4417 69.0156 12.5042 69.2812 12.5042Z"
        fill="#2E2C2F" />
    <path
        d="M74.6016 13.0315V8.82056H76.3867C76.7852 8.82056 77.0951 8.92082 77.3164 9.12134C77.5378 9.31925 77.6484 9.58358 77.6484 9.91431V9.92212C77.6484 10.1305 77.5833 10.3219 77.4531 10.4963C77.3229 10.6682 77.1589 10.775 76.9609 10.8167V10.8792C77.1406 10.9026 77.2956 10.9586 77.4258 11.0471C77.556 11.1331 77.6562 11.2424 77.7266 11.3752C77.7995 11.5055 77.8359 11.6526 77.8359 11.8167V11.8245C77.8359 12.0667 77.7786 12.2789 77.6641 12.4612C77.5495 12.6409 77.3841 12.7815 77.168 12.8831C76.9544 12.982 76.6966 13.0315 76.3945 13.0315H74.6016ZM75.2812 12.469H76.3672C76.625 12.469 76.819 12.413 76.9492 12.301C77.0794 12.1864 77.1445 12.0237 77.1445 11.8127V11.8049C77.1445 11.581 77.069 11.4182 76.918 11.3167C76.7669 11.2151 76.5404 11.1643 76.2383 11.1643H75.2812V12.469ZM75.2812 10.6018H76.1797C76.4531 10.6018 76.6536 10.5497 76.7812 10.4456C76.9089 10.3414 76.9727 10.1903 76.9727 9.99243V9.98462C76.9727 9.80493 76.918 9.6604 76.8086 9.55103C76.6992 9.43905 76.526 9.38306 76.2891 9.38306H75.2812V10.6018Z"
        fill="#2E2C2F" />
</svg>