<svg width="62" height="60" viewBox="0 0 62 60" fill="none" xmlns="http://www.w3.org/2000/svg">
    <path
        d="M55.2656 50.3085H19.4301C17.9531 50.3085 16.7559 49.1112 16.7559 47.6342V2.67432C16.7559 1.19732 17.9531 0 19.4301 0H55.2656C56.7426 0 57.9398 1.19732 57.9398 2.67432V47.6342C57.9398 49.1112 56.7426 50.3085 55.2656 50.3085Z"
        fill="#2C4BAF" />
    <g opacity="0.87">
        <path
            d="M55.2656 50.3085H19.4301C17.9531 50.3085 16.7559 49.1112 16.7559 47.6342V2.67432C16.7559 1.19732 17.9531 0 19.4301 0H55.2656C56.7426 0 57.9398 1.19732 57.9398 2.67432V47.6342C57.9398 49.1112 56.7426 50.3085 55.2656 50.3085Z"
            fill="white" />
    </g>
    <path
        d="M14.9275 22.3756C15.0006 21.7906 13.9038 15.4289 19.4611 13.6739C25.0184 11.9188 30.21 12.7232 31.7456 15.575C33.2812 18.4269 33.5737 21.1324 33.5737 21.1324L29.9907 21.6442C29.9907 21.6442 29.2595 16.3062 26.4443 16.0869C23.629 15.8675 20.558 16.5987 20.1192 18.2074C19.6805 19.8161 19.6439 22.8142 19.6439 22.8142L14.9275 22.3756Z"
        fill="#2C4BAF" />
    <path
        d="M32.4759 19.8163C32.4759 19.8163 24.5057 20.5475 14.2685 20.6938C4.0314 20.84 0.814055 23.1069 0.229118 28.1523C-0.355819 33.1978 -0.0633658 53.8916 4.0314 56.5241C8.12628 59.1566 39.2763 60.9115 43.2979 55.3541C47.3197 49.7967 47.1002 30.6385 45.1259 25.8855C43.1518 21.1326 37.2289 19.0852 32.4759 19.8163Z"
        fill="#2C4BAF" />
    <g opacity="0.35">
        <path
            d="M4.76343 24.4232C4.76343 24.4232 7.46899 24.8619 8.34639 29.03C9.2238 33.198 9.51636 52.3563 7.98079 53.8187C6.44523 55.2812 5.05591 54.9887 3.7397 52.3563C2.42348 49.7238 1.69229 39.4866 1.47294 32.613C1.25359 25.7393 2.71604 24.277 4.76343 24.4232Z"
            fill="white" />
    </g>
    <path
        d="M4.18164 22.3019C4.18164 22.3019 8.41972 22.5758 9.88217 24.4135C11.3446 26.2512 8.85842 44.3858 13.4651 47.9688C18.0718 51.5518 47.0282 51.698 47.7593 47.1645C48.4905 42.6308 48.5636 27.8599 45.2731 23.1069C41.9827 18.3539 38.3265 18.9389 32.6231 19.0851C26.9195 19.2314 5.27578 19.759 4.18164 22.3019Z"
        fill="#2C4BAF" />
    <g opacity="0.35">
        <path
            d="M4.18164 22.3019C4.18164 22.3019 8.41972 22.5758 9.88217 24.4135C11.3446 26.2512 8.85842 44.3858 13.4651 47.9688C18.0718 51.5518 47.0282 51.698 47.7593 47.1645C48.4905 42.6308 48.5636 27.8599 45.2731 23.1069C41.9827 18.3539 38.3265 18.9389 32.6231 19.0851C26.9195 19.2314 5.27578 19.759 4.18164 22.3019Z"
            fill="white" />
    </g>
    <path
        d="M21.0733 54.2941H18.2152C17.7727 54.2941 17.4141 53.9354 17.4141 53.4928V45.9548C17.4141 45.5123 17.7727 45.1536 18.2152 45.1536H21.0733C21.5157 45.1536 21.8745 45.5122 21.8745 45.9548V53.4928C21.8744 53.9354 21.5157 54.2941 21.0733 54.2941Z"
        fill="white" />
    <path
        d="M40.8896 54.2941H39.4575C39.015 54.2941 38.6562 53.9354 38.6562 53.4928V45.9548C38.6562 45.5123 39.0149 45.1536 39.4575 45.1536H40.8896C41.3321 45.1536 41.6909 45.5122 41.6909 45.9548V53.4928C41.6909 53.9354 41.3322 54.2941 40.8896 54.2941Z"
        fill="white" />
    <path
        d="M13.0989 24.7302C16.791 24.7302 20.4832 24.7302 24.1753 24.7302C27.8675 24.7302 31.5596 24.7302 35.2518 24.7302C37.3246 24.7302 39.3974 24.7302 41.4702 24.7302C41.7709 24.7302 41.7715 24.2627 41.4702 24.2627C37.778 24.2627 34.0859 24.2627 30.3937 24.2627C26.7016 24.2627 23.0094 24.2627 19.3173 24.2627C17.2445 24.2627 15.1717 24.2627 13.0989 24.2627C12.798 24.2627 12.7975 24.7302 13.0989 24.7302Z"
        fill="#2C4BAF" />
    <path
        d="M15.2922 27.8742C17.9733 27.8742 20.6544 27.8742 23.3356 27.8742C23.6363 27.8742 23.6368 27.4067 23.3356 27.4067C20.6544 27.4067 17.9733 27.4067 15.2922 27.4067C14.9914 27.4067 14.9909 27.8742 15.2922 27.8742Z"
        fill="#2C4BAF" />
    <path
        d="M25.3098 27.8742C26.0654 27.8742 26.821 27.8742 27.5765 27.8742C27.8773 27.8742 27.8778 27.4067 27.5765 27.4067C26.8209 27.4067 26.0654 27.4067 25.3098 27.4067C25.009 27.4067 25.0084 27.8742 25.3098 27.8742Z"
        fill="#2C4BAF" />
    <path
        d="M21.6914 19.2316C21.6914 19.2316 26.1153 21.0596 27.2852 29.8345C28.4552 38.6093 28.0895 51.8445 29.1133 52.137C30.137 52.4295 35.4018 52.795 35.4749 51.4788C35.548 50.1626 35.0362 37.2198 33.1349 29.1032C31.2338 20.9865 27.7239 18.9836 27.7239 18.9836L21.6914 19.2316Z"
        fill="#2C4BAF" />
    <g opacity="0.71">
        <path
            d="M21.6953 19.2316C21.6953 19.2316 26.1192 21.0596 27.2891 29.8345C28.4591 38.6093 28.0934 51.8445 29.1172 52.137C30.1409 52.4295 35.4057 52.795 35.4788 51.4788C35.5519 50.1626 35.0401 37.2198 33.1388 29.1032C31.2377 20.9865 27.7278 18.9836 27.7278 18.9836L21.6953 19.2316Z"
            fill="white" />
    </g>
    <path
        d="M36.23 46.9448H27.9545C27.4032 46.9448 26.9551 47.393 26.9551 47.9443V52.6727C26.9551 53.2254 27.4033 53.6722 27.9545 53.6722H36.23C36.7812 53.6722 37.2295 53.2254 37.2295 52.6727V47.9443C37.2295 47.393 36.7812 46.9448 36.23 46.9448ZM35.6686 51.4671C35.6686 52.0183 35.2218 52.4665 34.669 52.4665H29.5139C28.9626 52.4665 28.5159 52.0183 28.5159 51.4671V49.1515C28.5159 48.5988 28.9626 48.1521 29.5139 48.1521H34.669C35.2218 48.1521 35.6686 48.5988 35.6686 49.1515V51.4671Z"
        fill="white" />
    <path
        d="M3.64232 24.7653C4.05476 28.4856 4.41646 32.2115 4.72609 35.9417C5.03571 39.6719 5.29376 43.4065 5.50003 47.1439C5.61666 49.2574 5.71657 51.3719 5.80025 53.487C5.81218 53.7868 6.27965 53.7884 6.26772 53.487C6.11971 49.7469 5.92055 46.0087 5.6693 42.274C5.41804 38.5395 5.11511 34.8083 4.76061 31.0821C4.56009 28.9748 4.34292 26.8691 4.10966 24.7652C4.07692 24.4695 3.60905 24.4663 3.64232 24.7653Z"
        fill="#2C4BAF" />
    <path d="M38.2397 11.802H34.9395V16.0386H38.2397V11.802Z" fill="#2C4BAF" />
    <path d="M43.6303 9.11011H40.3301V16.0385H43.6303V9.11011Z" fill="#2C4BAF" />
    <path d="M49.0268 6.9917H45.7266V16.0385H49.0268V6.9917Z" fill="#8BC108" />
    <path d="M54.4154 3.46118H51.1152V16.0383H54.4154V3.46118Z" fill="#8BC108" />
    <path d="M23.3384 3.46118H20.0723V6.72733H23.3384V3.46118Z" fill="#2C4BAF" />
    <path d="M29.4458 3.46118H26.1797V6.72733H29.4458V3.46118Z" fill="#2C4BAF" />
    <path
        d="M58.7581 47.5924C55.9827 57.0079 48.8105 59.4797 47.0676 59.9489C46.9414 59.9832 46.8118 60 46.6822 60C46.5526 60 46.423 59.9832 46.2962 59.9489C44.5533 59.4797 37.3811 57.0079 34.6062 47.5924C32.4622 40.3192 32.2121 36.6124 32.2517 35.057C32.2658 34.5039 32.5445 33.9955 32.9943 33.705L45.862 25.3976C46.1136 25.235 46.3973 25.1543 46.6822 25.1543C46.9659 25.1543 47.2507 25.235 47.5018 25.3976L60.3695 33.705C60.8193 33.9954 61.0984 34.5039 61.1121 35.057C61.1518 36.6125 60.9016 40.3192 58.7581 47.5924Z"
        fill="#2C4BAF" />
    <path
        d="M46.6808 27.4868V42.6088H35.4767C34.5046 38.4693 34.4182 36.2696 34.4403 35.399C34.4408 35.3709 34.4489 35.3511 34.4539 35.3419L46.5718 27.5183C46.6048 27.497 46.643 27.4868 46.6808 27.4868Z"
        fill="white" />
    <g opacity="0.87">
        <path
            d="M57.8872 42.6088H46.6836V27.4868C46.7218 27.4868 46.7594 27.4975 46.7921 27.5183L58.91 35.3419C58.915 35.3511 58.9225 35.3704 58.923 35.398C58.9451 36.2692 58.8587 38.4693 57.8872 42.6088Z"
            fill="white" />
    </g>
    <g opacity="0.87">
        <path
            d="M46.6806 42.6086V57.7306C46.6615 57.7306 46.643 57.7282 46.6244 57.7229C45.8271 57.495 44.0191 56.8551 42.0891 55.3378C39.5125 53.3124 37.679 50.4961 36.639 46.9669C36.1538 45.3213 35.7734 43.8742 35.4766 42.6086H46.6806Z"
            fill="white" />
    </g>
    <g opacity="0.77">
        <path
            d="M57.8872 42.6086C57.5898 43.8742 57.2094 45.3213 56.7247 46.9669C55.6849 50.4961 53.8508 53.3124 51.2746 55.3378C49.3435 56.8556 47.5345 57.4954 46.7388 57.7229C46.7202 57.7277 46.7021 57.7306 46.6836 57.7306V42.6086H57.8872Z"
            fill="white" />
    </g>
    <path
        d="M45.9798 46.7916C45.4998 46.7916 45.0432 46.5943 44.6829 46.2286L40.9415 42.4298C40.4189 41.8992 40.3758 40.9903 40.8453 40.3996C41.3148 39.8089 42.119 39.7601 42.6416 40.2909L45.9319 43.6315L52.4747 35.1937C52.9376 34.5965 53.7413 34.5368 54.2696 35.0601C54.798 35.5834 54.8509 36.4916 54.3878 37.0888L47.4454 46.042C47.1 46.4874 46.6217 46.7522 46.0986 46.7874C46.059 46.7903 46.0192 46.7916 45.9798 46.7916Z"
        fill="#8BC108" />
</svg>