<svg width="23" height="22" viewBox="0 0 23 22" fill="none" xmlns="http://www.w3.org/2000/svg">
    <path
        d="M11.9502 5.44995V5C11.9502 4.58579 11.6144 4.25 11.2002 4.25C10.786 4.25 10.4502 4.58579 10.4502 5V5.45346C8.78015 5.53175 7.4502 6.91054 7.4502 8.59995C7.4502 10.3396 8.8605 11.75 10.6002 11.75H12.4002C13.3115 11.75 14.0502 12.4887 14.0502 13.4C14.0502 14.3112 13.3115 15.05 12.4002 15.05H9.71425C9.29228 15.05 8.9502 14.7079 8.9502 14.2859C8.9502 13.8717 8.61441 13.5359 8.2002 13.5359C7.78598 13.5359 7.4502 13.8717 7.4502 14.2859C7.4502 15.5363 8.46385 16.55 9.71425 16.55H10.4502V17C10.4502 17.4142 10.786 17.75 11.2002 17.75C11.6144 17.75 11.9502 17.4142 11.9502 17V16.55H12.4002C14.1399 16.55 15.5502 15.1396 15.5502 13.4C15.5502 11.6603 14.1399 10.25 12.4002 10.25H10.6002C9.68893 10.25 8.9502 9.51122 8.9502 8.59995C8.9502 7.68868 9.68892 6.94995 10.6002 6.94995H11.1916C11.1944 6.94998 11.1973 6.95 11.2002 6.95C11.2031 6.95 11.206 6.94998 11.2088 6.94995H12.6699C13.1141 6.94995 13.4742 7.31007 13.4742 7.75429C13.4742 8.16851 13.81 8.50429 14.2242 8.50429C14.6384 8.50429 14.9742 8.1685 14.9742 7.75429C14.9742 6.48164 13.9425 5.44995 12.6699 5.44995H11.9502Z"
        fill="white" />
    <path fill-rule="evenodd" clip-rule="evenodd"
        d="M0.75 11C0.75 5.06294 5.56294 0.25 11.5 0.25C17.4371 0.25 22.25 5.06294 22.25 11C22.25 16.9371 17.4371 21.75 11.5 21.75C5.56294 21.75 0.75 16.9371 0.75 11ZM11.5 1.75C6.39137 1.75 2.25 5.89137 2.25 11C2.25 16.1086 6.39137 20.25 11.5 20.25C16.6086 20.25 20.75 16.1086 20.75 11C20.75 5.89137 16.6086 1.75 11.5 1.75Z"
        fill="white" />
</svg>