<svg width="55" height="60" viewBox="0 0 55 60" fill="none" xmlns="http://www.w3.org/2000/svg">
    <path
        d="M41.6013 42.6191H38.2616L17.6626 1.87217C17.3341 1.22277 17.6078 0.428931 18.2678 0.121671C18.4443 0.0394926 18.6298 0 18.8138 0C19.2822 0 19.7324 0.256986 19.9605 0.69802L41.6013 42.6191Z"
        fill="#2C4BAF" />
    <path
        d="M47.5812 12.5923C45.1997 14.869 45.2514 19.6321 45.2514 19.6321C45.2514 19.6321 42.4045 18.2863 38.6239 19.3736C34.8448 20.461 32.8268 27.0354 32.8268 27.0354C32.8268 27.0354 29.9267 25.1724 25.4755 26.053C21.0227 26.932 17.2437 32.5758 17.2437 32.5758C17.2437 32.5758 14.1884 30.2459 10.0991 30.2459C6.00985 30.2459 2.69609 33.8183 2.69609 33.8183C2.69609 33.8183 1.96762 23.9726 6.89946 16.0188C7.06062 15.7543 7.23104 15.4927 7.40738 15.2326C12.8942 7.15559 19.1582 4.92919 19.1582 4.92919C29.4781 0.865602 39.0148 2.937 45.4034 5.54205C50.4097 7.58298 53.4832 9.95085 53.4832 9.95085C53.4832 9.95085 49.9628 10.3141 47.5812 12.5923Z"
        fill="#5C94EB" />
    <path
        d="M37.6005 41.2181L39.3954 39.9563C39.8518 39.6355 40.4819 39.744 40.8032 40.2001C42.0066 41.9082 44.659 45.9332 45.0714 48.7687C45.6077 52.4559 42.725 56.2774 37.9987 55.5734C33.2724 54.8695 30.289 50.3442 30.1885 48.2324C30.0879 46.1206 31.5628 45.3161 32.4008 46.2547C33.2388 47.1933 35.8534 52.1432 38.6691 51.3387C41.4848 50.5342 40.3116 48.4335 39.239 46.1542C38.5714 44.7356 37.7999 43.3819 37.3125 42.5618C37.0422 42.1072 37.1679 41.5222 37.6005 41.2181Z"
        fill="#F9B44A" />
    <g opacity="0.51">
        <path
            d="M47.5812 12.5923C45.1997 14.8689 45.2514 19.6321 45.2514 19.6321C45.2514 19.6321 42.4045 18.2862 38.6239 19.3736C34.8448 20.4609 32.8268 27.0354 32.8268 27.0354C32.8268 27.0354 29.9267 25.1723 25.4755 26.053C21.0227 26.932 17.2437 32.5757 17.2437 32.5757C17.2437 32.5757 14.1884 30.2458 10.0991 30.2458C6.00985 30.2458 2.69609 33.8182 2.69609 33.8182C2.69609 33.8182 1.96762 23.9726 6.89946 16.0188C10.6634 19.2611 16.5426 21.7127 25.2945 19.322C35.7816 16.4583 41.9924 10.3172 45.4034 5.54199C50.4097 7.58291 53.4832 9.95079 53.4832 9.95079C53.4832 9.95079 49.9628 10.314 47.5812 12.5923Z"
            fill="#2C4BAF" />
    </g>
    <path
        d="M20.3459 4.74808C20.2517 4.76172 20.3279 4.75039 20.3883 4.74367C20.4878 4.73256 20.5876 4.72376 20.6875 4.71617C21.0636 4.68746 21.4412 4.67668 21.8184 4.67723C23.1625 4.67921 24.4683 4.82299 25.7702 5.07811C27.7179 5.45985 29.6172 6.089 31.4123 6.93454C33.7555 8.03828 35.9217 9.4978 37.8602 11.2131C40.3717 13.4355 42.5001 16.0624 44.2901 18.8924C44.5462 19.2974 44.7953 19.7066 45.0386 20.1194C45.1991 20.3917 45.6241 20.1447 45.4631 19.8713C43.6808 16.847 41.5485 14.0091 38.9974 11.5891C37.0381 9.73069 34.834 8.12035 32.4286 6.88768C30.5598 5.93014 28.5734 5.19505 26.5238 4.73498C25.1041 4.41639 23.6501 4.22244 22.1945 4.1901C21.5655 4.17613 20.928 4.18295 20.3027 4.26227C20.2734 4.26601 20.2442 4.26986 20.215 4.27404C19.9032 4.31903 20.0359 4.79285 20.3459 4.74808Z"
        fill="#2C4BAF" />
    <path
        d="M33.0583 26.9709C32.8218 26.3313 32.5713 25.6967 32.3187 25.0634C31.6863 23.4768 31.0239 21.902 30.3321 20.3405C29.4424 18.332 28.5035 16.3443 27.4888 14.3956C26.4701 12.4393 25.3795 10.5113 24.1246 8.69553C23.1154 7.23513 21.9907 5.7699 20.5557 4.70125C20.4134 4.5952 20.2671 4.49454 20.1172 4.39971C20.0293 4.34416 19.8901 4.35989 19.8193 4.43811C19.4316 4.86638 19.0862 5.33843 18.7521 5.80851C17.9112 6.99146 17.1767 8.25119 16.5452 9.55757C15.6509 11.4076 14.9602 13.3584 14.5195 15.3663C13.9827 17.8117 13.8153 20.3361 14.0468 22.8297C14.3282 25.8604 15.1839 28.8064 16.4666 31.5621C16.6451 31.9453 16.8321 32.3243 17.0257 32.7C17.1707 32.9813 17.5951 32.7329 17.4503 32.4518C16.0422 29.7209 15.0369 26.7702 14.6375 23.7173C14.3121 21.2298 14.3809 18.6932 14.8446 16.2278C15.2262 14.1989 15.8613 12.217 16.7187 10.3394C17.3465 8.96472 18.0882 7.63942 18.9423 6.39234C19.0891 6.17804 19.2392 5.96616 19.3932 5.75702C19.4598 5.6666 19.5271 5.57672 19.5951 5.48739C19.6094 5.46869 19.6237 5.44998 19.638 5.43139C19.6804 5.37606 19.6391 5.42963 19.6564 5.40752C19.6839 5.3721 19.7115 5.33678 19.7392 5.30158C19.8679 5.13821 20.037 4.98178 20.1482 4.80642C20.153 4.79894 20.1608 4.79223 20.1668 4.78552C20.0675 4.79839 19.9682 4.81115 19.8689 4.82391C21.2717 5.71126 22.3697 7.08838 23.3314 8.42116C24.598 10.1767 25.6896 12.0571 26.7071 13.9657C27.7492 15.9204 28.709 17.9185 29.6174 19.9385C30.3369 21.5383 31.0234 23.1528 31.6786 24.78C31.9847 25.5402 32.276 26.3057 32.5723 27.0698C32.5763 27.0803 32.5802 27.0909 32.584 27.1015C32.6929 27.3957 33.1683 27.2686 33.0583 26.9709Z"
        fill="#2C4BAF" />
    <path
        d="M2.94656 35.7083C3.72928 35.7083 4.36379 35.0738 4.36379 34.291C4.36379 33.5083 3.72928 32.8738 2.94656 32.8738C2.16383 32.8738 1.5293 33.5083 1.5293 34.291C1.5293 35.0738 2.16383 35.7083 2.94656 35.7083Z"
        fill="#F9B44A" />
    <path
        d="M17.429 34.2908C18.2117 34.2908 18.8462 33.6563 18.8462 32.8736C18.8462 32.0908 18.2117 31.4563 17.429 31.4563C16.6463 31.4563 16.0117 32.0908 16.0117 32.8736C16.0117 33.6563 16.6463 34.2908 17.429 34.2908Z"
        fill="#F9B44A" />
    <path
        d="M33.0793 28.2596C33.8621 28.2596 34.4966 27.6251 34.4966 26.8423C34.4966 26.0596 33.8621 25.425 33.0793 25.425C32.2966 25.425 31.6621 26.0596 31.6621 26.8423C31.6621 27.6251 32.2966 28.2596 33.0793 28.2596Z"
        fill="#F9B44A" />
    <path
        d="M45.6946 21.93C46.4773 21.93 47.1118 21.2955 47.1118 20.5127C47.1118 19.73 46.4773 19.0955 45.6946 19.0955C44.9119 19.0955 44.2773 19.73 44.2773 20.5127C44.2773 21.2955 44.9119 21.93 45.6946 21.93Z"
        fill="#F9B44A" />
    <path
        d="M53.4817 12.0289C54.2644 12.0289 54.899 11.3943 54.899 10.6116C54.899 9.82887 54.2644 9.19434 53.4817 9.19434C52.699 9.19434 52.0645 9.82887 52.0645 10.6116C52.0645 11.3943 52.699 12.0289 53.4817 12.0289Z"
        fill="#F9B44A" />
    <path
        d="M27.4805 47.622C23.7248 57.0151 16.3106 59.4796 14.5218 59.9488C14.3926 59.9825 14.2621 60 14.132 60C14.0034 60 13.8752 59.9825 13.7531 59.9488H12.2957L12.3421 59.4518C9.68292 58.3277 4.8368 55.2741 3.3871 47.622C2.00978 40.3659 2.14993 36.6678 2.35245 35.1168C2.42363 34.5643 2.75617 34.0571 3.23538 33.7677L15.4511 26.3815L15.5514 25.316H17.3055C17.4646 25.2634 17.6264 25.2385 17.7858 25.2385C17.9451 25.2385 18.1019 25.2634 18.2498 25.316C18.3656 25.3555 18.4768 25.4095 18.5789 25.4811L30.5433 33.7677C30.9616 34.0571 31.1875 34.5644 31.1426 35.1168C31.0188 36.6678 30.3817 40.3659 27.4805 47.622Z"
        fill="#2C4BAF" />
    <path
        d="M25.2557 47.6218C21.4997 57.0146 14.0858 59.4804 12.2979 59.9486C12.1683 59.9827 12.0373 59.9995 11.908 59.9995C11.7788 59.9995 11.6513 59.9827 11.5284 59.9486C9.83885 59.4805 2.94323 57.0146 1.16218 47.6218C-0.214038 40.3662 -0.0749947 36.6684 0.127753 35.1167C0.199919 34.565 0.531155 34.0578 1.01025 33.7681L14.7179 25.4807C14.986 25.3186 15.2775 25.238 15.5615 25.238C15.8446 25.238 16.1203 25.3186 16.3537 25.4807L28.3193 33.7681C28.7376 34.0577 28.9627 34.565 28.9183 35.1167C28.7948 36.6685 28.1565 40.3663 25.2557 47.6218Z"
        fill="#5C94EB" />
    <path
        d="M15.3157 27.5645L13.7301 42.6499H2.55303C2.01729 38.5204 2.16172 36.3261 2.27514 35.4575C2.27855 35.4296 2.28867 35.4098 2.29461 35.4005L15.2036 27.5959C15.2389 27.5746 15.278 27.5645 15.3157 27.5645Z"
        fill="white" />
    <g opacity="0.87">
        <path
            d="M24.907 42.6499H13.7305L15.316 27.5645C15.3541 27.5645 15.3906 27.575 15.421 27.5958L26.6893 35.4004C26.6933 35.4096 26.6988 35.4289 26.6964 35.4564C26.6271 36.3256 26.3103 38.5204 24.907 42.6499Z"
            fill="white" />
    </g>
    <g opacity="0.87">
        <path
            d="M13.7317 42.6501L12.1462 57.7356C12.1272 57.7356 12.1089 57.7332 12.0908 57.7279C11.3195 57.5005 9.58284 56.8622 7.81653 55.3486C5.45848 53.328 3.92463 50.5186 3.25731 46.9979C2.94577 45.3563 2.71805 43.9127 2.55469 42.6501H13.7317Z"
            fill="white" />
    </g>
    <g opacity="0.77">
        <path
            d="M24.9066 42.6501C24.4773 43.9127 23.9461 45.3563 23.29 46.9979C21.8827 50.5186 19.7576 53.328 16.9755 55.3486C14.8899 56.8627 13.0182 57.501 12.2005 57.7279C12.1815 57.7328 12.1631 57.7356 12.1445 57.7356L13.7301 42.6501H24.9066Z"
            fill="white" />
    </g>
    <path
        d="M12.5936 46.8233C12.1147 46.8233 11.6798 46.6265 11.3588 46.2617L8.02476 42.4722C7.55909 41.9429 7.61135 41.0361 8.1417 40.4469C8.67206 39.8576 9.47942 39.809 9.9451 40.3384L12.8772 43.671L20.2888 35.2536C20.8134 34.6579 21.6213 34.5982 22.0935 35.1202C22.5657 35.6422 22.5233 36.5484 21.9988 37.1441L14.1343 46.0757C13.743 46.52 13.2382 46.7842 12.7127 46.8194C12.6726 46.8219 12.6328 46.8233 12.5936 46.8233Z"
        fill="#8BC108" />
</svg>