<svg width="107" height="36" viewBox="0 0 107 36" fill="none" xmlns="http://www.w3.org/2000/svg">
    <path
        d="M68.9054 23.4693L71.7366 22.3011C71.5127 21.8628 71.0492 21.5998 70.5578 21.6326C69.6026 21.6743 68.862 22.4826 68.904 23.438C68.9044 23.4485 68.905 23.4589 68.9054 23.4693ZM72.226 24.6061L73.3099 25.3217C72.722 26.1991 71.7348 26.7244 70.6788 26.7217C68.9906 26.7459 67.6022 25.3965 67.578 23.7081C67.5774 23.6601 67.5778 23.6121 67.5795 23.5641C67.4409 21.9657 68.6243 20.5576 70.2226 20.4192C71.5697 20.3026 72.8193 21.1307 73.2365 22.4171L73.3786 22.7802L69.1688 24.5222C69.4372 25.1254 70.0457 25.5048 70.7053 25.4799C71.3289 25.4701 71.9032 25.1398 72.226 24.6061ZM66.7531 17.2593V26.5268H65.3639V17.2593H66.7531ZM63.0907 23.5797C63.1704 22.5976 62.4389 21.7369 61.4569 21.6572C61.4383 21.6558 61.4197 21.6545 61.4014 21.6537C60.3905 21.6873 59.5983 22.534 59.6317 23.5447C59.6321 23.5566 59.6326 23.5681 59.6332 23.5797C59.5864 24.5815 60.3605 25.4313 61.3619 25.4781C61.3751 25.4787 61.388 25.4791 61.4014 25.4795C62.3743 25.4419 63.1324 24.6226 63.0946 23.6497C63.0936 23.6263 63.0925 23.6029 63.0907 23.5797ZM64.3167 26.269C64.3167 28.5949 62.9327 29.5529 61.3014 29.5529C60.0787 29.5631 58.9698 28.8364 58.4913 27.7109L59.6858 27.1846C59.9391 27.8413 60.561 28.2829 61.2645 28.3055C62.3169 28.3055 62.959 27.6581 62.959 26.4531V26.0004H62.9064C62.4888 26.4664 61.8903 26.7294 61.2647 26.7215C59.5207 26.7215 58.1073 25.3078 58.1073 23.5639C58.1073 21.82 59.5209 20.4063 61.2647 20.4063C61.8943 20.3925 62.4997 20.6492 62.9275 21.1115H62.9801V20.5851H64.3167V26.269ZM56.1233 23.5641C56.2154 22.5949 55.5042 21.7344 54.5348 21.6424C53.5657 21.5504 52.7053 22.2614 52.6133 23.2308C52.6026 23.3416 52.6026 23.4533 52.6133 23.5641C52.5212 24.5333 53.2322 25.3937 54.2016 25.486C55.1707 25.578 56.0311 24.8668 56.1233 23.8976C56.1338 23.7868 56.1338 23.6749 56.1233 23.5641ZM57.486 23.5641C57.486 25.2875 56.0889 26.6847 54.3656 26.6847C52.6423 26.6847 51.2451 25.2875 51.2451 23.5641C51.2451 21.8407 52.6423 20.4434 54.3656 20.4434C56.0889 20.4434 57.486 21.8407 57.486 23.5641ZM49.1191 23.5641C49.2111 22.5949 48.5001 21.7344 47.5306 21.6424C46.5614 21.5504 45.701 22.2614 45.609 23.2308C45.5984 23.3416 45.5984 23.4533 45.609 23.5641C45.517 24.5333 46.228 25.3937 47.1973 25.486C48.1666 25.578 49.0268 24.8668 49.1191 23.8976C49.1295 23.7868 49.1295 23.6749 49.1191 23.5641ZM50.4872 23.5641C50.5582 25.289 49.2171 26.7448 47.4924 26.8156C45.7674 26.8866 44.3116 25.5455 44.2409 23.8206C44.2373 23.735 44.2373 23.6494 44.2409 23.5641C44.1701 21.839 45.5109 20.3833 47.2359 20.3126C48.9607 20.2416 50.4165 21.5827 50.4872 23.3076C50.4907 23.3932 50.4907 23.4787 50.4872 23.5641ZM38.8944 26.7217C36.1694 26.7307 33.9436 24.5471 33.9004 21.8221C33.9436 19.0973 36.1694 16.9135 38.8944 16.9225C40.1548 16.9014 41.3706 17.3889 42.2676 18.2749L41.3151 19.2169C40.669 18.5839 39.7988 18.2319 38.8944 18.2381C36.9269 18.2381 35.3317 19.8334 35.3317 21.801C35.3317 23.7686 36.9269 25.3639 38.8944 25.3639C39.8243 25.4021 40.7268 25.0444 41.3781 24.3797C41.8064 23.9178 42.0645 23.3239 42.1096 22.6955H38.8944V21.3957H43.4199C43.4692 21.6718 43.4923 21.9519 43.4884 22.2324C43.5338 23.3973 43.1156 24.5329 42.3256 25.39C41.4232 26.3016 40.1753 26.786 38.8944 26.7217ZM88.7915 25.4691C88.3389 25.4691 87.7076 25.2374 87.7076 24.6798C87.7076 23.964 88.4917 23.6903 89.1757 23.6903C89.6169 23.6787 90.053 23.7857 90.4387 24.0009C90.3337 24.833 89.6302 25.4599 88.7915 25.4691ZM88.9547 20.3854C87.9228 20.3261 86.9537 20.8842 86.4866 21.8064L87.7181 22.3326C87.9675 21.8766 88.4635 21.6119 88.981 21.6589C89.7098 21.5858 90.3598 22.1174 90.4328 22.8462C90.4331 22.8487 90.4335 22.851 90.4335 22.8535V22.9482C89.9923 22.7095 89.4986 22.5849 88.9969 22.5851C87.6759 22.5851 86.3289 23.3114 86.3289 24.6902C86.3289 25.9324 87.4078 26.7321 88.6286 26.7321C89.3364 26.7772 90.0115 26.4293 90.3861 25.827H90.4387V26.5426H91.7858V22.9747C91.7858 21.3275 90.5545 20.4117 88.9652 20.4117L88.9547 20.3854ZM78.4406 21.7169V18.5593H80.4087C81.2806 18.5593 81.9874 19.2662 81.9874 20.1381C81.9874 21.01 81.2806 21.7169 80.4087 21.7169H78.4406ZM80.3666 17.2491H77.0514V26.5217H78.4406V23.0117H80.372C81.9956 23.0672 83.357 21.796 83.4125 20.1723C83.4129 20.1592 83.4134 20.146 83.4136 20.1331C83.3798 18.5057 82.0331 17.2143 80.4058 17.2481C80.3926 17.2483 80.3797 17.2487 80.3666 17.2491ZM85.5553 17.2491H84.1765V26.5217H85.5553V17.2491ZM96.7113 20.5856L95.1326 24.6063H95.0853L93.4381 20.5856H91.9487L94.4166 26.206L93.0065 29.3321H94.4536L98.2583 20.5856H96.7113Z"
        fill="#2E2C2F" />
    <path
        d="M18.0421 17.7576L9.07949 27.1481C9.44406 28.4404 10.7872 29.1923 12.0793 28.8277C12.2751 28.7726 12.4631 28.6929 12.6392 28.5907L22.7237 22.8469L18.0421 17.7576Z"
        fill="#EA4335" />
    <path
        d="M27.1041 16.1616L22.743 13.6637L17.8344 17.9716L22.7631 22.8339L27.0905 20.3627C28.2506 19.7554 28.6987 18.3225 28.0912 17.1625C27.8673 16.7349 27.5184 16.3858 27.0905 16.1618L27.1041 16.1616Z"
        fill="#FBBC04" />
    <path
        d="M9.08016 9.32921C9.02591 9.52935 8.99899 9.73617 9.00003 9.94383V26.5342C9.00066 26.7417 9.0269 26.9478 9.07949 27.1481L18.3499 17.9985L9.08016 9.32921Z"
        fill="#4285F4" />
    <path
        d="M18.1088 18.2393L22.743 13.6637L12.6726 7.89358C12.2936 7.67173 11.8627 7.55403 11.4236 7.55298C10.3339 7.55069 9.37582 8.27424 9.07949 9.32295L18.1088 18.2393Z"
        fill="#34A853" />
    <path
        d="M34.8086 14.6677H34.1562V12.9216H34.5742C34.7122 12.8487 34.8229 12.7458 34.9062 12.613C34.9896 12.4776 35.0521 12.3136 35.0938 12.1208C35.138 11.9281 35.1667 11.7094 35.1797 11.4646L35.3945 7.91772H38.9609V12.9216H39.6641V14.6677H39.0117V13.5544H34.8086V14.6677ZM35.8398 11.4802C35.8268 11.6912 35.8073 11.8813 35.7812 12.0505C35.7552 12.2198 35.7161 12.3722 35.6641 12.5076C35.612 12.6404 35.5391 12.7628 35.4453 12.8748V12.9216H38.2578V8.55054H36.0234L35.8398 11.4802Z"
        fill="#2E2C2F" />
    <path
        d="M42.3398 13.6287C41.9414 13.6287 41.5964 13.5414 41.3047 13.3669C41.0156 13.1899 40.7917 12.9386 40.6328 12.613C40.4766 12.2875 40.3984 11.9008 40.3984 11.4529V11.4451C40.3984 10.9945 40.4766 10.6065 40.6328 10.281C40.7917 9.95549 41.0156 9.70549 41.3047 9.53101C41.5964 9.35653 41.9414 9.26929 42.3398 9.26929C42.7409 9.26929 43.0859 9.35653 43.375 9.53101C43.6641 9.70549 43.8867 9.95549 44.043 10.281C44.2018 10.6065 44.2812 10.9945 44.2812 11.4451V11.4529C44.2812 11.9008 44.2018 12.2875 44.043 12.613C43.8867 12.9386 43.6641 13.1899 43.375 13.3669C43.0859 13.5414 42.7409 13.6287 42.3398 13.6287ZM42.3398 13.0271C42.6055 13.0271 42.8307 12.9646 43.0156 12.8396C43.2005 12.7146 43.3411 12.5349 43.4375 12.3005C43.5365 12.0662 43.5859 11.7836 43.5859 11.4529V11.4451C43.5859 11.1117 43.5365 10.8279 43.4375 10.5935C43.3411 10.3591 43.2005 10.1807 43.0156 10.0583C42.8307 9.93335 42.6055 9.87085 42.3398 9.87085C42.0742 9.87085 41.849 9.93335 41.6641 10.0583C41.4792 10.1807 41.3372 10.3591 41.2383 10.5935C41.1419 10.8279 41.0938 11.1117 41.0938 11.4451V11.4529C41.0938 11.7836 41.1419 12.0662 41.2383 12.3005C41.3372 12.5349 41.4792 12.7146 41.6641 12.8396C41.849 12.9646 42.0742 13.0271 42.3398 13.0271Z"
        fill="#2E2C2F" />
    <path
        d="M47.1367 13.6287C46.7435 13.6287 46.4023 13.5388 46.1133 13.3591C45.8242 13.1794 45.6003 12.9255 45.4414 12.5974C45.2826 12.2693 45.2031 11.8826 45.2031 11.4373V11.4294C45.2031 10.9919 45.2812 10.6117 45.4375 10.2888C45.5964 9.9659 45.8203 9.7159 46.1094 9.53882C46.3984 9.35913 46.7396 9.26929 47.1328 9.26929C47.474 9.26929 47.7682 9.32918 48.0156 9.44897C48.263 9.56877 48.4609 9.73022 48.6094 9.93335C48.7578 10.1339 48.8529 10.3591 48.8945 10.6091L48.8984 10.6326H48.2227L48.2188 10.6208C48.1667 10.4125 48.0482 10.2354 47.8633 10.0896C47.6784 9.94377 47.4349 9.87085 47.1328 9.87085C46.8802 9.87085 46.6615 9.93465 46.4766 10.0623C46.2917 10.1899 46.1484 10.3708 46.0469 10.6052C45.9479 10.837 45.8984 11.1117 45.8984 11.4294V11.4373C45.8984 11.7602 45.9492 12.0414 46.0508 12.281C46.1523 12.518 46.2956 12.7016 46.4805 12.8318C46.6654 12.962 46.8828 13.0271 47.1328 13.0271C47.4167 13.0271 47.6484 12.9659 47.8281 12.8435C48.0078 12.7211 48.1367 12.5427 48.2148 12.3083L48.2227 12.2849L48.8945 12.281L48.8867 12.324C48.8294 12.5766 48.7279 12.8018 48.582 12.9998C48.4362 13.1951 48.2435 13.3487 48.0039 13.4607C47.7643 13.5727 47.4753 13.6287 47.1367 13.6287Z"
        fill="#2E2C2F" />
    <path d="M52.8203 9.34351V9.90601H51.457V13.5544H50.7773V9.90601H49.4141V9.34351H52.8203Z"
        fill="#2E2C2F" />
    <path
        d="M54.1641 15.031C54.1198 15.031 54.0703 15.0284 54.0156 15.0232C53.9609 15.0206 53.9102 15.0154 53.8633 15.0076V14.449C53.9049 14.4568 53.9505 14.462 54 14.4646C54.0495 14.4672 54.0977 14.4685 54.1445 14.4685C54.3372 14.4685 54.4948 14.419 54.6172 14.3201C54.7422 14.2211 54.8424 14.0505 54.918 13.8083L54.9961 13.5583L53.4375 9.34351H54.1641L55.4609 13.2341L55.1914 12.8083H55.5117L55.2422 13.2341L56.5352 9.34351H57.25L55.6055 13.8123C55.4909 14.1274 55.3698 14.3735 55.2422 14.5505C55.1146 14.7276 54.9648 14.8513 54.793 14.9216C54.6237 14.9945 54.4141 15.031 54.1641 15.031Z"
        fill="#2E2C2F" />
    <path d="M58.2227 13.5544V9.34351H61.6289V13.5544H60.9492V9.90601H58.9023V13.5544H58.2227Z"
        fill="#2E2C2F" />
    <path
        d="M65.7305 13.5544V11.6482H63.6445V13.5544H62.9648V9.34351H63.6445V11.0857H65.7305V9.34351H66.4102V13.5544H65.7305Z"
        fill="#2E2C2F" />
    <path
        d="M69.4805 13.6287C69.082 13.6287 68.737 13.5414 68.4453 13.3669C68.1562 13.1899 67.9323 12.9386 67.7734 12.613C67.6172 12.2875 67.5391 11.9008 67.5391 11.4529V11.4451C67.5391 10.9945 67.6172 10.6065 67.7734 10.281C67.9323 9.95549 68.1562 9.70549 68.4453 9.53101C68.737 9.35653 69.082 9.26929 69.4805 9.26929C69.8815 9.26929 70.2266 9.35653 70.5156 9.53101C70.8047 9.70549 71.0273 9.95549 71.1836 10.281C71.3424 10.6065 71.4219 10.9945 71.4219 11.4451V11.4529C71.4219 11.9008 71.3424 12.2875 71.1836 12.613C71.0273 12.9386 70.8047 13.1899 70.5156 13.3669C70.2266 13.5414 69.8815 13.6287 69.4805 13.6287ZM69.4805 13.0271C69.7461 13.0271 69.9714 12.9646 70.1562 12.8396C70.3411 12.7146 70.4818 12.5349 70.5781 12.3005C70.6771 12.0662 70.7266 11.7836 70.7266 11.4529V11.4451C70.7266 11.1117 70.6771 10.8279 70.5781 10.5935C70.4818 10.3591 70.3411 10.1807 70.1562 10.0583C69.9714 9.93335 69.7461 9.87085 69.4805 9.87085C69.2148 9.87085 68.9896 9.93335 68.8047 10.0583C68.6198 10.1807 68.4779 10.3591 68.3789 10.5935C68.2826 10.8279 68.2344 11.1117 68.2344 11.4451V11.4529C68.2344 11.7836 68.2826 12.0662 68.3789 12.3005C68.4779 12.5349 68.6198 12.7146 68.8047 12.8396C68.9896 12.9646 69.2148 13.0271 69.4805 13.0271Z"
        fill="#2E2C2F" />
    <path
        d="M74.8008 13.5544V9.34351H76.5859C76.9844 9.34351 77.2943 9.44377 77.5156 9.64429C77.737 9.8422 77.8477 10.1065 77.8477 10.4373V10.4451C77.8477 10.6534 77.7826 10.8448 77.6523 11.0193C77.5221 11.1912 77.3581 11.2979 77.1602 11.3396V11.4021C77.3398 11.4255 77.4948 11.4815 77.625 11.5701C77.7552 11.656 77.8555 11.7654 77.9258 11.8982C77.9987 12.0284 78.0352 12.1755 78.0352 12.3396V12.3474C78.0352 12.5896 77.9779 12.8018 77.8633 12.9841C77.7487 13.1638 77.5833 13.3044 77.3672 13.406C77.1536 13.505 76.8958 13.5544 76.5938 13.5544H74.8008ZM75.4805 12.9919H76.5664C76.8242 12.9919 77.0182 12.936 77.1484 12.824C77.2786 12.7094 77.3438 12.5466 77.3438 12.3357V12.3279C77.3438 12.1039 77.2682 11.9412 77.1172 11.8396C76.9661 11.738 76.7396 11.6873 76.4375 11.6873H75.4805V12.9919ZM75.4805 11.1248H76.3789C76.6523 11.1248 76.8529 11.0727 76.9805 10.9685C77.1081 10.8643 77.1719 10.7133 77.1719 10.5154V10.5076C77.1719 10.3279 77.1172 10.1833 77.0078 10.074C76.8984 9.962 76.7253 9.90601 76.4883 9.90601H75.4805V11.1248Z"
        fill="#2E2C2F" />
</svg>