<svg width="65" height="60" viewBox="0 0 65 60" fill="none" xmlns="http://www.w3.org/2000/svg">
    <path
        d="M10.2577 5.62109C9.63669 5.72319 9.2044 6.2936 9.27516 6.91894C9.7698 11.2917 11.8221 27.6135 16.1142 39.8167C20.1202 51.2059 23.8113 57.4341 25.1201 59.4595C25.4074 59.9042 25.9545 60.1033 26.4605 59.9475L62.606 48.812C63.4317 48.5575 63.713 47.5335 63.1351 46.8911C60.8527 44.3532 56.0496 38.2571 52.5795 28.6421C48.6372 17.7187 46.3464 4.86844 45.7072 0.988777C45.6012 0.344986 44.9937 -0.090035 44.3499 0.0158803L10.2577 5.62109Z"
        fill="white" />
    <g opacity="0.07">
        <path
            d="M10.2596 5.62109C9.63864 5.72319 9.20635 6.2936 9.27711 6.91894C9.77175 11.2917 11.824 27.6135 16.1162 39.8167C20.1221 51.2059 23.8132 57.4341 25.122 59.4595C25.4093 59.9042 25.9565 60.1033 26.4625 59.9475L62.6079 48.812C63.4336 48.5575 63.7149 47.5335 63.1371 46.8911C60.8546 44.3532 56.0516 38.2571 52.5814 28.6421C48.6391 17.7187 46.3484 4.86844 45.7092 0.988777C45.6032 0.344986 44.9956 -0.090035 44.3518 0.0158803L10.2596 5.62109Z"
            fill="#2C4BAF" />
    </g>
    <g opacity="0.38">
        <path d="M17.1778 9.89818L16.2305 10.0657L16.8717 13.6921L17.819 13.5246L17.1778 9.89818Z"
            fill="#2C4BAF" />
        <path
            d="M19.6137 9.47712L19.9499 11.3791L18.4547 9.68207L17.5625 9.83963L18.2036 13.4662L19.151 13.2987L18.8156 11.4012L20.3076 13.0944L21.1997 12.9365L20.5587 9.31006L19.6137 9.47712Z"
            fill="#2C4BAF" />
        <path
            d="M23.6345 10.6869C23.4028 10.5295 23.0759 10.4277 22.6348 10.3758C22.422 10.3506 22.2578 10.3128 22.1468 10.2635C22.0368 10.2149 22.0141 10.1535 22.0066 10.1117C21.993 10.034 22.0118 9.97052 22.0657 9.91189C22.1276 9.84484 22.2304 9.79833 22.3715 9.77344C22.4191 9.76503 22.4641 9.76076 22.5052 9.76076C22.5894 9.76076 22.6582 9.7778 22.7155 9.81285C22.7959 9.86177 22.845 9.94257 22.8658 10.0602L22.8879 10.1863L23.8355 10.0188L23.8131 9.89277C23.7733 9.66675 23.6773 9.47162 23.5279 9.31264C23.3793 9.15475 23.1892 9.04447 22.9631 8.98452C22.8387 8.95166 22.7066 8.93506 22.5705 8.93506C22.4645 8.93506 22.3535 8.94521 22.2407 8.9652C21.9852 9.01029 21.7587 9.09558 21.5674 9.21842C21.3697 9.34519 21.2253 9.50177 21.1376 9.68379C21.0486 9.86887 21.0223 10.0684 21.0591 10.2766C21.1296 10.6757 21.4015 10.9563 21.8675 11.111C22.0285 11.1643 22.2423 11.2096 22.5033 11.2458C22.8015 11.2872 22.9393 11.3345 23.0024 11.3669C23.0714 11.4022 23.111 11.4615 23.1272 11.553C23.1413 11.6336 23.1243 11.6939 23.072 11.748C23.0106 11.8115 22.9097 11.856 22.7725 11.8803C22.7025 11.8926 22.6376 11.8989 22.5791 11.8989C22.3288 11.8989 22.1979 11.7893 22.1545 11.5435L22.1322 11.4174L21.1826 11.5854L21.205 11.7114C21.2479 11.954 21.35 12.1598 21.5086 12.3233C21.6661 12.4856 21.874 12.5997 22.1264 12.6624C22.2636 12.6968 22.4075 12.7142 22.5543 12.7142C22.6709 12.7142 22.7918 12.7032 22.9141 12.6815C23.3141 12.611 23.6233 12.4611 23.8336 12.2361C24.0533 12.001 24.1349 11.7132 24.0761 11.3808C24.0236 11.0844 23.8751 10.8509 23.6345 10.6869Z"
            fill="#2C4BAF" />
        <path
            d="M26.6395 8.23608L25.6897 8.4038L26.1087 10.7737C26.1637 11.1151 26.0457 11.2926 25.726 11.3492C25.6801 11.3572 25.6362 11.3613 25.5957 11.3613C25.5 11.3613 25.4207 11.3395 25.3534 11.2947C25.2602 11.2324 25.1965 11.1075 25.1639 10.9234L24.7481 8.5701L23.8008 8.7376L24.2207 11.1134C24.2965 11.512 24.4864 11.8087 24.7854 11.9952C24.9949 12.1259 25.2409 12.1923 25.5165 12.1923C25.6282 12.1923 25.7468 12.1813 25.8692 12.1596C26.3003 12.0835 26.6266 11.9023 26.8391 11.6212C27.0534 11.3373 27.1259 10.9885 27.0545 10.5846L26.6395 8.23608Z"
            fill="#2C4BAF" />
        <path
            d="M30.9938 7.46584L30.3481 10.9858L29.5296 9.93509C29.6791 9.81214 29.7881 9.67062 29.8545 9.51338C29.9364 9.31979 29.9551 9.093 29.9104 8.83902C29.8464 8.47661 29.6711 8.21238 29.3896 8.05383C29.2065 7.95065 28.9857 7.89834 28.7333 7.89834C28.6096 7.89834 28.4756 7.911 28.3351 7.93579L26.9551 8.17962L27.5962 11.8062L28.5436 11.6387L28.3252 10.4033L28.6761 10.3412L29.5271 11.4649L30.285 11.3309L31.2965 11.1521L31.4052 10.4157L32.4432 10.2323L32.8002 10.8862L33.8119 10.7077L31.8133 7.32104L30.9938 7.46584ZM28.181 9.58819L28.0465 8.82755L28.479 8.75102C28.5284 8.74228 28.5748 8.7378 28.6168 8.7378C28.7033 8.7378 28.7707 8.75582 28.8228 8.79262C28.9014 8.8482 28.9505 8.93632 28.9726 9.062C28.9937 9.18243 28.9759 9.27841 28.9177 9.35517C28.8582 9.4339 28.7565 9.48642 28.6154 9.51132L28.181 9.58819ZM31.5325 9.55281L31.6475 8.77012L32.0263 9.46545L31.5325 9.55281Z"
            fill="#2C4BAF" />
        <path
            d="M35.2309 6.7175L35.5671 8.61938L34.0719 6.92244L33.1797 7.08L33.8207 10.7066L34.7681 10.5391L34.4327 8.64155L35.9248 10.3346L36.8169 10.177L36.1758 6.55054L35.2309 6.7175Z"
            fill="#2C4BAF" />
        <path
            d="M39.8387 8.22378L38.8912 8.39127L38.9031 8.50942C38.9206 8.68347 38.895 8.81723 38.8269 8.90698C38.7588 8.99685 38.6327 9.05842 38.4518 9.09042C38.407 9.09828 38.3638 9.10232 38.3239 9.10232C38.1908 9.10232 38.0849 9.05854 37.9999 8.96824C37.8778 8.83885 37.7855 8.6018 37.7257 8.26363L37.6809 8.00976C37.627 7.68753 37.6374 7.44196 37.7115 7.28014C37.7792 7.13295 37.9042 7.04506 38.0938 7.01143C38.1545 7.00084 38.2114 6.99526 38.2626 6.99526C38.3617 6.99526 38.4429 7.01546 38.5037 7.05543C38.5973 7.1169 38.6686 7.24029 38.7156 7.42231L38.7451 7.53696L39.6961 7.3688L39.6581 7.23286C39.5459 6.83191 39.3357 6.53578 39.0334 6.35267C38.8197 6.22295 38.572 6.15723 38.2975 6.15723C38.1866 6.15723 38.0691 6.16792 37.9485 6.18932C37.6444 6.24304 37.3858 6.36414 37.18 6.54901C36.9728 6.73474 36.8288 6.97627 36.7518 7.26737C36.6768 7.5517 36.6695 7.8689 36.7298 8.21001L36.7661 8.41628C36.861 8.95317 37.0724 9.36034 37.3945 9.62655C37.6457 9.83401 37.9433 9.93927 38.2789 9.93927C38.3806 9.93927 38.4874 9.92956 38.5964 9.91012C39.0211 9.83511 39.3499 9.65789 39.5741 9.38316C39.8005 9.1056 39.8942 8.76154 39.8527 8.36048L39.8387 8.22378Z"
            fill="#2C4BAF" />
        <path
            d="M42.6485 8.31017L41.0819 8.58698L40.9668 7.93543L42.3017 7.69947L42.1607 6.90259L40.8259 7.13855L40.7283 6.58648L42.2903 6.31044L42.1463 5.49512L39.6367 5.93865L40.2778 9.56522L42.7918 9.12091L42.6485 8.31017Z"
            fill="#2C4BAF" />
    </g>
    <path
        d="M35.7264 20.8342C37.2587 18.2366 36.3952 14.8886 33.7976 13.3562C31.2 11.8238 27.8519 12.6873 26.3196 15.2849C24.7872 17.8825 25.6507 21.2305 28.2483 22.7629C30.8459 24.2953 34.194 23.4318 35.7264 20.8342Z"
        fill="#F9B44A" />
    <path
        d="M34.3816 19.5991C35.2393 17.7475 34.4335 15.5511 32.5818 14.6934C30.7301 13.8357 28.5337 14.6415 27.676 16.4932C26.8183 18.3449 27.6242 20.5412 29.4759 21.3989C31.3276 22.2566 33.524 21.4508 34.3816 19.5991Z"
        fill="#F9674E" />
    <path
        d="M34.2166 18.37C34.3971 16.599 33.1078 15.0171 31.3369 14.8366C29.5659 14.6561 27.9839 15.9454 27.8034 17.7163C27.6229 19.4872 28.9122 21.0692 30.6832 21.2497C32.4541 21.4302 34.0361 20.1409 34.2166 18.37Z"
        fill="#F9B44A" />
    <path
        d="M32.5523 18.4005C32.4291 17.8089 32.0527 17.5358 31.1757 17.3886L31.1466 17.3837L30.8938 16.1705C30.9535 16.1605 31.0121 16.154 31.0722 16.1512L31.1816 16.4286C31.3325 16.82 31.5491 16.8613 31.7512 16.8191C31.8937 16.7895 32.0285 16.6775 32.0196 16.4609C31.9146 16.0037 31.4356 15.783 30.8292 15.8604L30.7158 15.3167L30.3471 15.3935L30.4612 15.941C29.7409 16.1641 29.4127 16.6942 29.5287 17.2511C29.6562 17.8633 30.0987 18.1087 30.8269 18.2387L30.9056 18.2526L31.1714 19.5284C31.041 19.5518 30.9287 19.562 30.8208 19.5597L30.7068 19.2291C30.601 18.9287 30.4488 18.8493 30.226 18.8958C30.0787 18.9265 29.9567 19.0327 29.9226 19.2433C30.0354 19.752 30.509 19.973 31.2367 19.8414L31.3601 20.4335L31.7288 20.3566L31.6019 19.7476C32.3231 19.5002 32.67 18.9654 32.5523 18.4005ZM30.2586 16.8844C30.1986 16.5959 30.315 16.3984 30.5325 16.2821L30.7468 17.311C30.4685 17.2446 30.3109 17.136 30.2586 16.8844ZM31.5314 19.4087L31.3074 18.3338C31.6 18.4127 31.7426 18.5323 31.8036 18.8252C31.8544 19.0688 31.7538 19.2795 31.5314 19.4087Z"
        fill="white" />
    <g opacity="0.55">
        <path
            d="M19.1889 29.5811C22.5904 28.6459 25.9881 27.6975 29.3822 26.7357C32.7775 25.7734 36.169 24.7979 39.5567 23.8088C41.471 23.25 43.384 22.6869 45.2958 22.1195C45.5962 22.0304 45.4682 21.5593 45.1661 21.649C41.782 22.6531 38.394 23.6442 35.0022 24.6217C31.6118 25.5989 28.2175 26.5627 24.8194 27.5131C22.9006 28.0498 20.9805 28.5822 19.0592 29.1104C18.7567 29.1937 18.8852 29.6646 19.1889 29.5811Z"
            fill="#2C4BAF" />
        <path
            d="M19.9272 32.7815C23.3287 31.8464 26.7264 30.8979 30.1204 29.9361C33.5158 28.9738 36.9073 27.9982 40.295 27.0092C42.2093 26.4504 44.1222 25.8873 46.034 25.3199C46.3344 25.2308 46.2065 24.7598 45.9043 24.8494C42.5202 25.8535 39.1323 26.8446 35.7405 27.8222C32.35 28.7993 28.9558 29.7631 25.5577 30.7135C23.6389 31.2502 21.7187 31.7826 19.7975 32.3108C19.495 32.3941 19.6234 32.865 19.9272 32.7815Z"
            fill="#2C4BAF" />
        <path
            d="M21.1968 36.1904C24.5982 35.2553 27.996 34.3069 31.3899 33.345C34.7852 32.3827 38.1768 31.4071 41.5644 30.4182C43.4787 29.8593 45.3916 29.2962 47.3035 28.7289C47.6039 28.6398 47.476 28.1686 47.1738 28.2584C43.7897 29.2625 40.4018 30.2535 37.0099 31.2311C33.6195 32.2082 30.2252 33.1721 26.8272 34.1225C24.9083 34.6591 22.9882 35.1916 21.0669 35.7197C20.7646 35.803 20.893 36.274 21.1968 36.1904Z"
            fill="#2C4BAF" />
        <path
            d="M25.6119 38.0435C30.6828 36.5725 35.7418 35.0604 40.788 33.5068C42.2052 33.0705 43.6213 32.6309 45.0365 32.1882C45.3353 32.0948 45.2078 31.6235 44.9068 31.7177C39.8658 33.2948 34.8122 34.831 29.7462 36.3256C28.3258 36.7446 26.9044 37.1603 25.482 37.573C25.1811 37.6603 25.3092 38.1313 25.6119 38.0435Z"
            fill="#2C4BAF" />
    </g>
    <path
        d="M36.862 47.2356C34.1379 48.6741 31.2522 49.788 28.2691 50.5566C27.9652 50.6348 28.0941 51.1057 28.3988 51.0271C31.4214 50.2483 34.3483 49.1144 37.1083 47.6569C37.3861 47.5104 37.1398 47.089 36.862 47.2356Z"
        fill="#2C4BAF" />
    <path
        d="M27.1956 48.6046C27.5704 47.4391 27.8198 46.2374 27.9416 45.0191C27.9722 44.7139 27.9944 44.4079 28.0082 44.1015C28.0191 43.8604 28.0647 43.5718 27.9165 43.3617C27.7854 43.1757 27.5414 43.1213 27.3299 43.1836C27.0526 43.2654 26.8858 43.5436 26.7423 43.7735C26.4459 44.2479 26.2211 44.7725 26.0802 45.3136C25.976 45.714 25.8236 46.2588 26.0808 46.6328C26.4391 47.1538 27.1689 46.693 27.6006 46.5192C28.2007 46.2775 28.7968 46.0189 29.4032 45.7934C29.4108 45.7906 29.5374 45.7418 29.5338 45.7393C29.5735 45.7676 29.5599 45.8895 29.5567 45.9274C29.5482 46.0328 29.517 46.1374 29.4712 46.2323C29.3609 46.4609 29.1593 46.6502 28.92 46.7369C28.3504 46.9432 27.788 46.5042 27.3962 46.1409C27.3387 46.2796 27.2812 46.4185 27.2237 46.5573C28.2278 46.5242 29.187 46.1089 29.9207 45.4257C30.2824 45.089 30.59 44.6828 30.8049 44.2374C30.9036 44.0329 31.0717 43.7451 31.0108 43.5117C30.9402 43.2415 30.6587 43.2182 30.4251 43.2317C29.8975 43.262 29.3376 43.3965 28.9998 43.8359C28.7032 44.2216 28.6405 44.7624 28.7934 45.2194C29.1421 46.261 30.4971 46.6997 31.4612 46.2784C32.0142 46.0369 32.3616 45.4845 32.4435 44.8989C32.4908 44.5609 32.4586 44.216 32.3697 43.887C32.2901 43.5922 32.1407 43.2395 31.7723 43.3237C31.6626 43.3488 31.6006 43.4545 31.5931 43.559C31.5442 44.2546 31.7555 44.9203 31.9235 45.5863C31.9704 45.7721 32.0144 45.9589 32.0461 46.1481C32.0582 46.2203 32.0703 46.2936 32.076 46.3668C32.0846 46.4772 32.0855 46.4816 31.9766 46.5014C31.6021 46.5695 31.2127 46.5927 30.8347 46.6364C30.0675 46.7249 29.2995 46.807 28.5298 46.87C28.1452 46.9015 27.7599 46.9288 27.3744 46.9484C27.0053 46.9671 26.6434 46.9744 26.2954 46.8317C26.3149 46.9803 26.3343 47.129 26.3537 47.2776C27.7245 46.57 29.1371 45.9465 30.586 45.4167C32.0157 44.894 33.4998 44.5041 34.8663 43.8211C35.1472 43.6807 34.9003 43.2596 34.6199 43.3997C33.2472 44.0858 31.7476 44.4676 30.3131 44.9988C28.8749 45.5314 27.47 46.1528 26.1073 46.8563C25.9006 46.9631 25.9884 47.2296 26.1656 47.3022C26.7523 47.5428 27.437 47.4378 28.0519 47.3945C28.7292 47.3467 29.4052 47.2819 30.0803 47.209C30.7454 47.1371 31.4169 47.0776 32.0782 46.9758C32.3411 46.9354 32.547 46.7775 32.5672 46.4974C32.5883 46.2058 32.496 45.8784 32.4287 45.5965C32.2677 44.9233 32.0318 44.2612 32.0812 43.559C32.0215 43.6374 31.9618 43.7158 31.902 43.7943C31.7986 43.818 31.842 43.8275 31.8676 43.9096C31.8862 43.9689 31.9031 44.0287 31.9176 44.089C31.9417 44.1884 31.961 44.289 31.9702 44.3908C31.9915 44.627 31.9757 44.8638 31.9028 45.0902C31.7883 45.4462 31.5295 45.7481 31.1712 45.8707C30.4905 46.1036 29.5164 45.8181 29.2639 45.0898C29.1534 44.7711 29.1799 44.3818 29.3988 44.1134C29.6414 43.8158 30.0632 43.7404 30.4251 43.7198C30.4434 43.7187 30.5306 43.7251 30.5533 43.7143C30.5701 43.7144 30.5869 43.7146 30.6037 43.7147C30.5552 43.6286 30.5257 43.6145 30.515 43.6726C30.4713 43.7166 30.4485 43.8502 30.4207 43.9121C30.3452 44.0801 30.2555 44.242 30.1552 44.3964C29.9599 44.6971 29.7175 44.9646 29.4451 45.1971C28.8276 45.724 28.0357 46.0426 27.2238 46.0693C27.0215 46.076 26.8904 46.3366 27.0513 46.4859C27.4196 46.8276 27.8499 47.1622 28.3584 47.2491C28.8191 47.3279 29.2694 47.1921 29.6057 46.8656C29.9098 46.5703 30.1367 46.076 30.0193 45.6472C29.8401 44.9929 29.1494 45.3728 28.7477 45.5345C28.1719 45.7663 27.596 45.9982 27.0203 46.2301C26.8644 46.2927 26.5186 46.5187 26.4482 46.2737C26.386 46.0571 26.4683 45.7902 26.517 45.5799C26.6399 45.0502 26.8447 44.5446 27.1265 44.0796C27.186 43.9815 27.2462 43.8794 27.3168 43.7886C27.3462 43.7508 27.4066 43.663 27.4595 43.654C27.5384 43.6407 27.4994 43.6288 27.5302 43.6846C27.5708 43.7582 27.5269 43.9399 27.5235 44.0248C27.5163 44.2036 27.5062 44.3822 27.4933 44.5607C27.3968 45.8914 27.1335 47.2051 26.7251 48.4749C26.6287 48.7745 27.0997 48.9028 27.1956 48.6046Z"
        fill="#2C4BAF" />
    <path
        d="M48.5879 44.6743C51.4971 44.6743 53.8554 42.5939 53.8554 40.0276C53.8554 37.4613 51.4971 35.3809 48.5879 35.3809C45.6787 35.3809 43.3203 37.4613 43.3203 40.0276C43.3203 42.5939 45.6787 44.6743 48.5879 44.6743Z"
        fill="white" />
    <g opacity="0.38">
        <path
            d="M48.5868 43.4692C50.7414 43.4692 52.488 41.9284 52.488 40.0278C52.488 38.1272 50.7414 36.5864 48.5868 36.5864C46.4322 36.5864 44.6855 38.1272 44.6855 40.0278C44.6855 41.9284 46.4322 43.4692 48.5868 43.4692Z"
            fill="#2C4BAF" />
    </g>
    <path
        d="M48.588 43.0877C50.5037 43.0877 52.0568 41.7177 52.0568 40.0277C52.0568 38.3378 50.5037 36.9678 48.588 36.9678C46.6722 36.9678 45.1191 38.3378 45.1191 40.0277C45.1191 41.7177 46.6722 43.0877 48.588 43.0877Z"
        fill="white" />
    <path
        d="M2.87951 27.4219C2.87951 27.4219 -0.126561 22.6732 0.00414195 22.2811C0.134845 21.889 2.05183 21.0027 2.66167 21.2716C3.27162 21.5405 4.70936 26.0278 4.70936 26.0278L2.87951 27.4219Z"
        fill="#F9B44A" />
    <path
        d="M17.5612 53.1694C17.2899 53.0478 16.5247 52.0163 15.4586 50.4077C11.7269 44.7755 4.31564 32.0688 1.5962 26.6517C1.41188 26.2843 1.5629 25.8403 1.93153 25.6599L4.10206 24.6028C4.46294 24.4262 4.89807 24.5721 5.07977 24.9292C6.81385 28.3397 14.9122 44.3007 17.0814 49.1114C17.3157 49.631 17.4808 50.0213 17.5613 50.2504C18.4763 52.8648 18.8244 53.7363 17.5612 53.1694Z"
        fill="#2C4BAF" />
    <path
        d="M1.70413 28.1629C1.70413 28.1629 2.66262 27.6401 3.14187 27.8144C3.62111 27.9886 10.1125 40.1871 9.67682 40.4485C9.24114 40.7099 9.50255 42.2347 7.80352 40.4485C6.10437 38.6623 1.31409 28.7038 1.70413 28.1629Z"
        fill="#F9B44A" />
    <path
        d="M17.5616 53.1694C17.2902 53.0479 16.525 52.0164 15.459 50.4078C16.0208 49.9765 16.5635 49.5413 17.0817 49.1113C17.3159 49.631 17.481 50.0212 17.5616 50.2503C18.4766 52.8649 18.8247 53.7363 17.5616 53.1694Z"
        fill="#2C4BAF" />
    <path
        d="M61.8795 23.9637C58.7807 31.7138 52.6634 33.7472 51.1874 34.1342C51.0808 34.162 50.9732 34.1765 50.8658 34.1765C50.7597 34.1765 50.6539 34.162 50.5531 34.1342H49.3507L49.3889 33.7242C47.1949 32.7967 43.1963 30.2774 42.0002 23.9637C40.8637 17.9769 40.9794 14.9257 41.1465 13.6461C41.2052 13.1902 41.4796 12.7717 41.875 12.5329L51.9542 6.43868L52.0369 5.55948H53.4842C53.6154 5.51602 53.749 5.49561 53.8804 5.49561C54.0119 5.49561 54.1412 5.51613 54.2632 5.55948C54.3587 5.59202 54.4505 5.63668 54.5348 5.69575L64.4066 12.5328C64.7517 12.7716 64.9381 13.1901 64.9011 13.646C64.7989 14.9257 64.2733 17.9769 61.8795 23.9637Z"
        fill="#2C4BAF" />
    <path
        d="M60.0434 23.9639C56.9444 31.7136 50.8271 33.748 49.352 34.1343C49.2451 34.1625 49.137 34.1764 49.0303 34.1764C48.9237 34.1764 48.8185 34.1625 48.7171 34.1343C47.3231 33.748 41.6335 31.7136 40.164 23.9639C39.0285 17.9775 39.1432 14.9264 39.3105 13.6462C39.37 13.1909 39.6433 12.7725 40.0387 12.5335L51.3488 5.69586C51.5699 5.5621 51.8106 5.49561 52.0449 5.49561C52.2785 5.49561 52.5058 5.5621 52.6986 5.69586L62.5713 12.5335C62.9165 12.7725 63.1021 13.1909 63.0655 13.6462C62.9636 14.9264 62.437 17.9774 60.0434 23.9639Z"
        fill="#2C4BAF" />
    <path
        d="M51.8441 7.41479L50.5358 19.8614H41.3138C40.8717 16.4543 40.991 14.6438 41.0845 13.9271C41.0873 13.9039 41.0956 13.8876 41.1006 13.88L51.7517 7.44057C51.7807 7.4231 51.8131 7.41479 51.8441 7.41479Z"
        fill="white" />
    <g opacity="0.87">
        <path
            d="M59.7549 19.8614H50.5332L51.8414 7.41479C51.8729 7.41479 51.9029 7.42354 51.928 7.44068L61.2254 13.8801C61.2288 13.8876 61.2333 13.9036 61.2313 13.9263C61.1742 14.6432 60.9127 16.4542 59.7549 19.8614Z"
            fill="white" />
    </g>
    <g opacity="0.87">
        <path
            d="M50.5365 19.8616L49.2284 32.3082C49.2127 32.3082 49.1976 32.3062 49.1828 32.3017C48.5463 32.1141 47.1135 31.5875 45.6561 30.3387C43.7105 28.6716 42.4448 26.3535 41.8943 23.4487C41.6372 22.0943 41.4494 20.9033 41.3145 19.8616H50.5365Z"
            fill="white" />
    </g>
    <g opacity="0.77">
        <path
            d="M59.7565 19.8616C59.4022 20.9033 58.964 22.0943 58.4227 23.4487C57.2614 26.3535 55.5081 28.6716 53.2125 30.3387C51.4918 31.5879 49.9475 32.1145 49.2728 32.3017C49.257 32.3057 49.242 32.3082 49.2266 32.3082L50.5348 19.8616H59.7565Z"
            fill="white" />
    </g>
    <path
        d="M49.5944 23.3048C49.1993 23.3048 48.8406 23.1424 48.5757 22.8414L45.8247 19.7147C45.4404 19.2779 45.4836 18.5298 45.9211 18.0436C46.3586 17.5575 47.0248 17.5173 47.4091 17.9542L49.8283 20.7038L55.9437 13.7589C56.3764 13.2674 57.043 13.2182 57.4327 13.6488C57.8223 14.0796 57.7873 14.8272 57.3545 15.3187L50.8657 22.6879C50.5428 23.0544 50.1262 23.2723 49.6926 23.3014C49.6597 23.3037 49.627 23.3048 49.5944 23.3048Z"
        fill="#8BC108" />
</svg>