<svg width="111" height="24" viewBox="0 0 111 24" fill="none" xmlns="http://www.w3.org/2000/svg">
    <path
        d="M50.5048 12.8571C50.5048 14.6768 50.1293 16.2249 49.3782 17.5013C48.633 18.7778 47.6158 19.7528 46.3266 20.4264C45.0432 21.0945 43.6002 21.4285 41.9975 21.4285C40.383 21.4285 38.9341 21.0918 37.6507 20.4182C36.3674 19.7447 35.3531 18.7697 34.608 17.4932C33.8628 16.2167 33.4902 14.6714 33.4902 12.8571C33.4902 11.0375 33.8628 9.48938 34.608 8.2129C35.3531 6.93642 36.3674 5.96413 37.6507 5.29601C38.9341 4.62246 40.383 4.28569 41.9975 4.28569C43.6002 4.28569 45.0432 4.62246 46.3266 5.29601C47.6158 5.96413 48.633 6.93642 49.3782 8.2129C50.1293 9.48938 50.5048 11.0375 50.5048 12.8571ZM46.6104 12.8571C46.6104 11.6784 46.4182 10.6844 46.0338 9.87504C45.6553 9.0657 45.1201 8.45191 44.4282 8.03365C43.7362 7.6154 42.926 7.40628 41.9975 7.40628C41.069 7.40628 40.2588 7.6154 39.5669 8.03365C38.8749 8.45191 38.3368 9.0657 37.9523 9.87504C37.5739 10.6844 37.3846 11.6784 37.3846 12.8571C37.3846 14.0358 37.5739 15.0299 37.9523 15.8392C38.3368 16.6485 38.8749 17.2623 39.5669 17.6806C40.2588 18.0988 41.069 18.308 41.9975 18.308C42.926 18.308 43.7362 18.0988 44.4282 17.6806C45.1201 17.2623 45.6553 16.6485 46.0338 15.8392C46.4182 15.0299 46.6104 14.0358 46.6104 12.8571Z"
        fill="#111111" />
    <path
        d="M55.457 21.2004H51.3409L57.6127 4.51383H62.5627L68.8256 21.2004H64.7095L60.1587 8.32697H60.0167L55.457 21.2004ZM55.1998 14.6415H64.9224V17.3954H55.1998V14.6415Z"
        fill="#111111" />
    <path
        d="M73.1502 21.4123C72.5648 21.4123 72.0621 21.2221 71.6422 20.8419C71.2282 20.4563 71.0212 19.9945 71.0212 19.4568C71.0212 18.9245 71.2282 18.4682 71.6422 18.088C72.0621 17.7077 72.5648 17.5176 73.1502 17.5176C73.718 17.5176 74.2148 17.7077 74.6406 18.088C75.0664 18.4682 75.2793 18.9245 75.2793 19.4568C75.2793 19.8153 75.1787 20.1439 74.9777 20.4427C74.7825 20.736 74.5252 20.9723 74.2059 21.1515C73.8865 21.3253 73.5347 21.4123 73.1502 21.4123Z"
        fill="#111111" />
    <path
        d="M78.4529 21.2004V4.51383H82.294V11.8712H82.5335L89.0715 4.51383H93.6755L86.9336 11.9853L93.7554 21.2004H89.1602L84.1835 14.34L82.294 16.4584V21.2004H78.4529Z"
        fill="#111111" />
    <path
        d="M106.698 9.90764C106.574 9.51111 106.399 9.16076 106.175 8.85658C105.95 8.54696 105.675 8.28623 105.35 8.07439C105.03 7.85712 104.664 7.69145 104.25 7.57738C103.842 7.46331 103.389 7.40628 102.892 7.40628C101.964 7.40628 101.148 7.61812 100.444 8.0418C99.7462 8.46548 99.2021 9.082 98.8118 9.89134C98.4215 10.6953 98.2263 11.6784 98.2263 12.8408C98.2263 14.0032 98.4185 14.9918 98.8029 15.8066C99.1874 16.6214 99.7314 17.2433 100.435 17.6724C101.139 18.0961 101.97 18.308 102.928 18.308C103.797 18.308 104.54 18.1667 105.155 17.8843C105.776 17.5964 106.249 17.1917 106.574 16.6703C106.905 16.1488 107.071 15.5323 107.071 14.8207L107.851 14.9266H103.167V12.2705H110.77V14.3726C110.77 15.8392 110.433 17.0994 109.759 18.1532C109.084 19.2015 108.156 20.0108 106.973 20.5812C105.79 21.1461 104.436 21.4285 102.91 21.4285C101.207 21.4285 99.7108 21.0836 98.4215 20.3938C97.1322 19.6985 96.1269 18.7126 95.4054 17.4362C94.6898 16.1542 94.332 14.6333 94.332 12.8734C94.332 11.5209 94.5449 10.315 94.9707 9.25582C95.4024 8.19118 96.0056 7.28949 96.7804 6.55076C97.5551 5.81203 98.457 5.24984 99.486 4.86418C100.515 4.47852 101.63 4.28569 102.83 4.28569C103.859 4.28569 104.817 4.4242 105.705 4.70123C106.592 4.97282 107.378 5.35848 108.064 5.85821C108.756 6.35793 109.321 6.95272 109.759 7.64256C110.196 8.32697 110.477 9.082 110.601 9.90764H106.698Z"
        fill="#111111" />
    <path
        d="M18.8389 16.7269C21.7678 14.9738 23.8928 12.2126 24.7814 9.00502L26.8718 9.46788C26.9582 9.48768 27.0486 9.48452 27.1333 9.45873C27.218 9.43294 27.2938 9.38549 27.3527 9.32144C27.4122 9.25783 27.4524 9.17968 27.4689 9.09555C27.4853 9.01141 27.4774 8.92454 27.4459 8.84446L24.0944 0.300806C24.0648 0.228959 24.0176 0.165115 23.9566 0.114793C23.8957 0.0644701 23.823 0.0291819 23.7447 0.0119772C23.6664 -0.00522743 23.585 -0.00383092 23.5074 0.016046C23.4298 0.035923 23.3584 0.0736824 23.2994 0.126062L16.3952 6.38856C16.332 6.44771 16.2864 6.52205 16.2631 6.60386C16.2398 6.68568 16.2397 6.772 16.2627 6.85388C16.2857 6.93577 16.3311 7.01024 16.394 7.06959C16.457 7.12894 16.5353 7.17101 16.6209 7.19144L18.6966 7.65427C17.9526 10.2677 16.3265 12.5688 14.0744 14.195C11.8223 15.8213 9.0722 16.6805 6.25707 16.6371C4.05238 15.6546 2.19226 14.076 0.903418 12.0938C0.833168 11.9901 0.723464 11.917 0.597852 11.8902C0.47224 11.8634 0.34073 11.8851 0.231549 11.9506C0.122369 12.0161 0.0442186 12.1202 0.0138723 12.2406C-0.016474 12.3609 0.00340204 12.4879 0.0692346 12.5943C3.85671 18.6239 12.6965 20.5848 18.8389 16.7269Z"
        fill="#111111" />
    <path
        d="M18.8389 16.7269C21.7678 14.9738 23.8928 12.2126 24.7814 9.00502L26.8718 9.46788C26.9582 9.48768 27.0486 9.48452 27.1333 9.45873C27.218 9.43294 27.2938 9.38549 27.3527 9.32144C27.4122 9.25783 27.4524 9.17968 27.4689 9.09555C27.4853 9.01141 27.4774 8.92454 27.4459 8.84446L24.0944 0.300806C24.0648 0.228959 24.0176 0.165115 23.9566 0.114793C23.8957 0.0644701 23.823 0.0291819 23.7447 0.0119772C23.6664 -0.00522743 23.585 -0.00383092 23.5074 0.016046C23.4298 0.035923 23.3584 0.0736824 23.2994 0.126062L16.3952 6.38856C16.332 6.44771 16.2864 6.52205 16.2631 6.60386C16.2398 6.68568 16.2397 6.772 16.2627 6.85388C16.2857 6.93577 16.3311 7.01024 16.394 7.06959C16.457 7.12894 16.5353 7.17101 16.6209 7.19144L18.6966 7.65427C17.9526 10.2677 16.3265 12.5688 14.0744 14.195C11.8223 15.8213 9.0722 16.6805 6.25707 16.6371C4.05238 15.6546 2.19226 14.076 0.903418 12.0938C0.833168 11.9901 0.723464 11.917 0.597852 11.8902C0.47224 11.8634 0.34073 11.8851 0.231549 11.9506C0.122369 12.0161 0.0442186 12.1202 0.0138723 12.2406C-0.016474 12.3609 0.00340204 12.4879 0.0692346 12.5943C3.85671 18.6239 12.6965 20.5848 18.8389 16.7269Z"
        fill="url(#paint0_linear_194_3301)" />
    <path
        d="M14.7168 23.5275C14.7166 23.5895 14.7291 23.651 14.7537 23.7084C14.7783 23.7658 14.8144 23.818 14.86 23.8619C14.9057 23.9058 14.9598 23.9406 15.0195 23.9642C15.0791 23.9879 15.143 24 15.2075 23.9997H19.1332C19.1977 24 19.2616 23.9879 19.3212 23.9642C19.3809 23.9406 19.4351 23.9058 19.4807 23.8619C19.5263 23.818 19.5624 23.7658 19.587 23.7084C19.6116 23.651 19.6241 23.5895 19.6239 23.5275V17.3642C18.1282 18.31 16.465 18.984 14.7168 19.3525L14.7168 23.5275Z"
        fill="#111111" />
    <path
        d="M14.7168 23.5275C14.7166 23.5895 14.7291 23.651 14.7537 23.7084C14.7783 23.7658 14.8144 23.818 14.86 23.8619C14.9057 23.9058 14.9598 23.9406 15.0195 23.9642C15.0791 23.9879 15.143 24 15.2075 23.9997H19.1332C19.1977 24 19.2616 23.9879 19.3212 23.9642C19.3809 23.9406 19.4351 23.9058 19.4807 23.8619C19.5263 23.818 19.5624 23.7658 19.587 23.7084C19.6116 23.651 19.6241 23.5895 19.6239 23.5275V17.3642C18.1282 18.31 16.465 18.984 14.7168 19.3525L14.7168 23.5275Z"
        fill="url(#paint1_linear_194_3301)" />
    <path
        d="M3.43212 20.2216C3.30209 20.222 3.1775 20.2719 3.08556 20.3604C2.99361 20.4488 2.94179 20.5688 2.94141 20.6939V23.5276C2.94119 23.5897 2.95373 23.6512 2.97831 23.7086C3.00289 23.766 3.03902 23.8181 3.08464 23.862C3.13025 23.9059 3.18443 23.9407 3.24407 23.9644C3.30371 23.988 3.36762 24.0001 3.43212 23.9999H7.3578C7.4223 24.0001 7.48621 23.988 7.54585 23.9644C7.60549 23.9407 7.65967 23.9059 7.70528 23.862C7.7509 23.8181 7.78703 23.766 7.81161 23.7086C7.83619 23.6512 7.84873 23.5897 7.84851 23.5276V20.6939C7.84813 20.5688 7.79631 20.4488 7.70436 20.3604C7.61242 20.2719 7.48783 20.222 7.3578 20.2216H3.43212Z"
        fill="#111111" />
    <path
        d="M3.43212 20.2216C3.30209 20.222 3.1775 20.2719 3.08556 20.3604C2.99361 20.4488 2.94179 20.5688 2.94141 20.6939V23.5276C2.94119 23.5897 2.95373 23.6512 2.97831 23.7086C3.00289 23.766 3.03902 23.8181 3.08464 23.862C3.13025 23.9059 3.18443 23.9407 3.24407 23.9644C3.30371 23.988 3.36762 24.0001 3.43212 23.9999H7.3578C7.4223 24.0001 7.48621 23.988 7.54585 23.9644C7.60549 23.9407 7.65967 23.9059 7.70528 23.862C7.7509 23.8181 7.78703 23.766 7.81161 23.7086C7.83619 23.6512 7.84873 23.5897 7.84851 23.5276V20.6939C7.84813 20.5688 7.79631 20.4488 7.70436 20.3604C7.61242 20.2719 7.48783 20.222 7.3578 20.2216H3.43212Z"
        fill="url(#paint2_linear_194_3301)" />
    <path
        d="M8.82813 19.4093V23.5276C8.8279 23.5897 8.84044 23.6512 8.86503 23.7086C8.88961 23.766 8.92574 23.8181 8.97136 23.862C9.01697 23.9059 9.07115 23.9407 9.13079 23.9644C9.19042 23.988 9.25434 24.0001 9.31884 23.9999H13.2445C13.309 24.0001 13.3729 23.988 13.4326 23.9644C13.4922 23.9407 13.5464 23.9059 13.592 23.862C13.6376 23.8181 13.6738 23.766 13.6983 23.7086C13.7229 23.6512 13.7355 23.5897 13.7352 23.5276V19.5226C12.1048 19.7549 10.4451 19.7165 8.82813 19.4093Z"
        fill="#111111" />
    <path
        d="M8.82813 19.4093V23.5276C8.8279 23.5897 8.84044 23.6512 8.86503 23.7086C8.88961 23.766 8.92574 23.8181 8.97136 23.862C9.01697 23.9059 9.07115 23.9407 9.13079 23.9644C9.19042 23.988 9.25434 24.0001 9.31884 23.9999H13.2445C13.309 24.0001 13.3729 23.988 13.4326 23.9644C13.4922 23.9407 13.5464 23.9059 13.592 23.862C13.6376 23.8181 13.6738 23.766 13.6983 23.7086C13.7229 23.6512 13.7355 23.5897 13.7352 23.5276V19.5226C12.1048 19.7549 10.4451 19.7165 8.82813 19.4093Z"
        fill="url(#paint3_linear_194_3301)" />
    <path
        d="M20.6055 16.6887V23.5274C20.6052 23.5895 20.6178 23.651 20.6424 23.7084C20.6669 23.7658 20.7031 23.8179 20.7487 23.8618C20.7943 23.9057 20.8485 23.9405 20.9081 23.9642C20.9678 23.9878 21.0317 23.9999 21.0962 23.9997H25.0219C25.0864 23.9999 25.1503 23.9878 25.2099 23.9642C25.2695 23.9405 25.3237 23.9057 25.3693 23.8618C25.415 23.8179 25.4511 23.7658 25.4757 23.7084C25.5003 23.651 25.5128 23.5895 25.5126 23.5274V10.1381L25.4537 10.124C24.5388 12.7212 22.8533 15.0034 20.6055 16.6887Z"
        fill="#111111" />
    <path
        d="M20.6055 16.6887V23.5274C20.6052 23.5895 20.6178 23.651 20.6424 23.7084C20.6669 23.7658 20.7031 23.8179 20.7487 23.8618C20.7943 23.9057 20.8485 23.9405 20.9081 23.9642C20.9678 23.9878 21.0317 23.9999 21.0962 23.9997H25.0219C25.0864 23.9999 25.1503 23.9878 25.2099 23.9642C25.2695 23.9405 25.3237 23.9057 25.3693 23.8618C25.415 23.8179 25.4511 23.7658 25.4757 23.7084C25.5003 23.651 25.5128 23.5895 25.5126 23.5274V10.1381L25.4537 10.124C24.5388 12.7212 22.8533 15.0034 20.6055 16.6887Z"
        fill="url(#paint4_linear_194_3301)" />
    <path
        d="M7.29934 12.8571C8.57305 12.8571 9.81815 12.4801 10.8772 11.7737C11.9362 11.0674 12.7617 10.0634 13.2491 8.88868C13.7365 7.71402 13.8641 6.42144 13.6156 5.17442C13.3671 3.9274 12.7537 2.78194 11.8531 1.88289C10.9524 0.983836 9.80495 0.371574 8.55572 0.123526C7.30649 -0.124522 6.01163 0.00278573 4.83487 0.48935C3.65812 0.975914 2.65234 1.79988 1.9447 2.85705C1.23707 3.91423 0.859374 5.15713 0.859375 6.42858C0.86101 8.13304 1.54003 9.76722 2.7474 10.9725C3.95478 12.1777 5.59186 12.8555 7.29934 12.8571ZM8.74089 6.92308H5.8578C5.53606 6.92256 5.22766 6.79475 5.00016 6.56765C4.77266 6.34056 4.64462 6.03269 4.6441 5.71153V4.27254C4.64358 3.9506 4.77113 3.64163 4.99871 3.41353C5.22629 3.18542 5.53529 3.05684 5.8578 3.05604H6.80397V2.47253C6.80438 2.34165 6.85676 2.21628 6.94961 2.12388C7.04247 2.03148 7.16824 1.97959 7.29935 1.97959C7.43046 1.97959 7.55623 2.03148 7.64908 2.12388C7.74194 2.21628 7.79432 2.34165 7.79473 2.47253V3.05604H8.7409C9.0634 3.05684 9.3724 3.18542 9.59998 3.41353C9.82756 3.64163 9.95511 3.9506 9.95459 4.27254C9.95459 4.40369 9.9024 4.52947 9.8095 4.62221C9.71659 4.71494 9.59059 4.76704 9.45921 4.76704C9.32782 4.76704 9.20182 4.71494 9.10892 4.62221C9.01602 4.52947 8.96382 4.40369 8.96382 4.27254C8.96426 4.21293 8.94107 4.15556 8.89931 4.11295C8.85755 4.07034 8.80061 4.04593 8.7409 4.04505H5.8578C5.79809 4.04593 5.74115 4.07034 5.69939 4.11295C5.65763 4.15556 5.63444 4.21293 5.63487 4.27254V5.71153C5.63475 5.74079 5.64043 5.76978 5.65159 5.79683C5.66275 5.82389 5.67917 5.84847 5.69989 5.86916C5.72062 5.88984 5.74524 5.90623 5.77234 5.91737C5.79944 5.92851 5.82849 5.93418 5.8578 5.93406H8.7409C9.06263 5.93458 9.37104 6.06239 9.59854 6.28948C9.82604 6.51658 9.95408 6.82444 9.95459 7.1456V8.58464C9.9551 8.90657 9.82755 9.21554 9.59997 9.44364C9.37239 9.67175 9.0634 9.80033 8.7409 9.80113H7.79473V10.3846C7.79493 10.4497 7.78227 10.5142 7.75747 10.5743C7.73266 10.6345 7.69621 10.6892 7.65019 10.7353C7.60417 10.7814 7.54949 10.818 7.48928 10.8429C7.42908 10.8678 7.36453 10.8807 7.29934 10.8807C7.23416 10.8807 7.16961 10.8678 7.10941 10.8429C7.0492 10.818 6.99452 10.7814 6.9485 10.7353C6.90248 10.6892 6.86602 10.6345 6.84122 10.5743C6.81642 10.5142 6.80376 10.4497 6.80396 10.3846V9.80111H5.8578C5.5353 9.80031 5.22631 9.67173 4.99873 9.44363C4.77115 9.21553 4.6436 8.90657 4.6441 8.58464C4.64452 8.45376 4.69689 8.32838 4.78975 8.23598C4.8826 8.14358 5.00837 8.09169 5.13948 8.09169C5.2706 8.09169 5.39636 8.14358 5.48922 8.23598C5.58207 8.32838 5.63445 8.45376 5.63486 8.58464C5.63443 8.64425 5.65762 8.70161 5.69938 8.74422C5.74114 8.78684 5.79808 8.81124 5.85779 8.81212H8.74089C8.8006 8.81124 8.85754 8.78684 8.8993 8.74423C8.94106 8.70161 8.96425 8.64425 8.96382 8.58464V7.14562C8.96394 7.11636 8.95826 7.08737 8.9471 7.06031C8.93594 7.03326 8.91952 7.00868 8.8988 6.98799C8.87807 6.9673 8.85345 6.95091 8.82635 6.93977C8.79924 6.92863 8.7702 6.92296 8.74089 6.92308Z"
        fill="url(#paint5_linear_194_3301)" />
    <defs>
        <linearGradient id="paint0_linear_194_3301" x1="13.7386" y1="18.7143" x2="13.7386"
            y2="5.05958e-05" gradientUnits="userSpaceOnUse">
            <stop stop-color="#00B59C" />
            <stop offset="1" stop-color="#9CFFAC" />
        </linearGradient>
        <linearGradient id="paint1_linear_194_3301" x1="17.1703" y1="23.9997" x2="17.1703"
            y2="17.3642" gradientUnits="userSpaceOnUse">
            <stop stop-color="#00B59C" />
            <stop offset="1" stop-color="#9CFFAC" />
        </linearGradient>
        <linearGradient id="paint2_linear_194_3301" x1="5.39496" y1="23.9999" x2="5.39496"
            y2="20.2216" gradientUnits="userSpaceOnUse">
            <stop stop-color="#00B59C" />
            <stop offset="1" stop-color="#9CFFAC" />
        </linearGradient>
        <linearGradient id="paint3_linear_194_3301" x1="11.2817" y1="23.9999" x2="11.2817"
            y2="19.4093" gradientUnits="userSpaceOnUse">
            <stop stop-color="#00B59C" />
            <stop offset="1" stop-color="#9CFFAC" />
        </linearGradient>
        <linearGradient id="paint4_linear_194_3301" x1="23.059" y1="23.9997" x2="23.059" y2="10.124"
            gradientUnits="userSpaceOnUse">
            <stop stop-color="#00B59C" />
            <stop offset="1" stop-color="#9CFFAC" />
        </linearGradient>
        <linearGradient id="paint5_linear_194_3301" x1="14.373" y1="1.22554" x2="1.6256"
            y2="10.6642" gradientUnits="userSpaceOnUse">
            <stop offset="0.413462" stop-color="#FF9909" />
            <stop offset="1" stop-color="#A66100" />
        </linearGradient>
    </defs>
</svg>