<svg width="56" height="60" viewBox="0 0 56 60" fill="none" xmlns="http://www.w3.org/2000/svg">
    <path
        d="M9.31943 10.3415C9.31943 10.3415 7.28547 12.1494 5.13843 10.1155C2.99138 8.08142 4.46048 5.29417 5.96714 3.78741C7.4738 2.28075 12.2952 -1.90025 15.0449 1.00008C17.7945 3.90041 16.1749 6.74327 14.7059 7.77015C13.2368 8.79713 9.31943 10.3415 9.31943 10.3415Z"
        fill="#2C4BAF" />
    <path
        d="M21.6027 12.8258C21.6027 12.8258 23.1616 9.73596 21.6027 6.86881C20.0439 4.00165 15.4231 5.83889 15.4231 5.83889C15.4231 5.83889 12.6117 3.33364 9.10421 6.59052C5.59677 9.84739 6.51545 13.8002 8.0464 15.86C9.57736 17.9198 12.2566 20.5017 12.2566 20.5017L21.6027 12.8258Z"
        fill="#2C4BAF" />
    <path
        d="M21.185 9.51357C21.185 9.51357 23.2264 14.023 22.1222 16.8067C21.018 19.5903 19.2643 19.8129 19.2643 19.8129L19.9 22.0761C19.9 22.0761 23.1057 27.4406 18.4292 26.8836C13.7527 26.3266 12.7679 23.0759 12.7679 23.0759L11.8321 18.3654C11.8321 18.3654 9.54949 17.9208 9.49377 16.3059C9.43816 14.691 10.8578 13.9951 11.6093 14.3291C12.3608 14.6631 13.1376 15.3869 14.2245 14.7188C15.3114 14.0507 16.6198 12.9651 16.6476 10.9053C16.6754 8.84538 15.6003 7.84328 15.9708 7.78766C16.3416 7.73204 19.6541 7.70423 21.185 9.51357Z"
        fill="#FFC4B6" />
    <path
        d="M19.2644 19.8125C19.2644 19.8125 18.6891 20.2579 16.5551 19.9053C14.4209 19.5527 14.1797 19.4043 14.1797 19.4043C14.1797 19.4043 15.6086 21.3157 17.353 22.1322C19.0974 22.9487 20.3256 22.9001 20.3256 22.9001L19.2644 19.8125Z"
        fill="#F9674E" />
    <path
        d="M10.6754 15.5023C10.8461 15.4874 11.0213 15.4665 11.1734 15.5256C11.233 15.5487 11.2696 15.5795 11.312 15.624C11.3463 15.6601 11.335 15.6457 11.362 15.687C11.3853 15.7225 11.4057 15.7598 11.4239 15.7982C11.4442 15.8409 11.4693 15.9182 11.4866 15.9897C11.5063 16.0702 11.5193 16.1518 11.5268 16.2343C11.5454 16.4392 11.5396 16.6452 11.5278 16.8503C11.5211 16.968 11.6329 17.0683 11.7458 17.0683C11.8694 17.0683 11.9571 16.9683 11.9638 16.8503C11.9889 16.4128 11.9909 15.9337 11.7793 15.5365C11.6821 15.3543 11.5312 15.2051 11.3397 15.1256C11.1283 15.0377 10.8987 15.0466 10.675 15.0662C10.5577 15.0765 10.457 15.1591 10.457 15.2842C10.4573 15.3943 10.5574 15.5126 10.6754 15.5023Z"
        fill="#F9674E" />
    <path
        d="M11.096 16.553C11.1007 16.5211 11.1091 16.4905 11.1211 16.4606C11.1138 16.478 11.1065 16.4953 11.0992 16.5127C11.1121 16.4828 11.1282 16.4562 11.1459 16.4291C11.1621 16.4042 11.1326 16.4445 11.1314 16.4475C11.134 16.4403 11.1441 16.4326 11.149 16.4271C11.16 16.415 11.1715 16.4035 11.1836 16.3925C11.189 16.3876 11.1945 16.3829 11.2 16.378C11.2223 16.358 11.1856 16.3916 11.1814 16.3916C11.1901 16.3914 11.2135 16.3689 11.2218 16.3636C11.2532 16.3437 11.2862 16.3271 11.3203 16.3123C11.3029 16.3196 11.2855 16.3269 11.2682 16.3342C11.396 16.281 11.5327 16.2596 11.6687 16.2393C11.7191 16.2318 11.7746 16.1808 11.799 16.1391C11.8263 16.0923 11.8379 16.0235 11.8209 15.9711C11.8039 15.9183 11.7712 15.8674 11.7207 15.8408C11.6655 15.8116 11.6141 15.8097 11.5527 15.8188C11.3658 15.8467 11.1748 15.881 11.0108 15.9813C10.8493 16.08 10.7043 16.2444 10.6754 16.4372C10.6663 16.4974 10.6654 16.5505 10.6974 16.6052C10.7238 16.6505 10.7757 16.6936 10.8276 16.7054C10.8834 16.7181 10.9461 16.7154 10.9957 16.6835C11.0401 16.6547 11.0878 16.6077 11.096 16.553Z"
        fill="#F9674E" />
    <path
        d="M19.7437 17.3619C19.7437 17.3619 17.8928 17.7231 17.3771 16.6192C16.8615 15.5152 18.0808 15.4318 18.8812 15.4357C19.6816 15.4396 20.5378 14.7278 20.8275 15.3824C21.1171 16.0371 20.6861 17.1039 19.7437 17.3619Z"
        fill="white" />
    <path
        d="M12.1295 21.8324L12.5438 20.3423L18.2556 22.1221L19.4974 20.3423L20.3668 20.9217C20.3668 20.9217 30.665 27.8225 31.6868 33.3802C32.7085 38.9379 31.6247 45.9835 32.1834 49.212C32.7422 52.4405 33.6114 58.649 33.6114 58.649C33.6114 58.649 28.8308 60.5737 19.3318 59.8286C9.83273 59.0836 9.83273 59.0836 9.83273 59.0836C9.83273 59.0836 10.8254 46.9576 10.7637 44.1734C10.702 41.3892 5.85938 28.7238 5.85938 28.7238L12.1295 21.8324Z"
        fill="white" />
    <g opacity="0.18">
        <path
            d="M12.1275 21.8324L12.5418 20.3423L18.2537 22.1221L19.4954 20.3423L20.3648 20.9217C20.3648 20.9217 30.6631 27.8225 31.6848 33.3802C32.7065 38.9379 31.6228 45.9835 32.1815 49.212C32.7403 52.4405 33.6095 58.649 33.6095 58.649C33.6095 58.649 28.8289 60.5737 19.3298 59.8286C9.83077 59.0836 9.83078 59.0836 9.83078 59.0836C9.83078 59.0836 10.8234 46.9576 10.7617 44.1734C10.7001 41.3892 5.85742 28.7238 5.85742 28.7238L12.1275 21.8324Z"
            fill="#2C4BAF" />
    </g>
    <path
        d="M12.1269 21.8325C12.1269 21.8325 15.8524 25.6507 16.5043 25.5887C17.1562 25.5266 18.2531 22.1222 18.2531 22.1222C18.2531 22.1222 20.2915 24.1607 20.5088 23.9123C20.7261 23.664 20.3642 20.9218 20.3642 20.9218C20.3642 20.9218 19.6707 19.7837 19.4224 19.9388C19.1741 20.0941 17.9634 21.5841 17.9634 21.5841C17.9634 21.5841 11.8684 19.9702 11.765 20.3423C11.6616 20.7145 12.1269 21.8325 12.1269 21.8325Z"
        fill="white" />
    <path
        d="M18.4995 23.4478C19.7283 25.5837 20.9446 27.7291 22.0285 29.9431C22.5563 31.0211 23.0811 32.1129 23.4603 33.2537C23.8455 34.4128 24.0062 35.6062 24.0216 36.825C24.0392 38.217 23.9044 39.6049 23.8557 40.995C23.8458 41.2756 24.2819 41.2752 24.2917 40.995C24.3784 38.5224 24.7221 36.0086 24.0213 33.589C23.6842 32.4255 23.1702 31.3179 22.6491 30.2275C22.1153 29.1107 21.5455 28.0114 20.9554 26.9234C20.2814 25.6809 19.5808 24.453 18.8759 23.2277C18.7362 22.9845 18.3593 23.2039 18.4995 23.4478Z"
        fill="#2C4BAF" />
    <path
        d="M24.2144 46.9981C24.0572 49.887 24.0005 52.7811 24.047 55.6739C24.0601 56.4936 24.0817 57.313 24.111 58.1321C24.121 58.4119 24.5571 58.4132 24.547 58.1321C24.4435 55.2409 24.4406 52.3461 24.5408 49.4547C24.5692 48.6354 24.606 47.8166 24.6505 46.998C24.6658 46.7177 24.2296 46.7185 24.2144 46.9981Z"
        fill="#2C4BAF" />
    <path
        d="M46.3172 36.1539C46.3172 36.1539 45.9853 41.866 45.7372 41.866C45.4892 41.866 32.4506 41.866 32.4506 41.866L33.8999 54.862L27.4572 55.8141C27.4572 55.8141 27.355 48.277 27.1593 42.4921C27.0669 39.7565 26.9538 37.4135 26.8213 36.4433C26.408 33.422 20.3652 20.9219 20.3652 20.9219C20.3652 20.9219 20.4759 20.9401 20.6752 20.9742C22.2109 21.2392 28.9782 22.4429 29.9679 23.3232C31.0852 24.3165 37.252 34.7873 37.6252 35.0779C37.9973 35.3672 46.3172 36.1539 46.3172 36.1539Z"
        fill="#2C4BAF" />
    <g opacity="0.25">
        <path
            d="M46.3172 36.1539C46.3172 36.1539 45.9853 41.866 45.7372 41.866C45.4892 41.866 32.4506 41.866 32.4506 41.866L33.8999 54.862L27.4572 55.8141C27.4572 55.8141 27.355 48.277 27.1593 42.4921C27.0669 39.7565 26.9538 37.4135 26.8213 36.4433C26.408 33.422 20.3652 20.9219 20.3652 20.9219C20.3652 20.9219 20.4759 20.9401 20.6752 20.9742C22.2109 21.2392 28.9782 22.4429 29.9679 23.3232C31.0852 24.3165 37.252 34.7873 37.6252 35.0779C37.9973 35.3672 46.3172 36.1539 46.3172 36.1539Z"
            fill="white" />
    </g>
    <g opacity="0.25">
        <path
            d="M27.1593 42.4921C27.0669 39.7565 26.9538 37.4135 26.8213 36.4433C26.408 33.422 20.3652 20.9219 20.3652 20.9219C20.3652 20.9219 20.4759 20.9401 20.6752 20.9742C22.4418 21.8715 24.9623 23.2636 25.1398 23.9846C25.4146 25.1019 24.1732 26.8406 24.1732 26.8406C24.1732 26.8406 28.1052 29.2418 28.2706 29.8207C28.3922 30.2462 29.0134 37.529 27.1593 42.4921Z"
            fill="white" />
    </g>
    <path
        d="M30.4224 26.7067C30.4809 27.8689 30.7868 29.0088 31.327 30.0403C31.8362 31.0129 32.6416 31.7981 33.1189 32.7865C33.6591 33.9051 33.3577 35.1641 33.0692 36.3107C32.918 36.9114 32.7502 37.5083 32.6255 38.1153C32.4973 38.7396 32.436 39.3687 32.405 40.0047C32.387 40.373 32.3739 40.7416 32.3447 41.1093C32.3315 41.2747 32.3459 41.4995 32.2868 41.6537C32.2593 41.7254 32.2102 41.7193 32.1293 41.7454C32.0505 41.7708 31.9715 41.7962 31.8927 41.8216C31.1827 42.0502 30.4727 42.2788 29.7627 42.5075C29.4966 42.5931 29.6104 43.0143 29.8787 42.9279C30.521 42.721 31.1634 42.5142 31.8058 42.3074C31.9635 42.2566 32.1213 42.2058 32.2791 42.155C32.4138 42.1116 32.5596 42.0737 32.6428 41.9489C32.7099 41.8483 32.7146 41.7219 32.7296 41.6057C32.7524 41.4289 32.7699 41.2515 32.7836 41.0738C32.8354 40.3979 32.8353 39.7185 32.9121 39.0444C32.9853 38.4021 33.1426 37.7719 33.3039 37.1472C33.4643 36.5259 33.633 35.9055 33.7428 35.2727C33.8512 34.648 33.9159 34.005 33.7834 33.3786C33.5494 32.2725 32.7314 31.436 32.1226 30.5255C31.3654 29.3932 30.927 28.067 30.8586 26.7068C30.8444 26.4274 30.4083 26.4257 30.4224 26.7067Z"
        fill="#2C4BAF" />
    <path
        d="M29.4474 50.8456C30.0705 50.5686 30.715 50.3415 31.3723 50.1603C31.6425 50.0858 31.5278 49.665 31.2564 49.7398C30.5622 49.9312 29.8853 50.1767 29.2273 50.4691C29.1197 50.5169 29.0943 50.6738 29.1491 50.7674C29.2139 50.8782 29.3393 50.8937 29.4474 50.8456Z"
        fill="#2C4BAF" />
    <path
        d="M20.1618 39.929C20.1168 39.4706 20.073 39.0634 20.0329 38.7193C19.5368 34.4565 12.1276 21.8325 12.1276 21.8325C12.1276 21.8325 11.933 21.976 11.5987 22.2264C11.5987 22.2264 11.5987 22.2264 11.5974 22.2276C9.54386 23.7644 2.22455 29.3147 1.90479 30.5245C1.53147 31.9313 -0.0405702 50.1433 0.000801687 51.5926C0.0421736 53.0406 1.94616 54.986 3.93279 55.3168C5.91952 55.6487 8.5688 54.614 8.5688 54.614L8.81683 57.0555H21.5236C21.5236 57.0555 20.6833 45.1608 20.1618 39.929Z"
        fill="#2C4BAF" />
    <g opacity="0.25">
        <path
            d="M20.1618 39.929C20.1168 39.4706 20.073 39.0634 20.0329 38.7193C19.5368 34.4565 12.1276 21.8325 12.1276 21.8325C12.1276 21.8325 11.933 21.976 11.5987 22.2264C11.5987 22.2264 11.5987 22.2264 11.5974 22.2276C9.54386 23.7644 2.22455 29.3147 1.90479 30.5245C1.53147 31.9313 -0.0405702 50.1433 0.000801687 51.5926C0.0421736 53.0406 1.94616 54.986 3.93279 55.3168C5.91952 55.6487 8.5688 54.614 8.5688 54.614L8.81683 57.0555H21.5236C21.5236 57.0555 20.6833 45.1608 20.1618 39.929Z"
            fill="white" />
    </g>
    <path
        d="M7.05335 32.8307C7.51839 33.5517 8.15 34.1337 8.39414 34.9813C8.65691 35.8934 8.65603 36.8994 8.5969 37.8394C8.53504 38.8233 8.36213 39.8016 8.19859 40.7728C8.03281 41.7573 7.84761 42.7385 7.6428 43.7157C7.41565 44.7997 7.1639 45.8784 6.88864 46.9511C6.81887 47.2231 7.23933 47.3391 7.3091 47.0671C7.81493 45.0957 8.23996 43.1038 8.58352 41.0978C8.91391 39.1685 9.30753 37.123 8.89157 35.1751C8.78706 34.6855 8.60041 34.2249 8.31959 33.8097C8.04042 33.3968 7.70018 33.0298 7.4298 32.6106C7.27836 32.3756 6.90064 32.594 7.05335 32.8307Z"
        fill="#2C4BAF" />
    <g opacity="0.25">
        <path
            d="M20.1627 39.929C17.4198 36.5976 12.717 32.7799 12.5844 31.8485C12.4191 30.6898 13.2775 28.7238 13.2775 28.7238C13.2775 28.7238 9.89382 28.2581 9.7698 26.7991C9.68832 25.8386 10.8179 23.6258 11.5985 22.2276C11.5997 22.2264 11.5997 22.2264 11.5997 22.2264C11.9341 21.976 12.1286 21.8325 12.1286 21.8325C12.1286 21.8325 19.5379 34.4565 20.0339 38.7193C20.0739 39.0634 20.1177 39.4707 20.1627 39.929Z"
            fill="white" />
    </g>
    <path
        d="M11.6472 40.0246L15.2017 38.8717C15.3937 38.8095 15.6011 38.9073 15.6751 39.0952C15.7514 39.2888 15.6587 39.5078 15.4667 39.5879L12.0372 41.0185C11.8462 41.0981 11.6265 41.0114 11.5416 40.8227L11.4166 40.545C11.3232 40.3374 11.4308 40.0947 11.6472 40.0246Z"
        fill="white" />
    <path
        d="M18.7676 43.5402C18.7676 43.5402 20.9647 41.1827 21.7511 40.4376C22.5376 39.6925 22.9515 39.6098 23.0136 40.0444C23.0756 40.479 21.9374 42.3208 21.9374 42.3208C21.9374 42.3208 23.6138 41.3067 23.9655 40.955C24.3174 40.6031 26.5317 38.2439 26.8628 38.3887C27.1939 38.5336 27.2354 39.4441 27.2354 39.4441C27.2354 39.4441 27.9597 39.2165 28.001 39.6511C28.0424 40.0857 27.6492 41.0483 27.6492 41.0483C27.6492 41.0483 28.0424 41.224 28.0838 41.6379C28.1251 42.0518 27.5664 42.9624 27.5664 42.9624C27.5664 42.9624 27.732 43.7074 27.3181 44.1834C26.9042 44.6594 24.3587 46.7289 23.862 46.8738C23.3653 47.0187 19.1216 48.1344 19.1216 48.1344L18.7676 43.5402Z"
        fill="#FFC4B6" />
    <path
        d="M27.024 39.2853C25.9774 40.757 24.5699 41.9485 22.9545 42.753C22.7033 42.8781 22.9239 43.2543 23.1747 43.1295C24.8586 42.2909 26.3109 41.0376 27.4006 39.5055C27.5634 39.2764 27.1855 39.0583 27.024 39.2853Z"
        fill="#F9674E" />
    <path
        d="M27.268 41.1956C26.4984 42.2801 25.6739 43.4184 24.4282 43.9854C24.3202 44.0346 24.296 44.1888 24.35 44.2837C24.413 44.3945 24.5417 44.4104 24.6483 44.3619C25.9605 43.7646 26.8342 42.5576 27.6444 41.4158C27.8072 41.1865 27.4293 40.9684 27.268 41.1956Z"
        fill="#F9674E" />
    <path
        d="M27.3973 42.9763C26.7933 43.6344 26.1563 44.2615 25.4888 44.855C25.4007 44.9333 25.4089 45.0835 25.4888 45.1634C25.5762 45.2508 25.7088 45.2418 25.7971 45.1634C26.4646 44.5698 27.1017 43.9428 27.7057 43.2846C27.8951 43.0783 27.5875 42.7691 27.3973 42.9763Z"
        fill="#F9674E" />
    <path
        d="M5.18407 49.304C5.41435 48.4001 6.1449 47.749 6.94433 47.3286C7.87657 46.8383 8.91905 46.5903 9.8989 46.2145C11.8428 45.4692 13.6868 44.4885 15.6335 43.7503C16.1376 43.5591 16.6482 43.3844 17.1665 43.2358C17.3949 43.1703 17.6247 43.1095 17.8561 43.055C18.0719 43.0042 18.327 42.9362 18.452 43.1716C18.529 43.3169 18.5475 43.4924 18.5612 43.6537C18.5874 43.9635 18.6091 44.2737 18.633 44.5837C18.6772 45.1559 18.7214 45.7283 18.7656 46.3006C18.8093 46.867 18.8577 47.4333 18.8966 48C18.9113 48.2146 18.9254 48.439 18.8732 48.6496C18.813 48.8928 18.6641 49.0241 18.449 49.1431C17.4589 49.6905 16.4518 50.21 15.4513 50.7383C13.1732 51.9415 10.8815 53.1201 8.55072 54.2184C8.29702 54.3379 8.51813 54.714 8.77075 54.5949C10.9625 53.5621 13.1199 52.4584 15.2636 51.3298C16.3304 50.7683 17.3941 50.2006 18.4575 49.6327C18.694 49.5064 18.9402 49.3893 19.1053 49.1701C19.2478 48.981 19.3082 48.7548 19.333 48.5224C19.3584 48.2829 19.336 48.042 19.3176 47.8029C19.2937 47.4929 19.2696 47.1829 19.2457 46.8729C19.1988 46.2648 19.1519 45.6567 19.1048 45.0486C19.0616 44.4895 19.0551 43.9132 18.9619 43.3599C18.8883 42.9224 18.6138 42.5417 18.1295 42.5677C17.8607 42.5821 17.5901 42.6684 17.3313 42.7374C17.0603 42.8097 16.7914 42.8896 16.5245 42.9755C14.4071 43.6571 12.4403 44.7126 10.387 45.5541C9.35854 45.9755 8.28092 46.2664 7.25892 46.7008C6.36464 47.0808 5.49816 47.6531 5.02219 48.5274C4.90881 48.7356 4.82197 48.9584 4.76352 49.188C4.69434 49.4601 5.11479 49.5762 5.18407 49.304Z"
        fill="#2C4BAF" />
    <path
        d="M32.1096 45.9112L39.316 31.4186C39.8201 30.4047 40.9893 29.911 42.0675 30.2567L53.4729 33.9141C54.7915 34.337 55.4367 35.8239 54.8447 37.0758L47.5715 52.4571C47.0535 53.5527 45.772 54.0554 44.6472 53.6045L33.3085 49.0585C32.0668 48.5606 31.5139 47.1092 32.1096 45.9112Z"
        fill="#2C4BAF" />
    <path
        d="M45.4987 52.1886C45.409 52.1886 45.3202 52.1712 45.2349 52.137L33.8963 47.5911C33.6448 47.4903 33.5378 47.2929 33.4964 47.1843C33.455 47.0757 33.4035 46.8572 33.5242 46.6148L40.7308 32.1221C40.8518 31.8785 41.0959 31.7273 41.3675 31.7273C41.4405 31.7273 41.5136 31.7389 41.5844 31.7616L52.9898 35.4192C53.2569 35.5047 53.377 35.7028 53.425 35.8131C53.4728 35.9235 53.5352 36.1465 53.4155 36.3999L46.1424 51.7812C46.0252 52.0286 45.7725 52.1886 45.4987 52.1886Z"
        fill="white" />
    <path
        d="M51.4825 33.0934L50.6436 35.4157L42.9121 32.6253L43.7498 30.303L45.8289 31.0532C46.049 30.4075 46.6606 29.9443 47.3804 29.9443C48.2862 29.9443 49.0205 30.6787 49.0205 31.5845C49.0205 31.79 48.9829 31.9857 48.9135 32.1669L51.4825 33.0934Z"
        fill="#8BC108" />
    <g opacity="0.34">
        <path
            d="M46.4017 41.2211C48.0522 40.4738 48.7844 38.53 48.037 36.8795C47.2897 35.2291 45.3459 34.4969 43.6954 35.2442C42.045 35.9916 41.3129 37.9354 42.0602 39.5859C42.8075 41.2363 44.7513 41.9685 46.4017 41.2211Z"
            fill="#2C4BAF" />
    </g>
    <g opacity="0.34">
        <path
            d="M45.9646 40.2548C47.0814 39.7491 47.5768 38.4339 47.0711 37.3171C46.5654 36.2003 45.2502 35.7049 44.1334 36.2106C43.0166 36.7163 42.5213 38.0315 43.0269 39.1483C43.5326 40.2651 44.8478 40.7605 45.9646 40.2548Z"
            fill="#2C4BAF" />
    </g>
    <g opacity="0.34">
        <path
            d="M46.4043 39.6018C47.1605 38.8457 47.1605 37.6197 46.4043 36.8635C45.6481 36.1074 44.4222 36.1074 43.666 36.8635C42.9099 37.6197 42.9099 38.8457 43.666 39.6018C44.4222 40.358 45.6481 40.358 46.4043 39.6018Z"
            fill="#2C4BAF" />
    </g>
    <path
        d="M45.6986 38.9024C45.8265 38.5627 45.7236 38.303 45.3262 37.946L45.313 37.9342L45.5754 37.2375C45.609 37.2517 45.6407 37.2672 45.6721 37.2851L45.6384 37.4611C45.5888 37.7082 45.6854 37.7989 45.8015 37.8426C45.8833 37.8734 45.9878 37.8601 46.053 37.7473C46.1469 37.4817 45.9751 37.2155 45.6426 37.0594L45.7601 36.7472L45.5484 36.6675L45.4299 36.9819C44.9928 36.8631 44.6557 37.0263 44.5353 37.3461C44.4029 37.6977 44.5482 37.9646 44.8757 38.265L44.9111 38.2974L44.6352 39.03C44.5615 38.9999 44.5013 38.9689 44.4473 38.933L44.4958 38.7286C44.5389 38.5421 44.4873 38.4529 44.3593 38.4047C44.2747 38.3728 44.1786 38.3874 44.0936 38.4833C43.9871 38.7775 44.1561 39.0421 44.5675 39.2097L44.4394 39.5497L44.6512 39.6294L44.7829 39.2797C45.2282 39.3863 45.5764 39.2268 45.6986 38.9024ZM45.0234 37.3951C45.0859 37.2294 45.2084 37.1668 45.3562 37.1778L45.1336 37.7686C45.0139 37.6453 44.969 37.5395 45.0234 37.3951ZM44.8562 39.085L45.0887 38.4678C45.2117 38.6019 45.2455 38.7085 45.1821 38.8767C45.1294 39.0166 45.0106 39.0911 44.8562 39.085Z"
        fill="white" />
    <path
        d="M38.64 40.6928C41.3518 41.6324 44.0635 42.5719 46.7753 43.5115C47.041 43.6035 47.1552 43.1825 46.8912 43.091C44.1794 42.1515 41.4677 41.2119 38.7559 40.2724C38.4902 40.1803 38.376 40.6013 38.64 40.6928Z"
        fill="#2C4BAF" />
    <path
        d="M38.5248 42.3823C39.4714 42.7102 40.4181 43.0383 41.3648 43.3662C41.6305 43.4582 41.7446 43.0372 41.4807 42.9458C40.534 42.6178 39.5873 42.2898 38.6407 41.9618C38.375 41.8697 38.2608 42.2908 38.5248 42.3823Z"
        fill="#2C4BAF" />
    <path
        d="M41.765 43.288C42.6262 43.5864 43.4873 43.8847 44.3485 44.1831C44.6142 44.2751 44.7283 43.8541 44.4644 43.7627C43.6032 43.4643 42.742 43.1659 41.8809 42.8676C41.6152 42.7754 41.501 43.1965 41.765 43.288Z"
        fill="#2C4BAF" />
    <path
        d="M39.0033 43.4931C39.7912 43.766 40.579 44.039 41.3669 44.312C41.6326 44.4041 41.7468 43.983 41.4829 43.8916C40.6949 43.6186 39.9071 43.3456 39.1192 43.0726C38.8535 42.9806 38.7393 43.4017 39.0033 43.4931Z"
        fill="#2C4BAF" />
    <path
        d="M42.4493 44.7412C42.9562 44.9169 43.4631 45.0925 43.9701 45.2681C44.0813 45.3067 44.2085 45.2241 44.2383 45.1158C44.2713 44.9959 44.1977 44.8863 44.086 44.8476C43.5791 44.6719 43.0722 44.4963 42.5652 44.3207C42.454 44.2821 42.3267 44.3647 42.297 44.473C42.2641 44.593 42.3376 44.7026 42.4493 44.7412Z"
        fill="#2C4BAF" />
    <path
        d="M40.3931 45.0551C40.7534 45.18 41.1137 45.3048 41.4741 45.4297C41.582 45.4671 41.7173 45.3871 41.7423 45.2774C41.7699 45.1559 41.7055 45.0492 41.59 45.0091C41.2297 44.8843 40.8693 44.7595 40.509 44.6346C40.4011 44.5972 40.2657 44.6772 40.2407 44.7869C40.2131 44.9083 40.2775 45.0151 40.3931 45.0551Z"
        fill="#2C4BAF" />
    <path
        d="M36.6322 47.0217C37.42 47.2947 38.2079 47.5676 38.9958 47.8406C39.2615 47.9326 39.3757 47.5116 39.1118 47.4202C38.3238 47.1473 37.536 46.8742 36.7481 46.6012C36.4824 46.5091 36.3682 46.9303 36.6322 47.0217Z"
        fill="#2C4BAF" />
    <path
        d="M43.3617 49.3273C43.7648 49.467 44.1679 49.6067 44.5711 49.7463C44.679 49.7837 44.8143 49.7038 44.8393 49.594C44.8669 49.4725 44.8025 49.3658 44.687 49.3258C44.2839 49.1861 43.8808 49.0464 43.4777 48.9068C43.3698 48.8694 43.2345 48.9493 43.2095 49.0591C43.1818 49.1806 43.2462 49.2873 43.3617 49.3273Z"
        fill="#2C4BAF" />
    <path
        d="M49.6808 19.6804C47.5103 27.0435 41.9015 28.9765 40.5385 29.3435C40.4397 29.3702 40.3384 29.3834 40.2371 29.3834C40.1357 29.3834 40.0344 29.3702 39.9353 29.3435C38.5722 28.9765 32.9634 27.0435 30.7933 19.6804C29.1167 13.9926 28.921 11.0938 28.9521 9.87737C28.9632 9.44492 29.1811 9.0473 29.5328 8.82015L39.5957 2.32358C39.7925 2.19644 40.0144 2.1333 40.2371 2.1333C40.459 2.1333 40.6816 2.19644 40.878 2.32358L50.941 8.82015C51.2927 9.0472 51.511 9.44482 51.5216 9.87737C51.5528 11.0938 51.3571 13.9925 49.6808 19.6804Z"
        fill="#2C4BAF" />
    <path
        d="M40.2387 3.95703V15.7827H31.4767C30.7165 12.5455 30.649 10.8254 30.6663 10.1444C30.6667 10.1224 30.6729 10.1069 30.6769 10.0997L40.1534 3.98152C40.1793 3.96503 40.2092 3.95703 40.2387 3.95703Z"
        fill="white" />
    <g opacity="0.87">
        <path
            d="M49.0018 15.7827H40.2402V3.95703C40.2701 3.95703 40.2996 3.96533 40.3251 3.98163L49.8017 10.0998C49.8056 10.107 49.8116 10.1221 49.812 10.1437C49.8291 10.8249 49.7616 12.5455 49.0018 15.7827Z"
            fill="white" />
    </g>
    <g opacity="0.87">
        <path
            d="M40.2425 15.7827V27.6085C40.2276 27.6085 40.2131 27.6065 40.1985 27.6024C39.575 27.4241 38.1611 26.9238 36.6518 25.7373C34.6367 24.1533 33.2029 21.9509 32.3896 19.191C32.0101 17.9042 31.7127 16.7725 31.4805 15.7828L40.2425 15.7827Z"
            fill="white" />
    </g>
    <g opacity="0.77">
        <path
            d="M48.998 15.7828C48.7655 16.7725 48.4681 17.9042 48.0889 19.191C47.2757 21.951 45.8413 24.1533 43.8267 25.7373C42.3165 26.9242 40.9019 27.4245 40.2796 27.6024C40.265 27.6062 40.2509 27.6085 40.2363 27.6085V15.7827H48.998V15.7828Z"
            fill="white" />
    </g>
    <path
        d="M39.69 19.054C39.3146 19.054 38.9575 18.8997 38.6758 18.6137L35.7499 15.6431C35.3413 15.2282 35.3075 14.5172 35.6747 14.0554C36.0418 13.5935 36.6708 13.5554 37.0795 13.9704L39.6525 16.5829L44.7692 9.98436C45.1313 9.51736 45.7598 9.47062 46.1729 9.87985C46.586 10.2891 46.6275 10.9994 46.2654 11.4664L40.8362 18.468C40.5661 18.8164 40.192 19.0234 39.783 19.051C39.752 19.0529 39.7209 19.054 39.69 19.054Z"
        fill="#8BC108" />
</svg>