<svg width="55" height="60" viewBox="0 0 55 60" fill="none" xmlns="http://www.w3.org/2000/svg">
    <path
        d="M4.67238 12.7481C2.98598 15.0166 2.38392 17.9355 2.93454 20.6957C3.11176 21.5843 3.34968 22.4728 3.22796 23.3858C3.21234 23.5029 3.33879 23.6015 3.44478 23.6026C3.57474 23.604 3.64629 23.5014 3.66163 23.3858C3.7649 22.6111 3.6159 21.8389 3.45701 21.0824C3.30734 20.3698 3.17991 19.6638 3.16041 18.934C3.12449 17.5837 3.37868 16.2286 3.89707 14.9813C4.19456 14.2655 4.58456 13.589 5.04685 12.9672C5.2136 12.743 4.83719 12.5264 4.67238 12.7481Z"
        fill="#2C4BAF" />
    <path
        d="M4.742 24.1935C4.89189 23.5587 4.4988 22.9226 3.86402 22.7727C3.22925 22.6228 2.59316 23.0159 2.44327 23.6507C2.29338 24.2855 2.68646 24.9216 3.32124 25.0715C3.95601 25.2213 4.59211 24.8283 4.742 24.1935Z"
        fill="#F9B44A" />
    <path
        d="M1.30965 17.5638C0.111162 17.2893 -0.398974 15.8643 0.352943 14.8914C3.25375 11.1389 9.4007 3.57241 12.028 3.26327C15.5276 2.85154 28.6021 6.27723 28.5149 8.0983C28.4278 9.91936 19.3701 18.8165 15.6647 19.5487C12.9799 20.0794 5.32343 18.4832 1.30965 17.5638Z"
        fill="#2C4BAF" />
    <path
        d="M11.9883 27.203C14.3495 27.203 16.2636 25.2888 16.2636 22.9276C16.2636 20.5663 14.3495 18.6521 11.9883 18.6521C9.62704 18.6521 7.71289 20.5663 7.71289 22.9276C7.71289 25.2888 9.62704 27.203 11.9883 27.203Z"
        fill="#F9674E" />
    <path
        d="M22.4413 16.6418C22.4413 16.6418 22.63 14.0252 21.1888 11.3743C19.7476 8.72332 16.7278 10.1818 16.7278 10.1818C16.7278 10.1818 14.4873 9.55825 11.2444 12.5695C8.00159 15.5807 8.49211 17.5426 9.90762 19.4472C11.3231 21.3517 13.8002 23.7388 13.8002 23.7388L22.4413 16.6418Z"
        fill="#F9674E" />
    <path
        d="M22.0569 13.579C22.0569 13.579 23.9442 17.7484 22.9234 20.3222C21.9025 22.896 20.2811 23.1018 20.2811 23.1018L20.8688 25.1944C20.8688 25.1944 23.8327 30.1543 19.509 29.6393C15.1852 29.1243 14.2747 26.1188 14.2747 26.1188L13.4094 21.7635C13.4094 21.7635 11.2991 21.3525 11.2476 19.8594C11.1961 18.3663 12.5087 17.7229 13.2035 18.0317C13.8984 18.3406 14.6165 19.0097 15.6214 18.392C16.6264 17.7743 17.836 16.7706 17.8618 14.866C17.8875 12.9615 16.8935 12.035 17.236 11.9835C17.5788 11.9318 20.6414 11.9061 22.0569 13.579Z"
        fill="#FFC4B6" />
    <path
        d="M20.2812 23.1021C20.2812 23.1021 19.7493 23.5139 17.7762 23.1879C15.8031 22.8619 15.5801 22.7246 15.5801 22.7246C15.5801 22.7246 16.9012 24.4919 18.5141 25.2469C20.1269 26.0018 21.2624 25.9569 21.2624 25.9569L20.2812 23.1021Z"
        fill="#F9674E" />
    <path
        d="M9.0639 17.8817C9.0639 17.8817 12.9081 15.814 16.1238 14.1918C19.3396 12.5696 22.1965 13.9142 22.1965 13.9142C22.1965 13.9142 22.2947 10.6266 21.5001 10.1325C20.7055 9.63848 17.6605 8.78471 12.8511 10.6061C8.04177 12.4274 8.07021 14.8624 8.18406 15.7366C8.29791 16.6109 9.0639 17.8817 9.0639 17.8817Z"
        fill="#2C4BAF" />
    <g opacity="0.39">
        <path
            d="M9.06585 17.8817C9.06585 17.8817 12.9101 15.814 16.1257 14.1918C19.3415 12.5696 22.1985 13.9142 22.1985 13.9142C22.1985 13.9142 22.2967 10.6266 21.502 10.1325C20.7074 9.63848 17.6625 8.78471 12.8531 10.6061C8.04372 12.4274 8.07216 14.8624 8.18601 15.7366C8.29987 16.6109 9.06585 17.8817 9.06585 17.8817Z"
            fill="#FFC4B6" />
    </g>
    <path
        d="M12.5963 19.4106C12.6766 19.3919 12.7809 19.3675 12.8422 19.3619C12.9376 19.3532 13.0068 19.3528 13.0849 19.3762C13.0859 19.3765 13.152 19.4035 13.1155 19.3861C13.1311 19.3935 13.1463 19.4017 13.1612 19.4104C13.176 19.4192 13.1905 19.4286 13.2046 19.4384C13.1729 19.4164 13.223 19.4542 13.2253 19.4562C13.2539 19.482 13.28 19.5101 13.3045 19.5396C13.3182 19.556 13.2954 19.5245 13.3156 19.5548C13.3274 19.5726 13.3396 19.5902 13.3507 19.6084C13.3696 19.639 13.3867 19.6706 13.4027 19.7027C13.4124 19.722 13.4216 19.7415 13.4301 19.7613C13.415 19.7263 13.4401 19.7883 13.4404 19.7891C13.4727 19.8757 13.498 19.9651 13.5188 20.0552C13.5627 20.244 13.5801 20.4018 13.5962 20.5931C13.6057 20.7059 13.6892 20.8156 13.8131 20.81C13.9224 20.8051 14.0402 20.7142 14.0299 20.5931C13.9941 20.1699 13.9415 19.6936 13.69 19.3358C13.5676 19.1616 13.4074 19.0201 13.2001 18.9578C12.9642 18.887 12.7142 18.9378 12.481 18.9923C12.3668 19.0189 12.2993 19.1493 12.3295 19.2591C12.3617 19.376 12.4818 19.4373 12.5963 19.4106Z"
        fill="#F9674E" />
    <path
        d="M13.1329 20.3641C13.133 20.3478 13.134 20.3317 13.1358 20.3155C13.1332 20.3347 13.1306 20.3539 13.128 20.3731C13.1331 20.3377 13.1425 20.3039 13.156 20.2708C13.1487 20.288 13.1414 20.3053 13.1341 20.3226C13.1511 20.2833 13.1729 20.2471 13.1987 20.213C13.1874 20.2277 13.1761 20.2423 13.1648 20.2569C13.1957 20.2177 13.2308 20.1829 13.27 20.152C13.2554 20.1633 13.2407 20.1747 13.2262 20.1859C13.2848 20.1412 13.3497 20.1066 13.4174 20.0776C13.4001 20.0849 13.3828 20.0922 13.3655 20.0994C13.449 20.0646 13.5355 20.0383 13.6222 20.0125C13.7308 19.9801 13.8103 19.8588 13.7737 19.7456C13.7381 19.6358 13.6233 19.5595 13.5069 19.5941C13.4239 19.6189 13.341 19.6441 13.2606 19.6768C13.1502 19.7219 13.0528 19.7736 12.9595 19.8483C12.8046 19.9722 12.7004 20.1643 12.6992 20.3641C12.6985 20.4776 12.7995 20.5862 12.9162 20.581C13.0341 20.5757 13.1321 20.4857 13.1329 20.3641Z"
        fill="#F9674E" />
    <path
        d="M21.0231 20.8715C21.0231 20.8715 19.2512 21.4876 18.5882 20.473C17.9252 19.4584 19.1141 19.2048 19.9029 19.0961C20.6916 18.9874 21.4347 18.166 21.8119 18.7699C22.1892 19.3738 21.9148 20.485 21.0231 20.8715Z"
        fill="white" />
    <path
        d="M13.1055 25.2053L13.8172 24.693C13.8172 24.693 17.3176 27.6527 19.4803 27.2258C21.6431 26.799 20.4195 23.7824 20.4195 23.7824L21.0737 23.4409C21.0737 23.4409 31.3947 39.2069 25.3996 40.7626C19.4044 42.3183 13.1055 25.2053 13.1055 25.2053Z"
        fill="#F9674E" />
    <path
        d="M40.1699 6.47949C40.1699 6.47949 36.2712 0.901651 34.9621 0.218628C33.653 -0.464394 33.4253 0.560086 32.7139 1.81228C32.0024 3.06447 30.4373 4.1174 30.2665 5.25573C30.0958 6.39407 31.6894 7.36167 33.0554 7.73158C34.4215 8.10157 37.6087 8.44304 38.064 9.04065C38.5193 9.63826 43.4425 16.2976 44.6093 16.7814C45.776 17.2653 49.4186 15.2731 49.4186 13.3094C49.4186 11.3458 45.9467 9.95128 43.9263 8.86992C41.9058 7.78865 40.1699 6.47949 40.1699 6.47949Z"
        fill="#F9B44A" />
    <path
        d="M32.8229 2.11095C33.88 4.40422 35.7409 6.18394 37.746 7.6618C39.8535 9.21508 42.1704 10.4533 44.3026 11.9704C45.516 12.8336 46.6634 13.7941 47.6423 14.9202C47.8257 15.1313 48.1314 14.8234 47.949 14.6134C46.2115 12.6147 43.967 11.1639 41.7409 9.77095C39.5916 8.42606 37.4053 7.08943 35.6077 5.27884C34.6241 4.28813 33.7834 3.1632 33.1974 1.89198C33.0807 1.63875 32.7067 1.85888 32.8229 2.11095Z"
        fill="#F9674E" />
    <path
        d="M36.875 8.6708C36.875 8.6708 39.0594 5.31286 39.8563 5.59744C40.6531 5.88203 40.9377 6.66153 42.0475 7.12558C43.1573 7.58953 45.1209 8.55715 44.751 9.4109C44.381 10.2647 42.3321 13.0536 41.5068 13.0821C40.6815 13.1105 36.875 8.6708 36.875 8.6708Z"
        fill="#F9674E" />
    <path
        d="M34.4707 12.2647C34.4707 12.2647 34.9912 8.79458 35.4126 8.22453C35.8339 7.65439 38.1638 6.68776 38.2134 7.13395C38.263 7.58015 36.875 8.67073 36.875 8.67073L41.386 12.9588L37.5193 15.3135L34.4707 12.2647Z"
        fill="#FFC4B6" />
    <path
        d="M36.1063 20.6105L28.6429 29.4174L35.5873 57.1364C35.5873 57.1364 30.1798 59.3558 22.4966 59.8677C14.812 60.3795 10.658 59.2416 10.658 59.2416V50.8801L3.94783 49.2217C3.94783 49.2217 3.15554 45.2961 3.94783 42.28C4.73867 39.2639 5.70596 32.3772 6.56047 30.8966C7.02315 30.0928 8.91717 28.4806 10.5496 27.1778C14.6934 30.8547 25.6181 40.4235 26.0548 39.5488C26.516 38.6249 24.6711 27.1475 22.8826 21.6242L30.1364 14.3355L33.5949 10.8625L39.3999 16.7242L36.1063 20.6105Z"
        fill="#2C4BAF" />
    <path
        d="M26.054 39.5486C25.6174 40.4233 14.6926 30.8545 10.5488 27.1776C11.9195 26.083 13.1036 25.2054 13.1036 25.2054L24.4332 36.1898L21.0731 23.44L22.8818 21.624C24.6703 27.1473 26.5152 38.6246 26.054 39.5486Z"
        fill="#F9B44A" />
    <g opacity="0.35">
        <path
            d="M27.6094 22.3315C27.6576 24.7258 27.8912 27.1139 28.3039 29.4728C28.3519 29.7473 28.77 29.6309 28.7221 29.3575C28.3161 27.0366 28.0906 24.6872 28.0432 22.3315C28.0376 22.0527 27.6038 22.0518 27.6094 22.3315Z"
            fill="#F9B44A" />
        <path
            d="M30.294 50.5298C28.07 52.2656 25.6538 53.7559 23.1077 54.9706C22.3867 55.3146 21.6551 55.6358 20.9141 55.9342C20.6584 56.0372 20.7701 56.4569 21.0294 56.3524C23.7022 55.2762 26.2564 53.9149 28.6314 52.2826C29.3027 51.8211 29.9585 51.3378 30.6007 50.8365C30.8204 50.6649 30.5116 50.36 30.294 50.5298Z"
            fill="#F9B44A" />
        <path
            d="M17.2034 56.9543C17.6611 56.9765 18.1164 56.9514 18.5701 56.8897C18.6829 56.8743 18.7544 56.724 18.7216 56.6228C18.6815 56.4988 18.5758 56.4549 18.4548 56.4713C18.4773 56.4683 18.416 56.4762 18.4104 56.4769C18.3806 56.4805 18.3508 56.4839 18.3209 56.4872C18.2697 56.4929 18.2185 56.4979 18.1672 56.5024C18.0605 56.5118 17.9534 56.5187 17.8464 56.5232C17.6321 56.532 17.4176 56.5307 17.2033 56.5204C17.0899 56.5149 16.9814 56.6241 16.9865 56.7373C16.992 56.8597 17.0818 56.9485 17.2034 56.9543Z"
            fill="#F9B44A" />
        <path
            d="M8.78388 31.1416C9.45436 31.6437 9.86531 32.4053 10.2074 33.1516C10.622 34.0558 10.9929 34.9819 11.3499 35.9101C11.4491 36.168 11.8686 36.056 11.7682 35.7948C11.391 34.814 10.9995 33.834 10.5578 32.8802C10.1847 32.0744 9.72371 31.3069 9.00285 30.7671C8.77933 30.5996 8.56278 30.9761 8.78388 31.1416Z"
            fill="#F9B44A" />
    </g>
    <path
        d="M39.3983 16.724L36.1046 20.6108C34.1852 17.9736 31.7254 15.6897 30.1348 14.3355L33.5923 10.8623L39.3983 16.724Z"
        fill="#F9B44A" />
    <path
        d="M12.4795 52.8123L9.00046 36.4249C8.87845 35.8504 9.23525 35.283 9.80586 35.144L23.0698 31.9132C23.6824 31.7641 24.2928 32.1661 24.3977 32.7878L27.2222 49.5225C27.318 50.0901 26.9545 50.6338 26.3934 50.7621L13.784 53.6457C13.1928 53.7808 12.6054 53.4057 12.4795 52.8123Z"
        fill="#FFC4B6" />
    <path opacity="0.66"
        d="M12.4795 52.8123L9.00046 36.4249C8.87845 35.8504 9.23525 35.283 9.80586 35.144L23.0698 31.9132C23.6824 31.7641 24.2928 32.1661 24.3977 32.7878L27.2222 49.5225C27.318 50.0901 26.9545 50.6338 26.3934 50.7621L13.784 53.6457C13.1928 53.7808 12.6054 53.4057 12.4795 52.8123Z"
        fill="#F9674E" />
    <path
        d="M18.203 43.734C18.203 43.734 20.7835 42.4081 21.6744 42.0183C22.5653 41.6284 22.9319 41.6884 22.8389 42.0806C22.7459 42.4729 21.2038 43.6917 21.2038 43.6917C21.2038 43.6917 22.9129 43.3527 23.3175 43.1624C23.7222 42.9721 26.3173 41.6503 26.5408 41.8792C26.7641 42.1082 26.4967 42.9018 26.4967 42.9018C26.4967 42.9018 27.1654 42.9359 27.0555 43.3216C26.9456 43.7072 26.3049 44.408 26.3049 44.408C26.3049 44.408 26.5689 44.683 26.4658 45.0508C26.3627 45.4187 25.6035 46.0225 25.6035 46.0225C25.6035 46.0225 25.4926 46.7136 24.996 46.9906C24.4993 47.2677 21.7288 48.2364 21.2738 48.2035C20.8189 48.1705 16.9727 47.7844 16.9727 47.7844L18.203 43.734Z"
        fill="#FFC4B6" />
    <path
        d="M26.3861 42.6657C25.0612 43.5815 23.5271 44.1825 21.9236 44.3635C21.6495 44.3945 21.6462 44.8286 21.9236 44.7973C23.6042 44.6076 25.2136 44.0021 26.605 43.0403C26.8331 42.8826 26.6165 42.5064 26.3861 42.6657Z"
        fill="#F9674E" />
    <path
        d="M25.9544 44.3804C24.9849 45.0526 23.9373 45.7909 22.7238 45.8861C22.4474 45.9079 22.4451 46.3418 22.7238 46.3199C24.0252 46.2178 25.1303 45.4782 26.1733 44.755C26.4011 44.597 26.1845 44.2209 25.9544 44.3804Z"
        fill="#F9674E" />
    <path
        d="M25.4241 45.9736C24.7295 46.337 24.018 46.6669 23.2903 46.9583C23.1816 47.0018 23.1053 47.1031 23.1388 47.2252C23.1672 47.3284 23.2963 47.4204 23.4056 47.3767C24.1681 47.0712 24.9151 46.729 25.643 46.3481C25.8904 46.2187 25.6714 45.8442 25.4241 45.9736Z"
        fill="#F9674E" />
    <path
        d="M19.6776 50.5517C19.6776 50.5517 17.3603 50.9073 14.5816 51.2205C11.143 51.6073 6.99892 51.9283 5.6759 51.4245C3.28514 50.5139 2.94408 45.1258 5.37269 44.2151C6.73356 43.7045 10.8844 43.4449 14.2694 43.3144C16.9244 43.213 19.1079 43.1907 19.1079 43.1907L19.6776 50.5517Z"
        fill="#2C4BAF" />
    <path
        d="M19.6776 50.5517C19.6776 50.5517 17.3603 50.9073 14.5816 51.2205L14.2695 43.3144C16.9245 43.213 19.108 43.1907 19.108 43.1907L19.6776 50.5517Z"
        fill="#F9B44A" />
    <g opacity="0.35">
        <path
            d="M4.28586 45.785C4.62314 44.5207 6.01167 44.089 7.15804 43.911C8.60684 43.686 10.0813 43.6787 11.5439 43.6652C11.8229 43.6627 11.8236 43.2289 11.5439 43.2315C10.3153 43.2428 9.08369 43.2541 7.86074 43.3861C6.77572 43.5031 5.61818 43.6681 4.74028 44.3714C4.32506 44.7041 4.00554 45.1531 3.86772 45.6697C3.79551 45.9398 4.21384 46.055 4.28586 45.785Z"
            fill="#F9B44A" />
    </g>
    <g opacity="0.35">
        <path
            d="M4.2365 50.1961C4.47585 51.268 5.6261 51.6097 6.58106 51.7044C7.79139 51.8244 9.01549 51.8553 10.2311 51.8327C10.9338 51.8196 11.6359 51.7842 12.3366 51.7284C12.613 51.7063 12.6153 51.2724 12.3366 51.2946C10.8757 51.4109 9.40847 51.4358 7.94463 51.365C7.26143 51.3319 6.53864 51.3272 5.8735 51.1518C5.32463 51.0071 4.78603 50.669 4.65471 50.0808C4.59395 49.8085 4.17564 49.9237 4.2365 50.1961Z"
            fill="#F9B44A" />
    </g>
    <path
        d="M51.0849 26.9872C53.066 25.7629 53.6795 23.1644 52.4553 21.1832C51.2311 19.2021 48.6326 18.5885 46.6515 19.8128C44.6705 21.0371 44.0569 23.6356 45.2811 25.6167C46.5054 27.5979 49.1038 28.2115 51.0849 26.9872Z"
        fill="#F9B44A" />
    <path
        d="M51.6835 23.8421C51.9359 22.2867 50.8797 20.8211 49.3242 20.5686C47.7688 20.3162 46.3033 21.3725 46.0508 22.928C45.7984 24.4834 46.8547 25.949 48.4101 26.2015C49.9655 26.4539 51.4311 25.3976 51.6835 23.8421Z"
        fill="#F9674E" />
    <path
        d="M50.9352 24.7554C51.6899 23.6065 51.3703 22.0633 50.2214 21.3086C49.0725 20.5539 47.5293 20.8735 46.7747 22.0224C46.02 23.1714 46.3396 24.7146 47.4885 25.4693C48.6374 26.224 50.1806 25.9043 50.9352 24.7554Z"
        fill="#F9B44A" />
    <path
        d="M49.9585 23.8929C49.9585 23.4262 49.717 23.1605 49.0772 22.911L49.056 22.9027V21.9458C49.1027 21.9477 49.1479 21.9519 49.1939 21.9593L49.2329 22.1862C49.2853 22.506 49.4425 22.5712 49.6019 22.5712C49.7142 22.5712 49.8339 22.5078 49.8613 22.3426C49.8539 21.9805 49.5266 21.7382 49.056 21.7011V21.2722H48.7651V21.704C48.1856 21.7593 47.8539 22.1083 47.8539 22.5475C47.8539 23.0305 48.1497 23.2856 48.6797 23.4986L48.7371 23.5215V24.5279C48.6349 24.525 48.5484 24.515 48.467 24.4963L48.4329 24.2284C48.4002 23.9847 48.2977 23.9007 48.1219 23.9007C48.0057 23.9007 47.8967 23.9619 47.8379 24.1156C47.843 24.5181 48.1663 24.7596 48.737 24.7748V25.2417H49.0277V24.7614C49.6119 24.6881 49.9585 24.3385 49.9585 23.8929ZM48.4633 22.3855C48.4633 22.1579 48.5823 22.027 48.7651 21.9734V22.785C48.5652 22.6909 48.4633 22.5839 48.4633 22.3855ZM49.0278 24.4942V23.6463C49.2365 23.752 49.3255 23.8649 49.3255 24.096C49.3255 24.2881 49.2163 24.4316 49.0278 24.4942Z"
        fill="white" />
    <path
        d="M42.3848 24.599C43.4196 23.5641 43.4196 21.8863 42.3848 20.8515C41.35 19.8166 39.6722 19.8167 38.6374 20.8515C37.6026 21.8864 37.6025 23.5642 38.6373 24.5991C39.6721 25.6339 41.3499 25.6339 42.3848 24.599Z"
        fill="#F9B44A" />
    <path
        d="M40.5137 24.5177C41.5039 24.5177 42.3067 23.7149 42.3067 22.7247C42.3067 21.7344 41.5039 20.9316 40.5137 20.9316C39.5235 20.9316 38.7207 21.7344 38.7207 22.7247C38.7207 23.7149 39.5235 24.5177 40.5137 24.5177Z"
        fill="#F9674E" />
    <path
        d="M40.5133 24.2887C41.3772 24.2887 42.0774 23.5884 42.0774 22.7245C42.0774 21.8607 41.3772 21.1604 40.5133 21.1604C39.6495 21.1604 38.9492 21.8607 38.9492 22.7245C38.9492 23.5884 39.6495 24.2887 40.5133 24.2887Z"
        fill="#F9B44A" />
    <path
        d="M41.2057 23.0428C41.2057 22.7496 41.054 22.5826 40.6518 22.4258L40.6385 22.4207V21.8193C40.6679 21.8205 40.6962 21.8232 40.7251 21.8277L40.7497 21.9703C40.7826 22.1712 40.8814 22.2123 40.9816 22.2123C41.0521 22.2123 41.1274 22.1725 41.1445 22.0686C41.1399 21.8411 40.9342 21.6888 40.6385 21.6655V21.396H40.4557V21.6674C40.0915 21.7021 39.883 21.9214 39.883 22.1974C39.883 22.501 40.0689 22.6613 40.402 22.7951L40.438 22.8095V23.4419C40.3738 23.4401 40.3194 23.4338 40.2684 23.4221L40.2469 23.2538C40.2264 23.1006 40.162 23.0479 40.0515 23.0479C39.9786 23.0479 39.91 23.0863 39.873 23.1829C39.8762 23.4357 40.0794 23.5877 40.438 23.5972V23.8906H40.6208V23.5887C40.988 23.5426 41.2057 23.3229 41.2057 23.0428ZM40.2661 22.0956C40.2661 21.9526 40.341 21.8703 40.4558 21.8367V22.3467C40.3302 22.2875 40.2661 22.2202 40.2661 22.0956ZM40.6209 23.4207V22.8879C40.752 22.9543 40.8079 23.0253 40.8079 23.1705C40.808 23.2912 40.7393 23.3814 40.6209 23.4207Z"
        fill="white" />
    <path
        d="M52.5594 44.0366C50.4004 51.361 44.8213 53.2838 43.4654 53.6488C43.3672 53.6754 43.2664 53.6885 43.1656 53.6885C43.0648 53.6885 42.964 53.6754 42.8654 53.6488C41.5096 53.2838 35.9305 51.361 33.7719 44.0366C32.1041 38.3787 31.9095 35.4953 31.9404 34.2852C31.9514 33.855 32.168 33.4595 32.5179 33.2337L42.5277 26.7713C42.7234 26.6448 42.9441 26.582 43.1656 26.582C43.3863 26.582 43.6078 26.6448 43.8032 26.7713L53.8129 33.2337C54.1628 33.4595 54.3798 33.855 54.3905 34.2852C54.4215 35.4953 54.2269 38.3788 52.5594 44.0366Z"
        fill="#2C4BAF" />
    <path
        d="M43.1666 28.3962V40.1596H34.451C33.6948 36.9395 33.6276 35.2284 33.6448 34.551C33.6452 34.5292 33.6514 34.5137 33.6553 34.5066L43.0817 28.4206C43.1076 28.4041 43.1373 28.3962 43.1666 28.3962Z"
        fill="white" />
    <g opacity="0.87">
        <path
            d="M51.8832 40.1596H43.168V28.3962C43.1977 28.3962 43.227 28.4045 43.2524 28.4207L52.6789 34.5067C52.6828 34.5138 52.6887 34.5289 52.6891 34.5503C52.7062 35.228 52.639 36.9395 51.8832 40.1596Z"
            fill="white" />
    </g>
    <g opacity="0.87">
        <path
            d="M43.163 40.1597V51.9231C43.1481 51.9231 43.1337 51.9213 43.1192 51.9171C42.499 51.7398 41.0926 51.2421 39.5912 50.0618C37.5868 48.4862 36.1606 46.2954 35.3516 43.55C34.9741 42.27 34.6783 41.1443 34.4473 40.1598L43.163 40.1597Z"
            fill="white" />
    </g>
    <g opacity="0.77">
        <path
            d="M51.8832 40.1598C51.6519 41.1443 51.3561 42.27 50.9789 43.55C50.17 46.2954 48.7433 48.4862 46.7394 50.0618C45.2372 51.2424 43.83 51.7402 43.211 51.9171C43.1965 51.9209 43.1824 51.9231 43.168 51.9231V40.1597L51.8832 40.1598Z"
            fill="white" />
    </g>
    <path
        d="M42.6205 43.4137C42.2471 43.4137 41.8919 43.2603 41.6117 42.9758L38.7013 40.0207C38.2948 39.608 38.2612 38.9009 38.6265 38.4414C38.9917 37.9819 39.6173 37.944 40.0238 38.3568L42.5832 40.9555L47.6728 34.3918C48.033 33.9272 48.6582 33.8807 49.0691 34.2878C49.4801 34.6949 49.5213 35.4015 49.1611 35.866L43.7607 42.8308C43.492 43.1773 43.1199 43.3833 42.713 43.4106C42.6821 43.4127 42.6512 43.4137 42.6205 43.4137Z"
        fill="#2C4BAF" />
</svg>