<svg width="61" height="60" viewBox="0 0 61 60" fill="none" xmlns="http://www.w3.org/2000/svg">
    <path
        d="M30.7847 26.0548C27.5618 36.988 19.2331 39.8582 17.2092 40.4031C17.0625 40.4429 16.9121 40.4624 16.7616 40.4624C16.6111 40.4624 16.4606 40.4428 16.3134 40.4031C14.2894 39.8583 5.96074 36.988 2.73842 26.0548C0.248711 17.6092 -0.0418574 13.305 0.00426513 11.4987C0.0207158 10.8566 0.344287 10.2662 0.866571 9.92902L15.8092 0.282485C16.1013 0.0937629 16.4308 0 16.7616 0C17.0911 0 17.4217 0.0937629 17.7134 0.282485L32.656 9.92902C33.1783 10.2662 33.5024 10.8566 33.5183 11.4987C33.5644 13.3049 33.2738 17.6092 30.7847 26.0548Z"
        fill="#2C4BAF" />
    <path
        d="M16.7624 2.70825V20.2677H3.75171C2.62287 15.4609 2.52256 12.9067 2.54819 11.8957C2.5488 11.8631 2.55809 11.8401 2.56394 11.8294L16.6358 2.74478C16.6743 2.72005 16.7186 2.70825 16.7624 2.70825Z"
        fill="white" />
    <g opacity="0.87">
        <path
            d="M29.7739 20.2677H16.7637V2.70825C16.808 2.70825 16.8518 2.72056 16.8897 2.74478L30.9616 11.8294C30.9675 11.8401 30.9763 11.8626 30.9768 11.8946C31.0024 12.9061 30.9021 15.461 29.7739 20.2677Z"
            fill="white" />
    </g>
    <g opacity="0.87">
        <path
            d="M16.7645 20.2676V37.827C16.7423 37.827 16.7208 37.8242 16.6992 37.8181C15.7734 37.5533 13.6739 36.8103 11.4326 35.0486C8.44054 32.6966 6.31133 29.4264 5.10377 25.3284C4.54021 23.4175 4.09866 21.7372 3.75391 20.2676H16.7645Z"
            fill="white" />
    </g>
    <g opacity="0.77">
        <path
            d="M29.7738 20.2676C29.4284 21.7372 28.9869 23.4175 28.4239 25.3284C27.2163 29.4264 25.0865 32.6966 22.095 35.0486C19.8526 36.8109 17.7519 37.5539 16.8279 37.8181C16.8063 37.8237 16.7853 37.827 16.7637 37.827V20.2676H29.7738Z"
            fill="white" />
    </g>
    <path
        d="M15.9481 25.1251C15.3907 25.1251 14.8605 24.896 14.4421 24.4714L10.0974 20.0603C9.49057 19.4442 9.44052 18.3886 9.98571 17.7028C10.5309 17.0169 11.4649 16.9603 12.0717 17.5766L15.8925 21.4558L23.4903 11.658C24.0279 10.9646 24.9612 10.8951 25.5748 11.5028C26.1883 12.1104 26.2498 13.1652 25.7121 13.8586L17.6502 24.255C17.2492 24.7722 16.6938 25.0796 16.0863 25.1206C16.0401 25.1235 15.994 25.1251 15.9481 25.1251Z"
        fill="#8BC108" />
    <path
        d="M50.5699 52.1291V55.0946C50.5699 57.5128 44.626 59.4743 37.2957 59.4743C29.964 59.4743 24.0215 57.5128 24.0215 55.0946V52.1291H27.5269C29.9527 51.2584 33.4317 50.7136 37.2957 50.7136C41.1597 50.7136 44.6387 51.2584 47.0645 52.1291H50.5699Z"
        fill="#F9B44A" />
    <path
        d="M50.5699 52.1291V54.7158C50.5699 55.1423 50.3849 55.555 50.0389 55.9451C49.9395 56.0583 49.8263 56.169 49.6992 56.2784C49.4463 56.4973 49.1406 56.7074 48.7883 56.9076C48.6801 56.9704 48.5668 57.0309 48.4486 57.0912C48.168 57.2346 47.8635 57.3718 47.5364 57.5027C47.4257 57.5468 47.3137 57.5895 47.1979 57.6309C46.9085 57.7391 46.604 57.8411 46.2857 57.9367C46.1736 57.972 46.0617 58.0047 45.9459 58.0374C45.6527 58.1204 45.3496 58.1997 45.035 58.2727C44.9231 58.3004 44.8097 58.3268 44.6953 58.3519C44.3996 58.4173 44.0951 58.479 43.783 58.5369C43.671 58.5583 43.5591 58.5784 43.4445 58.5973C43.1476 58.6488 42.8431 58.6967 42.5324 58.7407C42.4203 58.757 42.3071 58.7722 42.1927 58.7872C41.8945 58.8262 41.59 58.8627 41.2817 58.8942C41.1697 58.9055 41.0552 58.9168 40.942 58.9281C40.6426 58.9557 40.3381 58.981 40.0298 59.0024C39.9179 59.0099 39.8046 59.0175 39.6913 59.025C39.3907 59.0426 39.0861 59.0577 38.7792 59.0678C38.6659 59.0728 38.5527 59.0766 38.4395 59.0791C38.1388 59.0879 37.8355 59.0929 37.5285 59.0942C37.4517 59.0954 37.3738 59.0954 37.2957 59.0954H37.1888C36.8818 59.0942 36.5773 59.0904 36.2767 59.0828C36.1634 59.0803 36.0502 59.0765 35.9382 59.0727C35.6311 59.0626 35.3267 59.0488 35.026 59.0312C34.9128 59.0249 34.7995 59.0186 34.6875 59.011C34.3793 58.991 34.0748 58.9671 33.7753 58.9394C33.6621 58.9293 33.5489 58.918 33.4356 58.9067C33.1274 58.8765 32.8229 58.8413 32.5247 58.8036C32.4101 58.7897 32.2969 58.7746 32.185 58.7583C31.8742 58.7155 31.5697 58.6689 31.2728 58.6199C31.1583 58.5997 31.0463 58.5808 30.9343 58.5607C30.6223 58.5041 30.3178 58.4438 30.0221 58.3796C29.9076 58.3544 29.7944 58.3292 29.6823 58.3029C29.3678 58.2311 29.0646 58.1544 28.7714 58.0727C28.6556 58.0412 28.5424 58.0085 28.4317 57.9746C28.1134 57.8814 27.8089 57.7821 27.5194 57.6777C27.4037 57.6361 27.2916 57.5946 27.1809 57.5518C26.855 57.4248 26.5493 57.2927 26.2687 57.1542C26.1517 57.0964 26.0385 57.0384 25.929 56.9793C25.6459 56.8246 25.3904 56.6635 25.1665 56.4974C25.0445 56.4069 24.9312 56.3149 24.8268 56.2219C24.3059 55.7513 24.0215 55.2443 24.0215 54.7158V52.1291H27.5269C27.8138 52.0259 28.1157 51.9277 28.4316 51.8347C28.4392 51.8321 28.4466 51.8296 28.4555 51.8271C30.8033 51.1339 33.9011 50.7136 37.2957 50.7136C40.6904 50.7136 43.7881 51.1339 46.136 51.8271C46.1863 51.8421 46.2366 51.8573 46.2858 51.8723C46.5562 51.9541 46.8155 52.0396 47.0646 52.129L50.5699 52.1291Z"
        fill="#F9674E" />
    <g opacity="0.61">
        <path
            d="M50.5699 52.1291V54.7158C50.5699 55.1423 50.3849 55.555 50.0389 55.9451C49.9395 56.0583 49.8263 56.169 49.6992 56.2784C49.4463 56.4973 49.1406 56.7074 48.7883 56.9076C48.6801 56.9704 48.5668 57.0309 48.4486 57.0912C48.168 57.2346 47.8635 57.3718 47.5364 57.5027C47.4257 57.5468 47.3137 57.5895 47.1979 57.6309C46.9085 57.7391 46.604 57.8411 46.2857 57.9367C46.1736 57.972 46.0617 58.0047 45.9459 58.0374C45.6527 58.1204 45.3496 58.1997 45.035 58.2727C44.9231 58.3004 44.8097 58.3268 44.6953 58.3519C44.3996 58.4173 44.0951 58.479 43.783 58.5369C43.671 58.5583 43.5591 58.5784 43.4445 58.5973C43.1476 58.6488 42.8431 58.6967 42.5324 58.7407C42.4203 58.757 42.3071 58.7722 42.1927 58.7872C41.8945 58.8262 41.59 58.8627 41.2817 58.8942C41.1697 58.9055 41.0552 58.9168 40.942 58.9281C40.6426 58.9557 40.3381 58.981 40.0298 59.0024C39.9179 59.0099 39.8046 59.0175 39.6913 59.025C39.3907 59.0426 39.0861 59.0577 38.7792 59.0678C38.6659 59.0728 38.5527 59.0766 38.4395 59.0791C38.1388 59.0879 37.8355 59.0929 37.5285 59.0942C37.4517 59.0954 37.3738 59.0954 37.2957 59.0954H37.1888C36.8818 59.0942 36.5773 59.0904 36.2767 59.0828C36.1634 59.0803 36.0502 59.0765 35.9382 59.0727C35.6311 59.0626 35.3267 59.0488 35.026 59.0312C34.9128 59.0249 34.7995 59.0186 34.6875 59.011C34.3793 58.991 34.0748 58.9671 33.7753 58.9394C33.6621 58.9293 33.5489 58.918 33.4356 58.9067C33.1274 58.8765 32.8229 58.8413 32.5247 58.8036C32.4101 58.7897 32.2969 58.7746 32.185 58.7583C31.8742 58.7155 31.5697 58.6689 31.2728 58.6199C31.1583 58.5997 31.0463 58.5808 30.9343 58.5607C30.6223 58.5041 30.3178 58.4438 30.0221 58.3796C29.9076 58.3544 29.7944 58.3292 29.6823 58.3029C29.3678 58.2311 29.0646 58.1544 28.7714 58.0727C28.6556 58.0412 28.5424 58.0085 28.4317 57.9746C28.1134 57.8814 27.8089 57.7821 27.5194 57.6777C27.4037 57.6361 27.2916 57.5946 27.1809 57.5518C26.855 57.4248 26.5493 57.2927 26.2687 57.1542C26.1517 57.0964 26.0385 57.0384 25.929 56.9793C25.6459 56.8246 25.3904 56.6635 25.1665 56.4974C25.0445 56.4069 24.9312 56.3149 24.8268 56.2219C24.3059 55.7513 24.0215 55.2443 24.0215 54.7158V52.1291H27.5269C27.8138 52.0259 28.1157 51.9277 28.4316 51.8347C28.4392 51.8321 28.4466 51.8296 28.4555 51.8271C30.8033 51.1339 33.9011 50.7136 37.2957 50.7136C40.6904 50.7136 43.7881 51.1339 46.136 51.8271C46.1863 51.8421 46.2366 51.8573 46.2858 51.8723C46.5562 51.9541 46.8155 52.0396 47.0646 52.129L50.5699 52.1291Z"
            fill="#F9B44A" />
    </g>
    <path
        d="M25.1678 50.7134V56.4972C25.0458 56.4066 24.9326 56.3147 24.8281 56.2217V50.7134H25.1678Z"
        fill="#F9674E" />
    <path
        d="M26.2713 51.8269V57.154C26.1544 57.0962 26.0411 57.0383 25.9316 56.9791V51.8269H26.2713Z"
        fill="#F9674E" />
    <path
        d="M27.5201 51.8269V57.6774C27.4044 57.6358 27.2924 57.5944 27.1816 57.5516V51.8269H27.5201Z"
        fill="#F9674E" />
    <path
        d="M28.7713 51.8269V58.0724C28.6556 58.0409 28.5424 58.0082 28.4316 57.9743V51.8269H28.7713Z"
        fill="#F9674E" />
    <path
        d="M30.0233 51.8269V58.3794C29.9089 58.3543 29.7956 58.329 29.6836 58.3027V51.8269H30.0233Z"
        fill="#F9674E" />
    <path
        d="M31.274 51.8269V58.6198C31.1595 58.5996 31.0476 58.5808 30.9355 58.5607V51.8269H31.274Z"
        fill="#F9674E" />
    <path
        d="M32.5253 51.8269V58.8035C32.4107 58.7897 32.2975 58.7745 32.1855 58.7582V51.8269H32.5253Z"
        fill="#F9674E" />
    <path
        d="M33.7772 51.8269V58.9393C33.664 58.9292 33.5507 58.9179 33.4375 58.9066V51.8269H33.7772Z"
        fill="#F9674E" />
    <path
        d="M35.026 51.827V59.0313C34.9128 59.0249 34.7995 59.0186 34.6875 59.0111V51.8269L35.026 51.827Z"
        fill="#F9674E" />
    <path
        d="M36.278 51.827V59.0828C36.1647 59.0803 36.0515 59.0765 35.9395 59.0727V51.8269L36.278 51.827Z"
        fill="#F9674E" />
    <path
        d="M37.5311 51.8269V59.0941C37.4543 59.0953 37.3764 59.0953 37.2983 59.0953H37.1914V51.8269H37.5311Z"
        fill="#F9674E" />
    <path
        d="M38.7811 51.8269V59.0677C38.6679 59.0727 38.5546 59.0765 38.4414 59.079V51.8269H38.7811Z"
        fill="#F9674E" />
    <path
        d="M40.0299 51.8269V59.0023C39.918 59.0099 39.8046 59.0174 39.6914 59.0249V51.8269H40.0299Z"
        fill="#F9674E" />
    <path
        d="M41.2831 51.8269V58.8941C41.171 58.9054 41.0566 58.9167 40.9434 58.928V51.8269H41.2831Z"
        fill="#F9674E" />
    <path
        d="M42.5331 51.8269V58.7406C42.4211 58.757 42.3078 58.7721 42.1934 58.7871V51.8269H42.5331Z"
        fill="#F9674E" />
    <path
        d="M43.7858 51.8269V58.5367C43.6737 58.5581 43.5618 58.5782 43.4473 58.5971V51.8269H43.7858Z"
        fill="#F9674E" />
    <path d="M45.037 51.8269V58.2725C44.925 58.3002 44.8117 58.3266 44.6973 58.3518V51.8269H45.037Z"
        fill="#F9674E" />
    <path d="M46.287 51.8269V57.9366C46.1749 57.9718 46.063 58.0045 45.9473 58.0372V51.8269H46.287Z"
        fill="#F9674E" />
    <path
        d="M47.5377 51.827V57.5026C47.427 57.5467 47.315 57.5894 47.1992 57.6309V51.8269L47.5377 51.827Z"
        fill="#F9674E" />
    <path
        d="M48.7909 51.8269V56.9074C48.6827 56.9702 48.5695 57.0307 48.4512 57.0911V51.8269H48.7909Z"
        fill="#F9674E" />
    <path
        d="M50.0389 51.827V55.945C49.9395 56.0582 49.8263 56.1689 49.6992 56.2783V51.8269L50.0389 51.827Z"
        fill="#F9674E" />
    <path
        d="M37.2972 56.51C44.6282 56.51 50.571 54.5488 50.571 52.1295C50.571 49.7102 44.6282 47.749 37.2972 47.749C29.9663 47.749 24.0234 49.7102 24.0234 52.1295C24.0234 54.5488 29.9663 56.51 37.2972 56.51Z"
        fill="#F9B44A" />
    <path
        d="M47.9039 47.2733V50.2389C47.9039 52.6571 41.96 54.6186 34.6297 54.6186C27.298 54.6186 21.3555 52.6571 21.3555 50.2389V47.2733H24.8609C27.2867 46.4027 30.7657 45.8579 34.6297 45.8579C38.4937 45.8579 41.9727 46.4027 44.3985 47.2733H47.9039Z"
        fill="#F9B44A" />
    <path
        d="M47.9021 47.2735V49.8603C47.9021 50.2868 47.7171 50.6995 47.3712 51.0896C47.2717 51.2028 47.1585 51.3135 47.0315 51.4229C46.7785 51.6418 46.4728 51.8519 46.1205 52.052C46.0123 52.1149 45.8991 52.1754 45.7808 52.2357C45.5002 52.3791 45.1957 52.5163 44.8685 52.6472C44.7578 52.6912 44.6458 52.734 44.53 52.7754C44.2407 52.8837 43.9361 52.9856 43.6179 53.0812C43.5059 53.1164 43.3939 53.1492 43.2782 53.1819C42.985 53.2649 42.6818 53.3441 42.3672 53.4172C42.2553 53.4449 42.142 53.4713 42.0275 53.4964C41.7318 53.5618 41.4273 53.6235 41.1153 53.6814C41.0032 53.7028 40.8913 53.7229 40.7768 53.7418C40.4798 53.7933 40.1753 53.8412 39.8646 53.8852C39.7526 53.9015 39.6393 53.9167 39.5249 53.9317C39.2268 53.9706 38.9223 54.0072 38.6139 54.0387C38.5019 54.05 38.3875 54.0613 38.2742 54.0726C37.9748 54.1002 37.6703 54.1255 37.362 54.1469C37.25 54.1544 37.1367 54.162 37.0235 54.1695C36.7228 54.1871 36.4182 54.2022 36.1113 54.2123C35.9981 54.2173 35.8848 54.221 35.7716 54.2236C35.4709 54.2323 35.1677 54.2374 34.8607 54.2387C34.7838 54.2399 34.7059 54.2399 34.6278 54.2399H34.5209C34.2139 54.2387 33.9094 54.2349 33.6087 54.2273C33.4954 54.2248 33.3822 54.221 33.2702 54.2172C32.9632 54.2071 32.6587 54.1933 32.3579 54.1757C32.2447 54.1694 32.1315 54.1631 32.0194 54.1555C31.7112 54.1355 31.4067 54.1115 31.1072 54.0838C30.9939 54.0738 30.8807 54.0624 30.7675 54.0511C30.4592 54.0209 30.1547 53.9857 29.8565 53.948C29.742 53.9341 29.6287 53.919 29.5168 53.9026C29.2061 53.8598 28.9015 53.8133 28.6045 53.7643C28.49 53.7441 28.3781 53.7252 28.266 53.7051C27.954 53.6485 27.6495 53.5882 27.3539 53.524C27.2394 53.4988 27.1262 53.4736 27.0142 53.4473C26.6996 53.3755 26.3964 53.2988 26.1032 53.217C25.9875 53.1855 25.8742 53.1528 25.7635 53.1189C25.4452 53.0257 25.1407 52.9264 24.8514 52.822C24.7356 52.7804 24.6236 52.7389 24.5129 52.6961C24.187 52.5691 23.8812 52.437 23.6007 52.2985C23.4837 52.2407 23.3704 52.1827 23.261 52.1236C22.9779 51.9689 22.7225 51.8078 22.4985 51.6417C22.3765 51.5512 22.2633 51.4592 22.1588 51.3662C21.6379 50.8956 21.3535 50.3886 21.3535 49.8601V47.2733H24.8589C25.1458 47.1702 25.4477 47.072 25.7636 46.9789C25.7712 46.9764 25.7787 46.9739 25.7875 46.9714C28.1353 46.2781 31.2331 45.8579 34.6278 45.8579C38.0225 45.8579 41.1202 46.2781 43.4681 46.9714C43.5185 46.9864 43.5687 47.0015 43.6179 47.0167C43.8884 47.0984 44.1476 47.184 44.3967 47.2733H47.9021V47.2735Z"
        fill="#F9674E" />
    <g opacity="0.61">
        <path
            d="M47.9021 47.2735V49.8603C47.9021 50.2868 47.7171 50.6995 47.3712 51.0896C47.2717 51.2028 47.1585 51.3135 47.0315 51.4229C46.7785 51.6418 46.4728 51.8519 46.1205 52.052C46.0123 52.1149 45.8991 52.1754 45.7808 52.2357C45.5002 52.3791 45.1957 52.5163 44.8685 52.6472C44.7578 52.6912 44.6458 52.734 44.53 52.7754C44.2407 52.8837 43.9361 52.9856 43.6179 53.0812C43.5059 53.1164 43.3939 53.1492 43.2782 53.1819C42.985 53.2649 42.6818 53.3441 42.3672 53.4172C42.2553 53.4449 42.142 53.4713 42.0275 53.4964C41.7318 53.5618 41.4273 53.6235 41.1153 53.6814C41.0032 53.7028 40.8913 53.7229 40.7768 53.7418C40.4798 53.7933 40.1753 53.8412 39.8646 53.8852C39.7526 53.9015 39.6393 53.9167 39.5249 53.9317C39.2268 53.9706 38.9223 54.0072 38.6139 54.0387C38.5019 54.05 38.3875 54.0613 38.2742 54.0726C37.9748 54.1002 37.6703 54.1255 37.362 54.1469C37.25 54.1544 37.1367 54.162 37.0235 54.1695C36.7228 54.1871 36.4182 54.2022 36.1113 54.2123C35.9981 54.2173 35.8848 54.221 35.7716 54.2236C35.4709 54.2323 35.1677 54.2374 34.8607 54.2387C34.7838 54.2399 34.7059 54.2399 34.6278 54.2399H34.5209C34.2139 54.2387 33.9094 54.2349 33.6087 54.2273C33.4954 54.2248 33.3822 54.221 33.2702 54.2172C32.9632 54.2071 32.6587 54.1933 32.3579 54.1757C32.2447 54.1694 32.1315 54.1631 32.0194 54.1555C31.7112 54.1355 31.4067 54.1115 31.1072 54.0838C30.9939 54.0738 30.8807 54.0624 30.7675 54.0511C30.4592 54.0209 30.1547 53.9857 29.8565 53.948C29.742 53.9341 29.6287 53.919 29.5168 53.9026C29.2061 53.8598 28.9015 53.8133 28.6045 53.7643C28.49 53.7441 28.3781 53.7252 28.266 53.7051C27.954 53.6485 27.6495 53.5882 27.3539 53.524C27.2394 53.4988 27.1262 53.4736 27.0142 53.4473C26.6996 53.3755 26.3964 53.2988 26.1032 53.217C25.9875 53.1855 25.8742 53.1528 25.7635 53.1189C25.4452 53.0257 25.1407 52.9264 24.8514 52.822C24.7356 52.7804 24.6236 52.7389 24.5129 52.6961C24.187 52.5691 23.8812 52.437 23.6007 52.2985C23.4837 52.2407 23.3704 52.1827 23.261 52.1236C22.9779 51.9689 22.7225 51.8078 22.4985 51.6417C22.3765 51.5512 22.2633 51.4592 22.1588 51.3662C21.6379 50.8956 21.3535 50.3886 21.3535 49.8601V47.2733H24.8589C25.1458 47.1702 25.4477 47.072 25.7636 46.9789C25.7712 46.9764 25.7787 46.9739 25.7875 46.9714C28.1353 46.2781 31.2331 45.8579 34.6278 45.8579C38.0225 45.8579 41.1202 46.2781 43.4681 46.9714C43.5185 46.9864 43.5687 47.0015 43.6179 47.0167C43.8884 47.0984 44.1476 47.184 44.3967 47.2733H47.9021V47.2735Z"
            fill="#F9B44A" />
    </g>
    <path
        d="M22.4979 45.8579V51.6417C22.3759 51.5512 22.2627 51.4592 22.1582 51.3662V45.8579H22.4979Z"
        fill="#F9674E" />
    <path
        d="M23.5995 46.9712V52.2983C23.4825 52.2405 23.3692 52.1826 23.2598 52.1234V46.9712H23.5995Z"
        fill="#F9674E" />
    <path
        d="M24.8502 46.9712V52.8217C24.7345 52.7801 24.6224 52.7386 24.5117 52.6958V46.9712H24.8502Z"
        fill="#F9674E" />
    <path
        d="M26.1034 46.9712V53.2167C25.9876 53.1852 25.8744 53.1525 25.7637 53.1186V46.9712H26.1034Z"
        fill="#F9674E" />
    <path
        d="M27.3514 46.9712V53.5237C27.237 53.4986 27.1237 53.4734 27.0117 53.447V46.9712H27.3514Z"
        fill="#F9674E" />
    <path
        d="M28.6041 46.9712V53.7641C28.4896 53.7439 28.3777 53.725 28.2656 53.705V46.9712H28.6041Z"
        fill="#F9674E" />
    <path
        d="M29.8553 46.9712V53.9478C29.7408 53.9339 29.6276 53.9188 29.5156 53.9025V46.9712H29.8553Z"
        fill="#F9674E" />
    <path
        d="M31.1053 46.9712V54.0836C30.9921 54.0736 30.8789 54.0622 30.7656 54.0509V46.9712H31.1053Z"
        fill="#F9674E" />
    <path
        d="M32.3561 46.9713V54.1755C32.2428 54.1692 32.1296 54.1629 32.0176 54.1554V46.9712L32.3561 46.9713Z"
        fill="#F9674E" />
    <path
        d="M33.608 46.9713V54.2271C33.4948 54.2246 33.3816 54.2209 33.2695 54.217V46.9712L33.608 46.9713Z"
        fill="#F9674E" />
    <path
        d="M34.8573 46.9712V54.2384C34.7805 54.2396 34.7026 54.2396 34.6245 54.2396H34.5176V46.9712H34.8573Z"
        fill="#F9674E" />
    <path d="M36.1093 46.9712V54.212C35.996 54.217 35.8828 54.2208 35.7695 54.2233V46.9712H36.1093Z"
        fill="#F9674E" />
    <path d="M37.36 46.9712V54.1466C37.2481 54.1542 37.1347 54.1617 37.0215 54.1692V46.9712H37.36Z"
        fill="#F9674E" />
    <path
        d="M38.6132 46.9712V54.0384C38.5011 54.0497 38.3867 54.061 38.2734 54.0723V46.9712H38.6132Z"
        fill="#F9674E" />
    <path
        d="M39.8631 46.9712V53.8849C39.7511 53.9012 39.6379 53.9164 39.5234 53.9314V46.9712H39.8631Z"
        fill="#F9674E" />
    <path
        d="M41.1139 46.9712V53.681C41.0019 53.7024 40.8899 53.7225 40.7754 53.7414V46.9712H41.1139Z"
        fill="#F9674E" />
    <path
        d="M42.3651 46.9712V53.4168C42.2532 53.4445 42.1398 53.4709 42.0254 53.496V46.9712H42.3651Z"
        fill="#F9674E" />
    <path
        d="M43.6171 46.9712V53.0809C43.505 53.1161 43.3931 53.1488 43.2773 53.1815V46.9712H43.6171Z"
        fill="#F9674E" />
    <path
        d="M44.8678 46.9713V52.6469C44.7571 52.6909 44.6451 52.7337 44.5293 52.7752V46.9712L44.8678 46.9713Z"
        fill="#F9674E" />
    <path d="M46.119 46.9712V52.0517C46.0108 52.1145 45.8976 52.175 45.7793 52.2353V46.9712H46.119Z"
        fill="#F9674E" />
    <path
        d="M47.371 46.9713V51.0893C47.2715 51.2025 47.1583 51.3132 47.0312 51.4226V46.9712L47.371 46.9713Z"
        fill="#F9674E" />
    <path
        d="M34.6293 51.654C41.9602 51.654 47.9031 49.6928 47.9031 47.2735C47.9031 44.8543 41.9602 42.8931 34.6293 42.8931C27.2983 42.8931 21.3555 44.8543 21.3555 47.2735C21.3555 49.6928 27.2983 51.654 34.6293 51.654Z"
        fill="#F9B44A" />
    <path
        d="M40.2222 42.265V45.2306C40.2222 47.6488 34.2784 49.6103 26.948 49.6103C19.6164 49.6103 13.6738 47.6488 13.6738 45.2306V42.265H17.1792C19.6051 41.3944 23.084 40.8496 26.948 40.8496C30.812 40.8496 34.291 41.3944 36.7168 42.265H40.2222Z"
        fill="#F9B44A" />
    <path
        d="M40.2223 42.2652V44.852C40.2223 45.2785 40.0374 45.6912 39.6914 46.0812C39.592 46.1944 39.4787 46.3052 39.3517 46.4147C39.0987 46.6336 38.793 46.8437 38.4407 47.0437C38.3325 47.1066 38.2193 47.167 38.101 47.2274C37.8204 47.3708 37.516 47.5079 37.1888 47.6388C37.078 47.6829 36.966 47.7256 36.8503 47.7672C36.5609 47.8754 36.2563 47.9773 35.938 48.0729C35.826 48.1081 35.714 48.1408 35.5983 48.1735C35.3051 48.2566 35.0019 48.3358 34.6873 48.4089C34.5754 48.4365 34.4621 48.4629 34.3476 48.4881C34.0519 48.5535 33.7474 48.6151 33.4355 48.6731C33.3234 48.6945 33.2115 48.7145 33.097 48.7334C32.8 48.785 32.4956 48.8328 32.1848 48.8768C32.0728 48.8932 31.9596 48.9083 31.8451 48.9233C31.547 48.9623 31.2425 48.9988 30.9342 49.0303C30.8221 49.0416 30.7077 49.0529 30.5944 49.0643C30.295 49.092 29.9905 49.1171 29.6822 49.1386C29.5703 49.1462 29.4569 49.1536 29.3438 49.1612C29.043 49.1789 28.7385 49.1939 28.4315 49.204C28.3183 49.209 28.205 49.2128 28.0918 49.2153C27.7912 49.2241 27.4879 49.2291 27.1809 49.2304C27.1041 49.2316 27.0261 49.2317 26.948 49.2317H26.8412C26.5341 49.2305 26.2297 49.2266 25.9289 49.2191C25.8157 49.2165 25.7024 49.2127 25.5904 49.209C25.2834 49.199 24.9789 49.185 24.6782 49.1675C24.565 49.1611 24.4518 49.1549 24.3397 49.1473C24.0315 49.1272 23.727 49.1033 23.4275 49.0756C23.3142 49.0655 23.201 49.0542 23.0878 49.0429C22.7796 49.0128 22.4751 48.9775 22.1768 48.9398C22.0623 48.926 21.949 48.9108 21.8371 48.8945C21.5264 48.8517 21.2219 48.8052 20.925 48.7561C20.8104 48.736 20.6985 48.7171 20.5865 48.697C20.2744 48.6404 19.9699 48.58 19.6743 48.5158C19.5599 48.4906 19.4466 48.4655 19.3346 48.4391C19.02 48.3674 18.7168 48.2907 18.4237 48.2089C18.3079 48.1774 18.1946 48.1447 18.0839 48.1108C17.7656 48.0177 17.4611 47.9184 17.1717 47.8139C17.0559 47.7724 16.9439 47.7309 16.8332 47.6881C16.5073 47.561 16.2016 47.4289 15.921 47.2904C15.8041 47.2326 15.6908 47.1747 15.5813 47.1156C15.2982 46.9608 15.0428 46.7998 14.8188 46.6336C14.6968 46.5431 14.5835 46.4512 14.4791 46.3581C13.9582 45.8875 13.6738 45.3805 13.6738 44.8521V42.2653H17.1792C17.4662 42.1621 17.768 42.0639 18.0839 41.9709C18.0915 41.9684 18.099 41.9659 18.1079 41.9633C20.4558 41.2701 23.5534 40.8499 26.9481 40.8499C30.3428 40.8499 33.4405 41.2701 35.7884 41.9633C35.8388 41.9784 35.889 41.9935 35.9382 42.0085C36.2087 42.0904 36.4679 42.1759 36.717 42.2652H40.2223Z"
        fill="#F9674E" />
    <g opacity="0.61">
        <path
            d="M40.2204 42.2649V44.8517C40.2204 45.2782 40.0354 45.6909 39.6894 46.081C39.59 46.1942 39.4768 46.3049 39.3497 46.4144C39.0968 46.6333 38.7911 46.8434 38.4388 47.0434C38.3306 47.1063 38.2173 47.1668 38.0991 47.2271C37.8185 47.3705 37.514 47.5077 37.1868 47.6386C37.0761 47.6827 36.9641 47.7254 36.8483 47.7669C36.559 47.8751 36.2544 47.9771 35.936 48.0726C35.824 48.1079 35.7121 48.1406 35.5963 48.1733C35.3031 48.2563 35 48.3355 34.6854 48.4086C34.5735 48.4363 34.4601 48.4627 34.3457 48.4878C34.05 48.5532 33.7455 48.6149 33.4335 48.6728C33.3215 48.6942 33.2096 48.7143 33.095 48.7332C32.7981 48.7847 32.4936 48.8326 32.1829 48.8766C32.0708 48.8929 31.9576 48.9081 31.8432 48.9231C31.545 48.9621 31.2405 48.9986 30.9322 49.0301C30.8202 49.0414 30.7057 49.0527 30.5925 49.0641C30.293 49.0917 29.9886 49.1169 29.6802 49.1384C29.5683 49.1459 29.455 49.1534 29.3418 49.161C29.0411 49.1786 28.7366 49.1937 28.4296 49.2038C28.3163 49.2088 28.2031 49.2125 28.0899 49.2151C27.7892 49.2238 27.4859 49.2289 27.1789 49.2302C27.1021 49.2314 27.0242 49.2314 26.9461 49.2314H26.8392C26.5322 49.2302 26.2277 49.2264 25.927 49.2188C25.8137 49.2163 25.7005 49.2124 25.5885 49.2087C25.2814 49.1987 24.9769 49.1848 24.6763 49.1672C24.563 49.1609 24.4498 49.1546 24.3378 49.147C24.0296 49.127 23.7251 49.103 23.4255 49.0754C23.3123 49.0653 23.1991 49.054 23.0858 49.0427C22.7776 49.0125 22.4731 48.9773 22.1749 48.9396C22.0603 48.9257 21.9471 48.9106 21.8352 48.8942C21.5244 48.8515 21.2199 48.8049 20.923 48.7559C20.8085 48.7358 20.6965 48.7168 20.5845 48.6967C20.2724 48.6401 19.968 48.5798 19.6724 48.5156C19.5579 48.4904 19.4447 48.4652 19.3326 48.4389C19.0181 48.3671 18.7149 48.2904 18.4217 48.2087C18.3059 48.1772 18.1927 48.1445 18.082 48.1106C17.7637 48.0174 17.4592 47.9181 17.1697 47.8137C17.054 47.7722 16.9419 47.7306 16.8312 47.6878C16.5053 47.5608 16.1996 47.4287 15.9191 47.2902C15.8021 47.2324 15.6889 47.1745 15.5794 47.1153C15.2963 46.9606 15.0408 46.7995 14.8169 46.6334C14.6949 46.5429 14.5815 46.4509 14.4772 46.3579C13.9563 45.8873 13.6719 45.3803 13.6719 44.8518V42.265H17.1773C17.4642 42.1619 17.7661 42.0637 18.082 41.9707C18.0895 41.9681 18.097 41.9656 18.1059 41.9631C20.4538 41.2699 23.5515 40.8496 26.9462 40.8496C30.3409 40.8496 33.4386 41.2699 35.7865 41.9631C35.8368 41.9781 35.8871 41.9933 35.9362 42.0083C36.2067 42.0902 36.466 42.1756 36.7151 42.2649H40.2204Z"
            fill="#F9B44A" />
    </g>
    <path
        d="M14.8221 40.8494V46.6332C14.7001 46.5426 14.5868 46.4507 14.4824 46.3576V40.8494H14.8221Z"
        fill="#F9674E" />
    <path d="M15.9237 41.9629V47.29C15.8067 47.2322 15.6935 47.1743 15.584 47.1151V41.9629H15.9237Z"
        fill="#F9674E" />
    <path
        d="M17.1725 41.9629V47.8134C17.0567 47.7719 16.9447 47.7303 16.834 47.6875V41.9629H17.1725Z"
        fill="#F9674E" />
    <path
        d="M18.4257 41.9629V48.2084C18.3099 48.1769 18.1967 48.1442 18.0859 48.1103V41.9629H18.4257Z"
        fill="#F9674E" />
    <path
        d="M19.6756 41.9629V48.5154C19.5612 48.4902 19.448 48.4651 19.3359 48.4387V41.9629H19.6756Z"
        fill="#F9674E" />
    <path
        d="M20.9283 41.9629V48.7558C20.8138 48.7357 20.7019 48.7167 20.5898 48.6967V41.9629H20.9283Z"
        fill="#F9674E" />
    <path
        d="M22.1796 41.9629V48.9395C22.065 48.9256 21.9518 48.9105 21.8398 48.8942V41.9629H22.1796Z"
        fill="#F9674E" />
    <path
        d="M23.4276 41.9629V49.0753C23.3144 49.0652 23.2011 49.0539 23.0879 49.0426V41.9629H23.4276Z"
        fill="#F9674E" />
    <path
        d="M24.6803 41.963V49.1672C24.5671 49.1609 24.4538 49.1546 24.3418 49.1471V41.9629L24.6803 41.963Z"
        fill="#F9674E" />
    <path
        d="M25.9303 41.963V49.2188C25.8171 49.2163 25.7038 49.2125 25.5918 49.2087V41.9629L25.9303 41.963Z"
        fill="#F9674E" />
    <path
        d="M27.1815 41.9629V49.2301C27.1047 49.2313 27.0268 49.2313 26.9487 49.2313H26.8418V41.9629H27.1815Z"
        fill="#F9674E" />
    <path
        d="M28.4335 41.9629V49.2037C28.3202 49.2087 28.207 49.2125 28.0938 49.215V41.9629H28.4335Z"
        fill="#F9674E" />
    <path
        d="M29.6841 41.9629V49.1383C29.5722 49.1459 29.4588 49.1533 29.3457 49.1609V41.9629H29.6841Z"
        fill="#F9674E" />
    <path d="M30.9354 41.9629V49.03C30.8234 49.0413 30.7089 49.0526 30.5957 49.064V41.9629H30.9354Z"
        fill="#F9674E" />
    <path
        d="M32.1854 41.9629V48.8766C32.0734 48.8929 31.9602 48.9081 31.8457 48.9231V41.9629H32.1854Z"
        fill="#F9674E" />
    <path
        d="M33.4381 41.9629V48.6727C33.3261 48.6941 33.2142 48.7142 33.0996 48.7331V41.9629H33.4381Z"
        fill="#F9674E" />
    <path
        d="M34.6893 41.9629V48.4085C34.5774 48.4362 34.4641 48.4626 34.3496 48.4877V41.9629H34.6893Z"
        fill="#F9674E" />
    <path
        d="M35.9393 41.9629V48.0726C35.8273 48.1078 35.7154 48.1405 35.5996 48.1732V41.9629H35.9393Z"
        fill="#F9674E" />
    <path
        d="M37.1901 41.9629V47.6385C37.0793 47.6826 36.9673 47.7253 36.8516 47.7669V41.9629H37.1901Z"
        fill="#F9674E" />
    <path
        d="M38.4413 41.9629V47.0434C38.3331 47.1062 38.2198 47.1667 38.1016 47.227V41.9629H38.4413Z"
        fill="#F9674E" />
    <path
        d="M39.6932 41.9629V46.0809C39.5938 46.1941 39.4806 46.3048 39.3535 46.4143V41.9629H39.6932Z"
        fill="#F9674E" />
    <path
        d="M26.9457 46.646C34.2766 46.646 40.2195 44.6848 40.2195 42.2655C40.2195 39.8462 34.2766 37.885 26.9457 37.885C19.6148 37.885 13.6719 39.8462 13.6719 42.2655C13.6719 44.6848 19.6148 46.646 26.9457 46.646Z"
        fill="#F9B44A" />
    <path
        d="M47.6656 37.0892V40.0548C47.6656 42.473 41.7217 44.4345 34.3914 44.4345C27.0597 44.4345 21.1172 42.473 21.1172 40.0548V37.0892H24.6226C27.0484 36.2186 30.5274 35.6738 34.3914 35.6738C38.2554 35.6738 41.7344 36.2186 44.1602 37.0892H47.6656Z"
        fill="#F9B44A" />
    <path
        d="M47.6658 37.0892V39.6761C47.6658 40.1025 47.4808 40.5152 47.1348 40.9053C47.0354 41.0185 46.9222 41.1292 46.7951 41.2387C46.5422 41.4576 46.2365 41.6677 45.8842 41.8678C45.776 41.9306 45.6628 41.9911 45.5445 42.0514C45.2639 42.1948 44.9594 42.332 44.6322 42.4629C44.5215 42.507 44.4095 42.5497 44.2938 42.5913C44.0045 42.6994 43.6999 42.8014 43.3816 42.897C43.2695 42.9323 43.1576 42.965 43.0418 42.9977C42.7487 43.0807 42.4455 43.16 42.1309 43.2329C42.019 43.2606 41.9056 43.287 41.7912 43.3121C41.4955 43.3775 41.191 43.4392 40.8789 43.4971C40.7669 43.5185 40.655 43.5386 40.5404 43.5575C40.2435 43.609 39.939 43.6569 39.6283 43.7009C39.5162 43.7172 39.403 43.7324 39.2886 43.7474C38.9904 43.7864 38.6859 43.8229 38.3776 43.8544C38.2656 43.8657 38.1511 43.877 38.0379 43.8884C37.7385 43.916 37.434 43.9412 37.1256 43.9626C37.0137 43.9702 36.9004 43.9777 36.7871 43.9853C36.4865 44.0028 36.1819 44.018 35.8749 44.0281C35.7617 44.0331 35.6484 44.0369 35.5352 44.0394C35.2345 44.0482 34.9312 44.0532 34.6242 44.0545C34.5474 44.0557 34.4695 44.0557 34.3914 44.0557H34.2845C33.9775 44.0545 33.673 44.0507 33.3723 44.0431C33.259 44.0406 33.1458 44.0368 33.0338 44.033C32.7268 44.0229 32.4223 44.0091 32.1215 43.9915C32.0083 43.9853 31.895 43.9789 31.783 43.9714C31.4748 43.9513 31.1703 43.9274 30.8707 43.8997C30.7575 43.8896 30.6443 43.8783 30.531 43.867C30.2228 43.8368 29.9183 43.8016 29.6201 43.7639C29.5055 43.75 29.3923 43.7349 29.2804 43.7186C28.9696 43.6758 28.665 43.6292 28.3682 43.5802C28.2537 43.5601 28.1417 43.5412 28.0297 43.5211C27.7177 43.4644 27.4132 43.404 27.1176 43.3399C27.0031 43.3148 26.8899 43.2895 26.7778 43.2632C26.4633 43.1914 26.1601 43.1147 25.8669 43.0329C25.7511 43.0014 25.6379 42.9687 25.5272 42.9348C25.2089 42.8416 24.9044 42.7423 24.615 42.6379C24.4993 42.5964 24.3873 42.5548 24.2765 42.512C23.9507 42.385 23.6449 42.2529 23.3644 42.1144C23.2474 42.0566 23.1341 41.9986 23.0247 41.9395C22.7416 41.7848 22.4861 41.6237 22.2622 41.4576C22.1402 41.367 22.0269 41.2752 21.9225 41.1821C21.4016 40.7115 21.1172 40.2045 21.1172 39.6761V37.0892H24.6226C24.9094 36.9861 25.2114 36.8879 25.5273 36.7948C25.5349 36.7923 25.5423 36.7898 25.5512 36.7873C27.899 36.0941 30.9968 35.6738 34.3915 35.6738C37.7862 35.6738 40.8839 36.0941 43.2318 36.7873C43.2821 36.8023 43.3324 36.8175 43.3816 36.8326C43.652 36.9144 43.9113 36.9999 44.1604 37.0892H47.6658Z"
        fill="#F9674E" />
    <g opacity="0.61">
        <path
            d="M47.6658 37.0892V39.6761C47.6658 40.1025 47.4808 40.5152 47.1348 40.9053C47.0354 41.0185 46.9222 41.1292 46.7951 41.2387C46.5422 41.4576 46.2365 41.6677 45.8842 41.8678C45.776 41.9306 45.6628 41.9911 45.5445 42.0514C45.2639 42.1948 44.9594 42.332 44.6322 42.4629C44.5215 42.507 44.4095 42.5497 44.2938 42.5913C44.0045 42.6994 43.6999 42.8014 43.3816 42.897C43.2695 42.9323 43.1576 42.965 43.0418 42.9977C42.7487 43.0807 42.4455 43.16 42.1309 43.2329C42.019 43.2606 41.9056 43.287 41.7912 43.3121C41.4955 43.3775 41.191 43.4392 40.8789 43.4971C40.7669 43.5185 40.655 43.5386 40.5404 43.5575C40.2435 43.609 39.939 43.6569 39.6283 43.7009C39.5162 43.7172 39.403 43.7324 39.2886 43.7474C38.9904 43.7864 38.6859 43.8229 38.3776 43.8544C38.2656 43.8657 38.1511 43.877 38.0379 43.8884C37.7385 43.916 37.434 43.9412 37.1256 43.9626C37.0137 43.9702 36.9004 43.9777 36.7871 43.9853C36.4865 44.0028 36.1819 44.018 35.8749 44.0281C35.7617 44.0331 35.6484 44.0369 35.5352 44.0394C35.2345 44.0482 34.9312 44.0532 34.6242 44.0545C34.5474 44.0557 34.4695 44.0557 34.3914 44.0557H34.2845C33.9775 44.0545 33.673 44.0507 33.3723 44.0431C33.259 44.0406 33.1458 44.0368 33.0338 44.033C32.7268 44.0229 32.4223 44.0091 32.1215 43.9915C32.0083 43.9853 31.895 43.9789 31.783 43.9714C31.4748 43.9513 31.1703 43.9274 30.8707 43.8997C30.7575 43.8896 30.6443 43.8783 30.531 43.867C30.2228 43.8368 29.9183 43.8016 29.6201 43.7639C29.5055 43.75 29.3923 43.7349 29.2804 43.7186C28.9696 43.6758 28.665 43.6292 28.3682 43.5802C28.2537 43.5601 28.1417 43.5412 28.0297 43.5211C27.7177 43.4644 27.4132 43.404 27.1176 43.3399C27.0031 43.3148 26.8899 43.2895 26.7778 43.2632C26.4633 43.1914 26.1601 43.1147 25.8669 43.0329C25.7511 43.0014 25.6379 42.9687 25.5272 42.9348C25.2089 42.8416 24.9044 42.7423 24.615 42.6379C24.4993 42.5964 24.3873 42.5548 24.2765 42.512C23.9507 42.385 23.6449 42.2529 23.3644 42.1144C23.2474 42.0566 23.1341 41.9986 23.0247 41.9395C22.7416 41.7848 22.4861 41.6237 22.2622 41.4576C22.1402 41.367 22.0269 41.2752 21.9225 41.1821C21.4016 40.7115 21.1172 40.2045 21.1172 39.6761V37.0892H24.6226C24.9094 36.9861 25.2114 36.8879 25.5273 36.7948C25.5349 36.7923 25.5423 36.7898 25.5512 36.7873C27.899 36.0941 30.9968 35.6738 34.3915 35.6738C37.7862 35.6738 40.8839 36.0941 43.2318 36.7873C43.2821 36.8023 43.3324 36.8175 43.3816 36.8326C43.652 36.9144 43.9113 36.9999 44.1604 37.0892H47.6658Z"
            fill="#F9B44A" />
    </g>
    <path
        d="M22.2635 35.6738V41.4576C22.1415 41.367 22.0283 41.2752 21.9238 41.1821V35.6738H22.2635Z"
        fill="#F9674E" />
    <path
        d="M23.3651 36.7871V42.1142C23.2481 42.0564 23.1348 41.9985 23.0254 41.9393V36.7871H23.3651Z"
        fill="#F9674E" />
    <path
        d="M24.6178 36.7872V42.6377C24.502 42.5962 24.39 42.5547 24.2793 42.5119V36.7871L24.6178 36.7872Z"
        fill="#F9674E" />
    <path d="M25.869 36.7871V43.0326C25.7532 43.0011 25.64 42.9684 25.5293 42.9345V36.7871H25.869Z"
        fill="#F9674E" />
    <path
        d="M27.121 36.7871V43.3396C27.0065 43.3145 26.8933 43.2892 26.7812 43.2629V36.7871H27.121Z"
        fill="#F9674E" />
    <path
        d="M28.3698 36.7871V43.58C28.2552 43.5599 28.1433 43.5411 28.0312 43.5209V36.7871H28.3698Z"
        fill="#F9674E" />
    <path
        d="M29.6229 36.7871V43.7637C29.5084 43.7499 29.3951 43.7347 29.2832 43.7184V36.7871H29.6229Z"
        fill="#F9674E" />
    <path
        d="M30.8729 36.7871V43.8995C30.7597 43.8894 30.6464 43.8781 30.5332 43.8668V36.7871H30.8729Z"
        fill="#F9674E" />
    <path
        d="M32.1237 36.7872V43.9915C32.0104 43.9852 31.8972 43.9788 31.7852 43.9713V36.7871L32.1237 36.7872Z"
        fill="#F9674E" />
    <path
        d="M33.3737 36.7871V44.043C33.2604 44.0405 33.1472 44.0367 33.0352 44.0329V36.7871H33.3737Z"
        fill="#F9674E" />
    <path
        d="M34.6249 36.7871V44.0543C34.5481 44.0555 34.4702 44.0555 34.392 44.0555H34.2852V36.7871H34.6249Z"
        fill="#F9674E" />
    <path
        d="M35.8768 36.7871V44.0279C35.7636 44.0329 35.6503 44.0367 35.5371 44.0392V36.7871H35.8768Z"
        fill="#F9674E" />
    <path
        d="M37.1256 36.7871V43.9625C37.0137 43.9701 36.9003 43.9776 36.7871 43.9852V36.7872L37.1256 36.7871Z"
        fill="#F9674E" />
    <path
        d="M38.3788 36.7871V43.8543C38.2668 43.8656 38.1523 43.8769 38.0391 43.8883V36.7872L38.3788 36.7871Z"
        fill="#F9674E" />
    <path
        d="M39.6307 36.7871V43.7008C39.5187 43.7172 39.4055 43.7323 39.291 43.7473V36.7871H39.6307Z"
        fill="#F9674E" />
    <path
        d="M40.8815 36.7871V43.497C40.7694 43.5183 40.6575 43.5384 40.543 43.5573V36.7871H40.8815Z"
        fill="#F9674E" />
    <path
        d="M42.1327 36.7871V43.2327C42.0208 43.2604 41.9074 43.2868 41.793 43.312V36.7871H42.1327Z"
        fill="#F9674E" />
    <path
        d="M43.3827 36.7872V42.8969C43.2707 42.9321 43.1587 42.9648 43.043 42.9975V36.7871L43.3827 36.7872Z"
        fill="#F9674E" />
    <path
        d="M44.6333 36.7871V42.4627C44.5226 42.5068 44.4106 42.5495 44.2949 42.5911V36.7871H44.6333Z"
        fill="#F9674E" />
    <path
        d="M45.8866 36.7871V41.8676C45.7784 41.9305 45.6652 41.9909 45.5469 42.0513V36.7871H45.8866Z"
        fill="#F9674E" />
    <path
        d="M47.1366 36.7871V40.9051C47.0372 41.0183 46.9239 41.129 46.7969 41.2385V36.7871H47.1366Z"
        fill="#F9674E" />
    <path
        d="M34.3949 41.4702C41.7258 41.4702 47.6687 39.509 47.6687 37.0897C47.6687 34.6704 41.7258 32.7092 34.3949 32.7092C27.064 32.7092 21.1211 34.6704 21.1211 37.0897C21.1211 39.509 27.064 41.4702 34.3949 41.4702Z"
        fill="#F9B44A" />
    <path
        d="M49.9996 32.6637V35.6293C49.9996 38.0475 44.0557 40.009 36.7254 40.009C29.3937 40.009 23.4512 38.0475 23.4512 35.6293V32.6637H26.9566C29.3824 31.7931 32.8614 31.2483 36.7254 31.2483C40.5894 31.2483 44.0684 31.7931 46.4942 32.6637H49.9996Z"
        fill="#F9B44A" />
    <path
        d="M49.9977 32.6638V35.2506C49.9977 35.6771 49.8127 36.0898 49.4668 36.4798C49.3674 36.5931 49.2541 36.7038 49.1271 36.8132C48.8741 37.0321 48.5684 37.2422 48.2161 37.4422C48.1079 37.5052 47.9947 37.5656 47.8764 37.6259C47.5958 37.7693 47.2913 37.9065 46.9642 38.0373C46.8535 38.0813 46.7415 38.1241 46.6257 38.1656C46.3363 38.2738 46.0318 38.3757 45.7136 38.4714C45.6016 38.5066 45.4896 38.5393 45.3739 38.572C45.0807 38.6551 44.7775 38.7343 44.4629 38.8074C44.351 38.835 44.2377 38.8615 44.1232 38.8866C43.8275 38.952 43.523 39.0137 43.211 39.0716C43.0989 39.093 42.987 39.1131 42.8726 39.1319C42.5756 39.1835 42.2712 39.2314 41.9603 39.2754C41.8483 39.2917 41.735 39.3068 41.6206 39.3219C41.3225 39.3608 41.018 39.3974 40.7097 39.4289C40.5976 39.4402 40.4832 39.4515 40.3699 39.4629C40.0705 39.4905 39.766 39.5156 39.4578 39.5371C39.3458 39.5447 39.2325 39.5523 39.1193 39.5597C38.8186 39.5773 38.514 39.5924 38.2071 39.6025C38.0939 39.6076 37.9806 39.6113 37.8674 39.6138C37.5667 39.6226 37.2635 39.6277 36.9565 39.629C36.8797 39.6302 36.8017 39.6302 36.7237 39.6302H36.6167C36.3097 39.629 36.0052 39.6251 35.7045 39.6176C35.5913 39.615 35.478 39.6112 35.366 39.6075C35.059 39.5974 34.7545 39.5836 34.4537 39.566C34.3405 39.5596 34.2273 39.5534 34.1152 39.5458C33.807 39.5257 33.5025 39.5018 33.2031 39.4741C33.0898 39.464 32.9766 39.4527 32.8634 39.4414C32.5551 39.4112 32.2507 39.376 31.9524 39.3382C31.8379 39.3244 31.7247 39.3092 31.6127 39.2929C31.302 39.2501 30.9975 39.2036 30.7004 39.1546C30.5859 39.1345 30.474 39.1156 30.3619 39.0954C30.0499 39.0388 29.7454 38.9784 29.4498 38.9142C29.3353 38.889 29.2221 38.8639 29.1101 38.8375C28.7955 38.7658 28.4923 38.6891 28.1991 38.6073C28.0834 38.5759 27.9701 38.5432 27.8594 38.5093C27.5411 38.4161 27.2366 38.3168 26.9472 38.2124C26.8314 38.1709 26.7195 38.1293 26.6087 38.0865C26.2828 37.9594 25.9771 37.8273 25.6964 37.6889C25.5794 37.6311 25.4662 37.5731 25.3567 37.514C25.0736 37.3593 24.8182 37.1982 24.5942 37.0321C24.4722 36.9416 24.3589 36.8496 24.2545 36.7566C23.7336 36.286 23.4492 35.7789 23.4492 35.2505V32.6637H26.9546C27.2416 32.5606 27.5434 32.4625 27.8593 32.3693C27.8669 32.3668 27.8744 32.3643 27.8832 32.3617C30.231 31.6685 33.3288 31.2483 36.7235 31.2483C40.1182 31.2483 43.2159 31.6685 45.5637 32.3617C45.6141 32.3768 45.6643 32.3919 45.7135 32.407C45.984 32.4888 46.2431 32.5743 46.4923 32.6636H49.9977V32.6638Z"
        fill="#F9674E" />
    <g opacity="0.61">
        <path
            d="M49.9997 32.6638V35.2506C49.9997 35.6771 49.8147 36.0898 49.4687 36.4798C49.3693 36.5931 49.2561 36.7038 49.129 36.8132C48.8761 37.0321 48.5704 37.2422 48.2181 37.4422C48.1099 37.5052 47.9966 37.5656 47.8784 37.6259C47.5978 37.7693 47.2933 37.9065 46.9662 38.0373C46.8555 38.0813 46.7435 38.1241 46.6277 38.1656C46.3382 38.2738 46.0338 38.3757 45.7155 38.4714C45.6035 38.5066 45.4916 38.5393 45.3758 38.572C45.0826 38.6551 44.7795 38.7343 44.4649 38.8074C44.353 38.835 44.2396 38.8615 44.1252 38.8866C43.8295 38.952 43.525 39.0137 43.2129 39.0716C43.1009 39.093 42.989 39.1131 42.8745 39.1319C42.5776 39.1835 42.2731 39.2314 41.9623 39.2754C41.8502 39.2917 41.737 39.3068 41.6225 39.3219C41.3244 39.3608 41.0199 39.3974 40.7116 39.4289C40.5996 39.4402 40.4851 39.4515 40.3719 39.4629C40.0724 39.4905 39.768 39.5156 39.4597 39.5371C39.3478 39.5447 39.2345 39.5523 39.1212 39.5597C38.8206 39.5773 38.516 39.5924 38.2091 39.6025C38.0958 39.6076 37.9826 39.6113 37.8694 39.6138C37.5687 39.6226 37.2654 39.6277 36.9584 39.629C36.8816 39.6302 36.8037 39.6302 36.7257 39.6302H36.6187C36.3117 39.629 36.0072 39.6251 35.7064 39.6176C35.5932 39.615 35.48 39.6112 35.3679 39.6075C35.0609 39.5974 34.7564 39.5836 34.4557 39.566C34.3424 39.5596 34.2292 39.5534 34.1172 39.5458C33.809 39.5257 33.5045 39.5018 33.205 39.4741C33.0918 39.464 32.9786 39.4527 32.8653 39.4414C32.5571 39.4112 32.2526 39.376 31.9544 39.3382C31.8398 39.3244 31.7267 39.3092 31.6147 39.2929C31.3039 39.2501 30.9994 39.2036 30.7024 39.1546C30.5879 39.1345 30.4759 39.1156 30.3639 39.0954C30.0518 39.0388 29.7474 38.9784 29.4517 38.9142C29.3373 38.889 29.2241 38.8639 29.112 38.8375C28.7974 38.7658 28.4943 38.6891 28.2011 38.6073C28.0853 38.5759 27.9721 38.5432 27.8614 38.5093C27.5431 38.4161 27.2386 38.3168 26.9491 38.2124C26.8334 38.1709 26.7214 38.1293 26.6106 38.0865C26.2847 37.9594 25.979 37.8273 25.6984 37.6889C25.5814 37.6311 25.4682 37.5731 25.3586 37.514C25.0756 37.3593 24.8201 37.1982 24.5962 37.0321C24.4741 36.9416 24.3608 36.8496 24.2564 36.7566C23.7356 36.286 23.4512 35.7789 23.4512 35.2505V32.6637H26.9566C27.2435 32.5606 27.5454 32.4625 27.8613 32.3693C27.8688 32.3668 27.8763 32.3643 27.8852 32.3617C30.233 31.6685 33.3308 31.2483 36.7255 31.2483C40.1202 31.2483 43.2179 31.6685 45.5657 32.3617C45.616 32.3768 45.6663 32.3919 45.7154 32.407C45.9859 32.4888 46.2451 32.5743 46.4943 32.6636H49.9997V32.6638Z"
            fill="#F9B44A" />
    </g>
    <path
        d="M24.5917 31.2483V37.0321C24.4697 36.9416 24.3563 36.8496 24.252 36.7566V31.2483H24.5917Z"
        fill="#F9674E" />
    <path
        d="M25.6952 32.3616V37.6887C25.5782 37.6309 25.465 37.5729 25.3555 37.5138V32.3616H25.6952Z"
        fill="#F9674E" />
    <path
        d="M26.9459 32.3616V38.2121C26.8302 38.1706 26.7182 38.129 26.6074 38.0862V32.3616H26.9459Z"
        fill="#F9674E" />
    <path
        d="M28.1971 32.3616V38.6071C28.0814 38.5756 27.9681 38.5429 27.8574 38.509V32.3616H28.1971Z"
        fill="#F9674E" />
    <path
        d="M29.4471 32.3616V38.9141C29.3327 38.8888 29.2194 38.8637 29.1074 38.8374V32.3616H29.4471Z"
        fill="#F9674E" />
    <path
        d="M30.6979 32.3616V39.1545C30.5833 39.1344 30.4714 39.1155 30.3594 39.0953V32.3616H30.6979Z"
        fill="#F9674E" />
    <path
        d="M31.951 32.3616V39.3382C31.8365 39.3243 31.7234 39.3092 31.6113 39.2928V32.3616H31.951Z"
        fill="#F9674E" />
    <path
        d="M33.1991 32.3616V39.474C33.0858 39.4639 32.9726 39.4526 32.8594 39.4413V32.3616H33.1991Z"
        fill="#F9674E" />
    <path
        d="M34.4518 32.3617V39.5659C34.3385 39.5596 34.2253 39.5533 34.1133 39.5457V32.3616L34.4518 32.3617Z"
        fill="#F9674E" />
    <path
        d="M35.7018 32.3617V39.6175C35.5885 39.615 35.4753 39.6111 35.3633 39.6074V32.3616L35.7018 32.3617Z"
        fill="#F9674E" />
    <path
        d="M36.9549 32.3616V39.6288C36.8781 39.63 36.8002 39.63 36.7222 39.63H36.6152V32.3616H36.9549Z"
        fill="#F9674E" />
    <path
        d="M38.205 32.3616V39.6024C38.0917 39.6074 37.9785 39.6111 37.8652 39.6137V32.3616H38.205Z"
        fill="#F9674E" />
    <path
        d="M39.4557 32.3616V39.537C39.3438 39.5445 39.2304 39.5521 39.1172 39.5596V32.3616H39.4557Z"
        fill="#F9674E" />
    <path
        d="M40.7069 32.3616V39.4287C40.5949 39.44 40.4804 39.4513 40.3672 39.4627V32.3616H40.7069Z"
        fill="#F9674E" />
    <path
        d="M41.9569 32.3616V39.2753C41.8449 39.2916 41.7316 39.3068 41.6172 39.3218V32.3616H41.9569Z"
        fill="#F9674E" />
    <path
        d="M43.2095 32.3616V39.0714C43.0975 39.0928 42.9855 39.1129 42.8711 39.1318V32.3616H43.2095Z"
        fill="#F9674E" />
    <path
        d="M44.4608 32.3616V38.8072C44.3489 38.8349 44.2355 38.8613 44.1211 38.8864V32.3616H44.4608Z"
        fill="#F9674E" />
    <path
        d="M45.7108 32.3616V38.4712C45.5988 38.5065 45.4869 38.5392 45.3711 38.5719V32.3616H45.7108Z"
        fill="#F9674E" />
    <path
        d="M46.9615 32.3617V38.0373C46.8508 38.0813 46.7388 38.1241 46.623 38.1655V32.3616L46.9615 32.3617Z"
        fill="#F9674E" />
    <path d="M48.2147 32.3616V37.442C48.1065 37.505 47.9933 37.5654 47.875 37.6257V32.3616H48.2147Z"
        fill="#F9674E" />
    <path
        d="M49.4667 32.3617V36.4797C49.3673 36.5929 49.254 36.7036 49.127 36.813V32.3616L49.4667 32.3617Z"
        fill="#F9674E" />
    <path
        d="M36.7269 37.0451C44.0578 37.0451 50.0007 35.0839 50.0007 32.6647C50.0007 30.2454 44.0578 28.2842 36.7269 28.2842C29.396 28.2842 23.4531 30.2454 23.4531 32.6647C23.4531 35.0839 29.396 37.0451 36.7269 37.0451Z"
        fill="#F9B44A" />
    <path
        d="M47.2613 27.6554V30.621C47.2613 33.0392 41.3174 35.0007 33.9871 35.0007C26.6554 35.0007 20.7129 33.0392 20.7129 30.621V27.6554H24.2183C26.6441 26.7848 30.1231 26.24 33.9871 26.24C37.8511 26.24 41.3301 26.7848 43.7559 27.6554H47.2613Z"
        fill="#F9B44A" />
    <path
        d="M47.2613 27.6553V30.2421C47.2613 30.6686 47.0763 31.0813 46.7303 31.4713C46.6309 31.5846 46.5177 31.6953 46.3906 31.8048C46.1377 32.0237 45.832 32.2338 45.4797 32.4338C45.3715 32.4967 45.2582 32.5572 45.14 32.6175C44.8594 32.7609 44.5549 32.8981 44.2278 33.0289C44.1171 33.0729 44.0051 33.1157 43.8893 33.1572C43.6 33.2654 43.2954 33.3673 42.9771 33.463C42.865 33.4982 42.7531 33.5309 42.6373 33.5636C42.3442 33.6467 42.041 33.7259 41.7264 33.799C41.6145 33.8266 41.5011 33.8531 41.3867 33.8782C41.091 33.9436 40.7865 34.0053 40.4744 34.0632C40.3624 34.0846 40.2505 34.1047 40.1359 34.1235C39.839 34.1751 39.5345 34.223 39.2238 34.267C39.1117 34.2833 38.9985 34.2984 38.8841 34.3135C38.5859 34.3524 38.2814 34.389 37.9731 34.4205C37.8611 34.4318 37.7466 34.4431 37.6334 34.4545C37.334 34.4821 37.0295 34.5072 36.7213 34.5287C36.6093 34.5363 36.496 34.5438 36.3827 34.5513C36.0821 34.569 35.7775 34.584 35.4706 34.5941C35.3573 34.5992 35.2441 34.6029 35.1309 34.6054C34.8302 34.6142 34.5269 34.6193 34.2199 34.6206C34.1431 34.6218 34.0652 34.6218 33.9871 34.6218H33.8802C33.5732 34.6206 33.2687 34.6167 32.9681 34.6092C32.8548 34.6066 32.7416 34.6028 32.6296 34.5991C32.3225 34.589 32.0181 34.5752 31.7173 34.5576C31.6041 34.5512 31.4908 34.545 31.3788 34.5374C31.0706 34.5173 30.7661 34.4934 30.4666 34.4658C30.3534 34.4557 30.2402 34.4444 30.1269 34.4331C29.8187 34.4029 29.5142 34.3677 29.216 34.3299C29.1014 34.3161 28.9882 34.301 28.8763 34.2846C28.5655 34.2418 28.261 34.1953 27.9641 34.1462C27.8496 34.1261 27.7376 34.1072 27.6256 34.0871C27.3136 34.0305 27.0091 33.9701 26.7134 33.9059C26.5989 33.8807 26.4857 33.8556 26.3736 33.8292C26.0591 33.7575 25.7559 33.6808 25.4627 33.599C25.3469 33.5676 25.2337 33.5349 25.123 33.501C24.8047 33.4078 24.5002 33.3085 24.2107 33.2041C24.095 33.1626 23.983 33.121 23.8723 33.0782C23.5465 32.9511 23.2406 32.819 22.9601 32.6806C22.8431 32.6228 22.7299 32.5648 22.6204 32.5057C22.3373 32.351 22.0818 32.1899 21.8579 32.0238C21.7359 31.9333 21.6226 31.8413 21.5182 31.7483C20.9973 31.2777 20.7129 30.7706 20.7129 30.2422V27.6554H24.2183C24.5051 27.5523 24.8071 27.4541 25.123 27.361C25.1306 27.3585 25.138 27.356 25.1469 27.3534C27.4947 26.6602 30.5925 26.24 33.9871 26.24C37.3818 26.24 40.4795 26.6602 42.8274 27.3534C42.8777 27.3686 42.928 27.3836 42.9772 27.3988C43.2476 27.4806 43.5069 27.5661 43.756 27.6554L47.2613 27.6553Z"
        fill="#F9674E" />
    <g opacity="0.61">
        <path
            d="M47.2613 27.6553V30.2421C47.2613 30.6686 47.0763 31.0813 46.7303 31.4713C46.6309 31.5846 46.5177 31.6953 46.3906 31.8048C46.1377 32.0237 45.832 32.2338 45.4797 32.4338C45.3715 32.4967 45.2582 32.5572 45.14 32.6175C44.8594 32.7609 44.5549 32.8981 44.2278 33.0289C44.1171 33.0729 44.0051 33.1157 43.8893 33.1572C43.6 33.2654 43.2954 33.3673 42.9771 33.463C42.865 33.4982 42.7531 33.5309 42.6373 33.5636C42.3442 33.6467 42.041 33.7259 41.7264 33.799C41.6145 33.8266 41.5011 33.8531 41.3867 33.8782C41.091 33.9436 40.7865 34.0053 40.4744 34.0632C40.3624 34.0846 40.2505 34.1047 40.1359 34.1235C39.839 34.1751 39.5345 34.223 39.2238 34.267C39.1117 34.2833 38.9985 34.2984 38.8841 34.3135C38.5859 34.3524 38.2814 34.389 37.9731 34.4205C37.8611 34.4318 37.7466 34.4431 37.6334 34.4545C37.334 34.4821 37.0295 34.5072 36.7213 34.5287C36.6093 34.5363 36.496 34.5438 36.3827 34.5513C36.0821 34.569 35.7775 34.584 35.4706 34.5941C35.3573 34.5992 35.2441 34.6029 35.1309 34.6054C34.8302 34.6142 34.5269 34.6193 34.2199 34.6206C34.1431 34.6218 34.0652 34.6218 33.9871 34.6218H33.8802C33.5732 34.6206 33.2687 34.6167 32.9681 34.6092C32.8548 34.6066 32.7416 34.6028 32.6296 34.5991C32.3225 34.589 32.0181 34.5752 31.7173 34.5576C31.6041 34.5512 31.4908 34.545 31.3788 34.5374C31.0706 34.5173 30.7661 34.4934 30.4666 34.4658C30.3534 34.4557 30.2402 34.4444 30.1269 34.4331C29.8187 34.4029 29.5142 34.3677 29.216 34.3299C29.1014 34.3161 28.9882 34.301 28.8763 34.2846C28.5655 34.2418 28.261 34.1953 27.9641 34.1462C27.8496 34.1261 27.7376 34.1072 27.6256 34.0871C27.3136 34.0305 27.0091 33.9701 26.7134 33.9059C26.5989 33.8807 26.4857 33.8556 26.3736 33.8292C26.0591 33.7575 25.7559 33.6808 25.4627 33.599C25.3469 33.5676 25.2337 33.5349 25.123 33.501C24.8047 33.4078 24.5002 33.3085 24.2107 33.2041C24.095 33.1626 23.983 33.121 23.8723 33.0782C23.5465 32.9511 23.2406 32.819 22.9601 32.6806C22.8431 32.6228 22.7299 32.5648 22.6204 32.5057C22.3373 32.351 22.0818 32.1899 21.8579 32.0238C21.7359 31.9333 21.6226 31.8413 21.5182 31.7483C20.9973 31.2777 20.7129 30.7706 20.7129 30.2422V27.6554H24.2183C24.5051 27.5523 24.8071 27.4541 25.123 27.361C25.1306 27.3585 25.138 27.356 25.1469 27.3534C27.4947 26.6602 30.5925 26.24 33.9871 26.24C37.3818 26.24 40.4795 26.6602 42.8274 27.3534C42.8777 27.3686 42.928 27.3836 42.9772 27.3988C43.2476 27.4806 43.5069 27.5661 43.756 27.6554L47.2613 27.6553Z"
            fill="#F9B44A" />
    </g>
    <path d="M21.8592 26.24V32.0238C21.7372 31.9333 21.624 31.8413 21.5195 31.7483V26.24H21.8592Z"
        fill="#F9674E" />
    <path
        d="M22.9608 27.3533V32.6804C22.8438 32.6226 22.7306 32.5646 22.6211 32.5055V27.3533H22.9608Z"
        fill="#F9674E" />
    <path
        d="M24.2095 27.3534V33.2039C24.0937 33.1624 23.9817 33.1208 23.8711 33.078V27.3533L24.2095 27.3534Z"
        fill="#F9674E" />
    <path
        d="M25.4628 27.3533V33.5989C25.347 33.5674 25.2338 33.5347 25.123 33.5008V27.3534L25.4628 27.3533Z"
        fill="#F9674E" />
    <path
        d="M26.7128 27.3533V33.9059C26.5983 33.8806 26.4851 33.8555 26.373 33.8292V27.3534L26.7128 27.3533Z"
        fill="#F9674E" />
    <path d="M27.9655 27.3533V34.1462C27.8509 34.126 27.739 34.1071 27.627 34.087V27.3533H27.9655Z"
        fill="#F9674E" />
    <path
        d="M29.2167 27.3533V34.3299C29.1021 34.316 28.9889 34.3009 28.877 34.2845V27.3533H29.2167Z"
        fill="#F9674E" />
    <path
        d="M30.4686 27.3533V34.4658C30.3554 34.4557 30.2421 34.4444 30.1289 34.4331V27.3534L30.4686 27.3533Z"
        fill="#F9674E" />
    <path d="M31.7155 27.3533V34.5576C31.6022 34.5513 31.489 34.545 31.377 34.5374V27.3533H31.7155Z"
        fill="#F9674E" />
    <path
        d="M32.9694 27.3533V34.6092C32.8561 34.6067 32.7429 34.6028 32.6309 34.5991V27.3533H32.9694Z"
        fill="#F9674E" />
    <path
        d="M34.2186 27.3533V34.6205C34.1418 34.6217 34.0639 34.6217 33.9858 34.6217H33.8789V27.3533H34.2186Z"
        fill="#F9674E" />
    <path
        d="M35.4706 27.3533V34.5941C35.3573 34.5991 35.2441 34.6028 35.1309 34.6054V27.3533H35.4706Z"
        fill="#F9674E" />
    <path
        d="M36.7194 27.3533V34.5287C36.6074 34.5362 36.4941 34.5437 36.3809 34.5513V27.3533H36.7194Z"
        fill="#F9674E" />
    <path
        d="M37.9725 27.3533V34.4205C37.8605 34.4318 37.746 34.4431 37.6328 34.4545V27.3534L37.9725 27.3533Z"
        fill="#F9674E" />
    <path
        d="M39.2245 27.3533V34.267C39.1124 34.2833 38.9992 34.2985 38.8848 34.3135V27.3533H39.2245Z"
        fill="#F9674E" />
    <path
        d="M40.4752 27.3533V34.0631C40.3632 34.0845 40.2513 34.1046 40.1367 34.1235V27.3533H40.4752Z"
        fill="#F9674E" />
    <path
        d="M41.7264 27.3533V33.7989C41.6145 33.8266 41.5012 33.853 41.3867 33.8781V27.3533H41.7264Z"
        fill="#F9674E" />
    <path
        d="M42.9784 27.3534V33.463C42.8664 33.4983 42.7544 33.531 42.6387 33.5637V27.3533L42.9784 27.3534Z"
        fill="#F9674E" />
    <path
        d="M44.2272 27.3534V33.029C44.1165 33.073 44.0044 33.1158 43.8887 33.1572V27.3533L44.2272 27.3534Z"
        fill="#F9674E" />
    <path
        d="M45.4803 27.3533V32.4337C45.3722 32.4966 45.2589 32.5571 45.1406 32.6174V27.3533H45.4803Z"
        fill="#F9674E" />
    <path
        d="M46.7303 27.3533V31.4713C46.6309 31.5845 46.5177 31.6952 46.3906 31.8047V27.3533H46.7303Z"
        fill="#F9674E" />
    <path
        d="M33.9886 32.0366C41.3196 32.0366 47.2624 30.0754 47.2624 27.6561C47.2624 25.2368 41.3196 23.2756 33.9886 23.2756C26.6577 23.2756 20.7148 25.2368 20.7148 27.6561C20.7148 30.0754 26.6577 32.0366 33.9886 32.0366Z"
        fill="#F9B44A" />
    <path
        d="M22.6254 49.5578C24.2173 43.7908 21.5719 38.0292 16.7166 36.689C11.8612 35.3488 6.63468 38.9375 5.0427 44.7045C3.45071 50.4716 6.09616 56.2332 10.9515 57.5734C15.8068 58.9136 21.0334 55.3249 22.6254 49.5578Z"
        fill="#F9674E" />
    <path
        d="M21.1709 49.1547C22.7629 43.3876 20.1173 37.626 15.2618 36.2857C10.4063 34.9455 5.17962 38.5341 3.58763 44.3012C1.99564 50.0683 4.64123 55.8299 9.49671 57.1701C14.3522 58.5104 19.5789 54.9217 21.1709 49.1547Z"
        fill="#F9B44A" />
    <path
        d="M18.3265 48.3693C19.4037 44.4671 17.6136 40.5685 14.3282 39.6616C11.0428 38.7548 7.50618 41.183 6.42897 45.0853C5.35176 48.9875 7.14188 52.886 10.4273 53.7929C13.7127 54.6998 17.2493 52.2715 18.3265 48.3693Z"
        fill="#F9674E" />
    <path
        d="M17.5666 48.1599C18.5063 44.7558 16.9447 41.3549 14.0787 40.5638C11.2126 39.7727 8.1275 41.891 7.1878 45.2951C6.2481 48.6992 7.8097 52.1001 10.6757 52.8912C13.5418 53.6823 16.6269 51.564 17.5666 48.1599Z"
        fill="#F9B44A" />
    <path
        d="M14.3037 48.6146C14.6226 47.4592 14.3009 46.6621 13.1376 45.6762L13.0989 45.6436L13.753 43.2739C13.8491 43.3052 13.9405 43.3419 14.0312 43.3866L13.9575 43.9709C13.8482 44.7927 14.1313 45.0449 14.4638 45.1367C14.698 45.2013 14.9908 45.1131 15.1607 44.7199C15.3928 43.8189 14.8761 43.0306 13.9201 42.668L14.2133 41.606L13.6069 41.4387L13.3117 42.5081C12.0656 42.3114 11.1356 42.9847 10.8354 44.0724C10.5053 45.2684 10.9476 46.0704 11.9071 46.9029L12.011 46.9925L11.3232 49.4843C11.112 49.4185 10.9386 49.3441 10.7819 49.2509L10.8939 48.5679C10.9924 47.9455 10.8361 47.6787 10.4695 47.5775C10.2273 47.5107 9.95831 47.5993 9.73042 47.9463C9.4661 48.9456 9.97466 49.73 11.1544 50.096L10.8352 51.2524L11.4416 51.4197L11.7699 50.2303C13.0377 50.3844 13.9991 49.718 14.3037 48.6146ZM12.2168 44.0217C12.3723 43.4581 12.7102 43.2024 13.1278 43.1749L12.5731 45.1846C12.2206 44.8364 12.0812 44.513 12.2168 44.0217ZM11.9526 49.5682L12.5321 47.4688C12.8949 47.8505 13.0033 48.1814 12.8454 48.7535C12.7141 49.2292 12.3883 49.5216 11.9526 49.5682Z"
        fill="white" />
    <path
        d="M50.4725 57.5569C55.3278 56.2167 57.9732 50.4551 56.3812 44.688C54.7893 38.921 49.5627 35.3323 44.7074 36.6725C39.852 38.0127 37.2066 43.7743 38.7986 49.5413C40.3906 55.3084 45.6171 58.8971 50.4725 57.5569Z"
        fill="#F9674E" />
    <path
        d="M51.9239 57.154C56.7794 55.8137 59.425 50.0521 57.833 44.285C56.241 38.518 51.0143 34.9293 46.1588 36.2696C41.3033 37.6098 38.6577 43.3714 40.2497 49.1385C41.8417 54.9056 47.0684 58.4942 51.9239 57.154Z"
        fill="#F9B44A" />
    <path
        d="M50.9903 53.778C54.2757 52.8712 56.0658 48.9726 54.9886 45.0704C53.9114 41.1681 50.3748 38.7399 47.0894 39.6468C43.804 40.5537 42.0139 44.4522 43.0911 48.3544C44.1683 52.2567 47.7049 54.6849 50.9903 53.778Z"
        fill="#F9674E" />
    <path
        d="M50.7428 52.8761C53.6088 52.085 55.1704 48.6841 54.2307 45.28C53.291 41.8759 50.2058 39.7577 47.3398 40.5488C44.4738 41.3399 42.9122 44.7408 43.8519 48.1449C44.7916 51.549 47.8767 53.6672 50.7428 52.8761Z"
        fill="#F9B44A" />
    <path
        d="M51.5481 47.6814C51.3696 46.4961 50.7515 45.8986 49.2879 45.471L49.2392 45.457L48.8732 43.026C48.9739 43.0156 49.0722 43.0119 49.1732 43.0159L49.3435 43.5798C49.5777 44.375 49.9389 44.4903 50.2801 44.4389C50.5204 44.4028 50.752 44.2032 50.7472 43.7747C50.593 42.8573 49.8004 42.3472 48.7796 42.4046L48.6156 41.3152L47.9936 41.4088L48.1587 42.5059C46.9403 42.8328 46.3645 43.8261 46.5325 44.9419C46.7172 46.1687 47.4474 46.7216 48.6624 47.092L48.7938 47.1317L49.1787 49.6879C48.959 49.7136 48.7702 49.7162 48.5892 49.6948L48.4137 49.0252C48.2507 48.4166 47.9994 48.2365 47.6233 48.2931C47.3748 48.3305 47.1652 48.5208 47.0981 48.9304C47.263 49.9508 48.0466 50.4606 49.2731 50.3153L49.4518 51.5016L50.0738 51.4079L49.8901 50.1877C51.1112 49.813 51.7184 48.8133 51.5481 47.6814ZM47.7738 44.3339C47.6868 43.7559 47.8915 43.3848 48.2618 43.1898L48.5722 45.2514C48.1087 45.0767 47.8497 44.8378 47.7738 44.3339ZM49.7878 49.5086L49.4636 47.3548C49.9502 47.556 50.1838 47.8142 50.2722 48.4012C50.3457 48.8893 50.1669 49.2889 49.7878 49.5086Z"
        fill="white" />
    <path
        d="M52.8472 23.1945V26.16C52.8472 28.5782 46.9034 30.5397 39.573 30.5397C32.2414 30.5397 26.2988 28.5782 26.2988 26.16V23.1945H29.8042C32.2301 22.3238 35.709 21.7791 39.573 21.7791C43.437 21.7791 46.916 22.3238 49.3418 23.1945H52.8472Z"
        fill="#F9B44A" />
    <path
        d="M52.8473 23.1944V25.7812C52.8473 26.2077 52.6623 26.6203 52.3164 27.0104C52.217 27.1236 52.1037 27.2343 51.9767 27.3437C51.7237 27.5626 51.418 27.7728 51.0657 27.9728C50.9575 28.0358 50.8443 28.0961 50.726 28.1564C50.4454 28.2999 50.1409 28.437 49.8138 28.5679C49.7031 28.612 49.5911 28.6547 49.4753 28.6963C49.186 28.8045 48.8814 28.9064 48.5632 29.0021C48.4512 29.0373 48.3392 29.07 48.2235 29.1027C47.9303 29.1857 47.6271 29.265 47.3125 29.338C47.2006 29.3657 47.0873 29.3921 46.9728 29.4173C46.6771 29.4827 46.3726 29.5443 46.0607 29.6023C45.9486 29.6236 45.8367 29.6437 45.7222 29.6626C45.4252 29.7142 45.1208 29.762 44.81 29.806C44.698 29.8223 44.5848 29.8375 44.4703 29.8525C44.1722 29.8915 43.8677 29.928 43.5594 29.9595C43.4473 29.9708 43.3329 29.9821 43.2196 29.9935C42.9202 30.0212 42.6157 30.0464 42.3074 30.0678C42.1955 30.0754 42.0821 30.0829 41.9689 30.0904C41.6682 30.1081 41.3636 30.1231 41.0567 30.1332C40.9435 30.1382 40.8303 30.142 40.717 30.1445C40.4164 30.1533 40.1131 30.1583 39.8061 30.1596C39.7293 30.1608 39.6514 30.1608 39.5732 30.1608H39.4664C39.1593 30.1596 38.8549 30.1558 38.5541 30.1482C38.4409 30.1457 38.3276 30.142 38.2156 30.1381C37.9086 30.1281 37.6041 30.1142 37.3033 30.0967C37.1901 30.0903 37.0769 30.084 36.9648 30.0765C36.6566 30.0564 36.3521 30.0325 36.0526 30.0048C35.9393 29.9947 35.8261 29.9834 35.7129 29.9721C35.4047 29.9419 35.1002 29.9067 34.8019 29.869C34.6874 29.8551 34.5741 29.84 34.4622 29.8237C34.1515 29.7809 33.8469 29.7344 33.55 29.6853C33.4354 29.6652 33.3235 29.6463 33.2115 29.6262C32.8994 29.5695 32.5949 29.5091 32.2992 29.445C32.1847 29.4199 32.0715 29.3946 31.9595 29.3683C31.6449 29.2966 31.3417 29.2199 31.0485 29.1381C30.9328 29.1066 30.8195 29.0739 30.7088 29.04C30.3905 28.9469 30.086 28.8475 29.7967 28.7431C29.6809 28.7015 29.5689 28.6601 29.4582 28.6173C29.1323 28.4902 28.8266 28.3581 28.546 28.2196C28.429 28.1618 28.3157 28.1039 28.2063 28.0447C27.9232 27.89 27.6678 27.729 27.4438 27.5628C27.3218 27.4722 27.2086 27.3804 27.1041 27.2873C26.5832 26.8167 26.2988 26.3097 26.2988 25.7813V23.1945H29.8042C30.0911 23.0913 30.393 22.9931 30.7089 22.9001C30.7165 22.8976 30.7241 22.895 30.7329 22.8925C33.0808 22.1993 36.1784 21.7791 39.5731 21.7791C42.9678 21.7791 46.0655 22.1993 48.4134 22.8925C48.4638 22.9075 48.514 22.9227 48.5632 22.9377C48.8337 23.0196 49.093 23.105 49.342 23.1944H52.8473Z"
        fill="#F9674E" />
    <g opacity="0.61">
        <path
            d="M52.8493 23.1946V25.7814C52.8493 26.2079 52.6643 26.6206 52.3183 27.0106C52.2189 27.1239 52.1057 27.2346 51.9786 27.344C51.7257 27.5629 51.42 27.773 51.0677 27.973C50.9595 28.036 50.8462 28.0963 50.728 28.1567C50.4474 28.3001 50.1429 28.4373 49.8158 28.5682C49.7051 28.6123 49.5931 28.6549 49.4773 28.6965C49.1879 28.8047 48.8834 28.9066 48.5651 29.0023C48.4531 29.0375 48.3412 29.0702 48.2254 29.1029C47.9323 29.186 47.6291 29.2652 47.3145 29.3383C47.2026 29.3659 47.0892 29.3924 46.9748 29.4175C46.6791 29.4829 46.3746 29.5446 46.0626 29.6025C45.9506 29.6239 45.8387 29.644 45.7241 29.6628C45.4272 29.7144 45.1227 29.7622 44.812 29.8062C44.6999 29.8226 44.5867 29.8377 44.4723 29.8528C44.1741 29.8917 43.8696 29.9283 43.5613 29.9597C43.4493 29.971 43.3348 29.9824 43.2216 29.9938C42.9222 30.0214 42.6177 30.0466 42.3093 30.068C42.1974 30.0756 42.0841 30.0832 41.9708 30.0906C41.6702 30.1083 41.3656 30.1234 41.0587 30.1334C40.9454 30.1385 40.8322 30.1422 40.719 30.1447C40.4183 30.1535 40.115 30.1586 39.808 30.1599C39.7312 30.1611 39.6533 30.1611 39.5752 30.1611H39.4683C39.1613 30.1599 38.8568 30.156 38.5561 30.1485C38.4428 30.1459 38.3296 30.1422 38.2176 30.1384C37.9105 30.1284 37.606 30.1145 37.3053 30.0969C37.1921 30.0905 37.0788 30.0843 36.9668 30.0767C36.6586 30.0566 36.3541 30.0327 36.0545 30.0051C35.9413 29.995 35.8281 29.9837 35.7148 29.9724C35.4066 29.9422 35.1021 29.907 34.8039 29.8692C34.6893 29.8554 34.5761 29.8403 34.4642 29.8239C34.1534 29.7811 33.8488 29.7346 33.5519 29.6856C33.4374 29.6655 33.3254 29.6466 33.2134 29.6264C32.9014 29.5698 32.5969 29.5093 32.3011 29.4453C32.1867 29.4201 32.0735 29.3949 31.9614 29.3686C31.6469 29.2968 31.3437 29.2201 31.0505 29.1384C30.9347 29.1069 30.8215 29.0742 30.7108 29.0403C30.3925 28.9471 30.088 28.8478 29.7986 28.7433C29.6829 28.7018 29.5708 28.6603 29.4601 28.6175C29.1342 28.4904 28.8285 28.3583 28.548 28.2199C28.431 28.162 28.3177 28.1041 28.2083 28.045C27.9252 27.8903 27.6697 27.7292 27.4458 27.5631C27.3237 27.4725 27.2105 27.3806 27.1061 27.2876C26.5852 26.817 26.3008 26.3099 26.3008 25.7815V23.1947H29.8062C30.093 23.0916 30.395 22.9934 30.7109 22.9003C30.7185 22.8978 30.726 22.8953 30.7348 22.8928C33.0827 22.1995 36.1804 21.7793 39.5751 21.7793C42.9698 21.7793 46.0675 22.1995 48.4154 22.8928C48.4657 22.9078 48.516 22.9229 48.5651 22.938C48.8356 23.0198 49.0949 23.1053 49.344 23.1946H52.8493Z"
            fill="#F9B44A" />
    </g>
    <path
        d="M27.4432 21.7791V27.5628C27.3212 27.4722 27.208 27.3804 27.1035 27.2873V21.7791H27.4432Z"
        fill="#F9674E" />
    <path
        d="M28.5448 22.8926V28.2197C28.4278 28.1619 28.3145 28.1039 28.2051 28.0448V22.8926H28.5448Z"
        fill="#F9674E" />
    <path d="M29.7955 22.8926V28.7431C29.6798 28.7015 29.5677 28.66 29.457 28.6172V22.8926H29.7955Z"
        fill="#F9674E" />
    <path d="M31.0487 22.8926V29.1381C30.9329 29.1066 30.8197 29.0739 30.709 29.04V22.8926H31.0487Z"
        fill="#F9674E" />
    <path
        d="M32.2987 22.8926V29.4451C32.1843 29.4199 32.071 29.3947 31.959 29.3684V22.8926H32.2987Z"
        fill="#F9674E" />
    <path
        d="M33.5475 22.8926V29.6855C33.4329 29.6654 33.321 29.6465 33.209 29.6263V22.8926H33.5475Z"
        fill="#F9674E" />
    <path
        d="M34.8007 22.8926V29.8691C34.6861 29.8553 34.5729 29.8402 34.4609 29.8238V22.8926H34.8007Z"
        fill="#F9674E" />
    <path
        d="M36.0506 22.8926V30.005C35.9374 29.9949 35.8242 29.9836 35.7109 29.9723V22.8926H36.0506Z"
        fill="#F9674E" />
    <path
        d="M37.3014 22.8927V30.0969C37.1882 30.0906 37.0749 30.0843 36.9629 30.0767V22.8926L37.3014 22.8927Z"
        fill="#F9674E" />
    <path
        d="M38.5514 22.8927V30.1485C38.4382 30.146 38.3249 30.1422 38.2129 30.1384V22.8926L38.5514 22.8927Z"
        fill="#F9674E" />
    <path
        d="M39.8046 22.8926V30.1598C39.7277 30.161 39.6498 30.161 39.5717 30.161H39.4648V22.8926H39.8046Z"
        fill="#F9674E" />
    <path
        d="M41.0565 22.8926V30.1334C40.9433 30.1384 40.83 30.1421 40.7168 30.1447V22.8926H41.0565Z"
        fill="#F9674E" />
    <path
        d="M42.3053 22.8926V30.0679C42.1934 30.0755 42.08 30.0831 41.9668 30.0906V22.8926H42.3053Z"
        fill="#F9674E" />
    <path
        d="M43.5585 22.8926V29.9597C43.4464 29.971 43.332 29.9823 43.2188 29.9937V22.8926H43.5585Z"
        fill="#F9674E" />
    <path
        d="M44.8104 22.8926V29.8063C44.6984 29.8226 44.5852 29.8378 44.4707 29.8528V22.8926H44.8104Z"
        fill="#F9674E" />
    <path
        d="M46.0573 22.8926V29.6024C45.9452 29.6238 45.8333 29.6439 45.7188 29.6628V22.8926H46.0573Z"
        fill="#F9674E" />
    <path
        d="M47.3104 22.8926V29.3382C47.1985 29.3658 47.0852 29.3923 46.9707 29.4174V22.8926H47.3104Z"
        fill="#F9674E" />
    <path
        d="M48.5604 22.8926V29.0022C48.4484 29.0375 48.3365 29.0701 48.2207 29.1028V22.8926H48.5604Z"
        fill="#F9674E" />
    <path
        d="M49.8131 22.8926V28.5682C49.7024 28.6123 49.5904 28.655 49.4746 28.6965V22.8926H49.8131Z"
        fill="#F9674E" />
    <path
        d="M51.0643 22.8926V27.973C50.9561 28.036 50.8429 28.0964 50.7246 28.1567V22.8926H51.0643Z"
        fill="#F9674E" />
    <path
        d="M52.3143 22.8927V27.0107C52.2149 27.1239 52.1017 27.2346 51.9746 27.344V22.8926L52.3143 22.8927Z"
        fill="#F9674E" />
    <path
        d="M39.5707 27.5757C46.9016 27.5757 52.8445 25.6144 52.8445 23.1952C52.8445 20.7759 46.9016 18.8147 39.5707 18.8147C32.2398 18.8147 26.2969 20.7759 26.2969 23.1952C26.2969 25.6144 32.2398 27.5757 39.5707 27.5757Z"
        fill="#F9B44A" />
    <path
        d="M39.5695 26.1591C44.5299 26.1591 48.551 24.8321 48.551 23.1952C48.551 21.5582 44.5299 20.2312 39.5695 20.2312C34.6091 20.2312 30.5879 21.5582 30.5879 23.1952C30.5879 24.8321 34.6091 26.1591 39.5695 26.1591Z"
        fill="#F9674E" />
    <path
        d="M39.5714 25.7808C43.8986 25.7808 47.4065 24.6232 47.4065 23.1952C47.4065 21.7672 43.8986 20.6096 39.5714 20.6096C35.2442 20.6096 31.7363 21.7672 31.7363 23.1952C31.7363 24.6232 35.2442 25.7808 39.5714 25.7808Z"
        fill="#F9B44A" />
    <path
        d="M43.0269 23.7215C43.0269 23.2367 42.2668 22.9606 40.2529 22.7014L40.186 22.6929V21.6987C40.3331 21.7006 40.4754 21.7051 40.6201 21.7127L40.743 21.9485C40.9079 22.2806 41.4027 22.3484 41.9047 22.3484C42.2584 22.3484 42.635 22.2825 42.721 22.111C42.6979 21.7347 41.6676 21.4831 40.1859 21.4446V20.999H39.2704V21.4476C37.4459 21.505 36.4019 21.8675 36.4019 22.3238C36.4019 22.8255 37.333 23.0906 39.0014 23.3118L39.1819 23.3355V24.3809C38.86 24.378 38.5879 24.3676 38.3319 24.3482L38.2245 24.0699C38.1217 23.8167 37.799 23.7295 37.2457 23.7295C36.8799 23.7295 36.537 23.793 36.3516 23.9528C36.3678 24.3708 37.385 24.6218 39.1819 24.6375V25.1226H40.0974V24.6236C41.9362 24.5475 43.0269 24.1844 43.0269 23.7215ZM38.3203 22.1556C38.3203 21.9191 38.6953 21.7831 39.2705 21.7275V22.5706C38.6411 22.4728 38.3203 22.3617 38.3203 22.1556ZM40.0976 24.3462V23.4654C40.7545 23.5752 41.0347 23.6925 41.0347 23.9326C41.0347 24.1321 40.6908 24.2811 40.0976 24.3462Z"
        fill="white" />
</svg>