<svg width="144" height="143" viewBox="0 0 144 143" fill="none" xmlns="http://www.w3.org/2000/svg">
    <g clip-path="url(#clip0_298_2287)">
        <path
            d="M95.6152 38.3309L121.7 108.763C122.247 110.239 121.486 111.883 119.999 112.434L43.2691 140.851C41.7815 141.402 40.1337 140.65 39.587 139.174L3.14086 40.7647C2.59418 39.2886 3.35436 37.6444 4.84204 37.0935L53.4163 19.1038C53.8051 18.9599 54.2184 18.9017 54.6209 18.9308C54.9597 18.9549 55.2925 19.0406 55.607 19.1804L81.8907 31.1567L94.2453 36.787C94.5137 36.925 94.7509 37.1007 94.9629 37.3119C95.2494 37.595 95.4721 37.9446 95.6152 38.3309Z"
            fill="#E3F4FF" />
        <path
            d="M101.002 52.8739L118.514 100.158C116.765 101.359 114.84 102.366 112.762 103.136C99.2282 108.148 84.1667 101.286 79.1858 87.8373C74.2057 74.3905 81.1642 59.3736 94.6979 54.3614C96.7758 53.5916 98.8929 53.1018 101.002 52.8739Z"
            fill="#BDDFF4" />
        <path
            d="M95.6149 38.3313L121.7 108.763C122.246 110.239 121.486 111.884 119.999 112.435L60.1453 134.602C98.8892 95.7004 89.5989 51.8029 81.8905 31.1571L94.2451 36.7874C94.5135 36.9253 94.7507 37.1011 94.9627 37.3123C95.2494 37.5953 95.4719 37.945 95.6149 38.3313Z"
            fill="#BDDFF4" />
        <path
            d="M95.6143 38.3315L96.1315 39.7281L69.0919 49.7424C66.2175 50.8069 63.0183 49.3494 61.9606 46.4934L52.0098 19.625L53.4155 19.1044C53.8042 18.9604 54.2175 18.9023 54.62 18.9314C54.9588 18.9555 55.2916 19.0412 55.6061 19.181L94.2446 36.7875C94.513 36.9255 94.7502 37.1012 94.9622 37.3124C95.2487 37.5955 95.4712 37.9452 95.6143 38.3315Z"
            fill="#BDDFF4" />
        <path
            d="M94.9601 37.3125L68.1635 47.2366C66.6761 47.7875 65.0271 47.0344 64.4806 45.5587L54.6191 18.9316C54.9573 18.956 55.2897 19.0407 55.6042 19.1803L94.2426 36.7873C94.5111 36.9261 94.7495 37.1015 94.9601 37.3125Z"
            fill="#ADC9E2" />
        <path
            d="M40.9096 50.432L24.9777 56.3325C24.1072 56.6548 23.1423 56.2151 22.822 55.3504C22.5017 54.4854 22.9477 53.5234 23.818 53.2011L39.7498 47.3007C40.6203 46.9783 41.5852 47.418 41.9055 48.2827C42.2257 49.1475 41.7801 50.1096 40.9096 50.432Z"
            fill="#1FC974" />
        <path
            d="M32.0976 59.02L26.7121 61.0146C25.8416 61.337 24.8767 60.8972 24.5564 60.0325C24.2362 59.1678 24.6821 58.2055 25.5524 57.8832L30.9377 55.8887C31.8082 55.5663 32.7731 56.0061 33.0933 56.8708C33.4136 57.7355 32.9679 58.6977 32.0976 59.02Z"
            fill="#1FC974" />
        <path
            d="M29.6741 68.9778C29.6688 68.9798 29.6635 68.9818 29.6582 68.9837C28.7847 69.2975 27.8137 68.8519 27.502 67.9839C27.1923 67.1214 27.63 66.1735 28.4928 65.854C28.4983 65.8519 28.5034 65.85 28.5087 65.8481L28.5296 65.8406C29.403 65.5268 30.3638 65.9761 30.6755 66.844C30.985 67.7065 30.5368 68.6583 29.6741 68.9778Z"
            fill="#1FC974" />
        <path
            d="M48.6917 37.7008L21.7687 47.6718C20.8982 47.9942 19.9333 47.5544 19.6131 46.6897C19.2928 45.825 19.7387 44.8627 20.609 44.5404L47.532 34.5694C48.4025 34.247 49.3674 34.6868 49.6877 35.5515C50.0079 36.4162 49.5622 37.3784 48.6917 37.7008Z"
            fill="#ADC9E2" />
        <path
            d="M91.9287 67.6519L36.7492 88.0878C35.8787 88.4102 34.9138 87.9705 34.5935 87.1057C34.2732 86.2408 34.7192 85.2788 35.5895 84.9564L90.769 64.5205C91.6395 64.1981 92.6044 64.6379 92.9246 65.5026C93.245 66.3675 92.7992 67.3295 91.9287 67.6519Z"
            fill="#ADC9E2" />
        <path
            d="M94.2477 73.9146L75.2179 80.9623C74.3474 81.2847 73.3825 80.845 73.0623 79.9802C72.742 79.1155 73.1879 78.1533 74.0582 77.831L93.088 70.7832C93.9585 70.4608 94.9234 70.9006 95.2437 71.7653C95.5639 72.63 95.1182 73.5922 94.2477 73.9146Z"
            fill="#ADC9E2" />
        <path
            d="M68.4042 83.4856L39.0675 94.3505C38.197 94.6729 37.2321 94.2331 36.9119 93.3684C36.5916 92.5037 37.0375 91.5415 37.9078 91.2191L67.2445 80.3542C68.115 80.0318 69.0799 80.4716 69.4001 81.3363C69.7204 82.201 69.2745 83.1633 68.4042 83.4856Z"
            fill="#ADC9E2" />
        <path
            d="M60.7646 93.437L41.3879 100.613C40.5174 100.936 39.5525 100.496 39.2322 99.6311C38.912 98.7664 39.3578 97.8041 40.2281 97.4818L59.6049 90.3056C60.4754 89.9832 61.4403 90.423 61.7605 91.2877C62.0808 92.1524 61.6349 93.1147 60.7646 93.437Z"
            fill="#ADC9E2" />
        <path
            d="M102.134 95.2081L46.9543 115.644C46.0838 115.966 45.1189 115.527 44.7986 114.662C44.4784 113.797 44.9242 112.835 45.7945 112.513L100.974 92.0767C101.845 91.7543 102.809 92.194 103.13 93.0588C103.45 93.9235 103.004 94.8857 102.134 95.2081Z"
            fill="#ADC9E2" />
        <path
            d="M49.9258 123.667C49.0553 123.989 48.0798 123.553 47.7595 122.689C47.4393 121.824 47.8748 120.866 48.7453 120.543L48.7661 120.536C49.6366 120.213 50.6015 120.653 50.9217 121.518C51.242 122.382 50.7961 123.345 49.9258 123.667Z"
            fill="#1FC974" />
        <path
            d="M125.751 70.5908C130.227 82.6763 123.995 96.1259 111.832 100.631C102.034 104.259 91.3782 100.977 85.2656 93.2459C83.788 91.3787 82.5759 89.2542 81.7053 86.9034C78.2151 77.4797 81.2353 67.2283 88.5029 61.0325C90.5547 59.2826 92.9469 57.8579 95.6238 56.8664C100.551 55.0416 105.697 54.9636 110.375 56.3223C113.928 57.3542 117.21 59.2157 119.913 61.7681C122.442 64.1438 124.467 67.1232 125.751 70.5908Z"
            fill="#1FC974" />
        <path
            d="M125.753 70.5908C130.229 82.6763 123.996 96.1259 111.833 100.631C102.035 104.259 91.3793 100.977 85.2667 93.2459C88.5612 81.8577 89.2253 70.8834 88.504 61.0325C90.5558 59.2826 92.948 57.8579 95.625 56.8664C100.552 55.0416 105.698 54.9636 110.376 56.3223C113.929 57.3542 117.211 59.2157 119.915 61.7681C122.443 64.1438 124.468 67.1232 125.753 70.5908Z"
            fill="#19AA60" />
        <path
            d="M119.914 61.7684L106.043 91.7021C105.428 93.0291 104.333 94.0399 102.957 94.5497C101.583 95.0586 100.093 95.0048 98.7625 94.3985L91.2116 90.9583C89.8836 90.3535 88.8717 89.2658 88.366 87.9003C87.8595 86.5328 87.9199 85.0506 88.5347 83.7236C89.1482 82.3997 90.2454 81.388 91.6197 80.879C92.9937 80.3701 94.4852 80.4232 95.8141 81.0303L98.3838 82.201L110.375 56.3224C113.928 57.3545 117.21 59.2157 119.914 61.7684Z"
            fill="#149856" />
        <path
            d="M102.029 92.0432C101.332 92.3012 100.562 92.2737 99.8884 91.9667L92.3391 88.5271C90.9359 87.8879 90.3239 86.2354 90.9723 84.8366C91.6208 83.4377 93.2842 82.8219 94.6866 83.461L99.6955 85.7432L116.461 49.5614C117.109 48.1627 118.772 47.5467 120.175 48.1858C121.579 48.8251 122.19 50.4773 121.542 51.8763L103.603 90.5913C103.292 91.2628 102.725 91.7853 102.029 92.0432Z"
            fill="#BADB47" />
        <path
            d="M43.2924 78.8989L34.5461 82.1381C33.6756 82.4605 32.7107 82.0207 32.3904 81.156C32.0701 80.2911 32.516 79.329 33.3863 79.0067L42.1327 75.7675C43.0032 75.4451 43.9681 75.8849 44.2884 76.7496C44.6086 77.6143 44.1629 78.5765 43.2924 78.8989Z"
            fill="#ADC9E2" />
    </g>
    <defs>
        <clipPath id="clip0_298_2287">
            <rect width="111.359" height="110.645" fill="white"
                transform="translate(0.572266 38.6748) rotate(-20.3223)" />
        </clipPath>
    </defs>
</svg>